<svg width="18" height="17" viewBox="0 0 18 17" fill="none" xmlns="http://www.w3.org/2000/svg">
<path d="M4.83594 7.5625L4.5 6.67578C4.89323 6.58984 5.22266 6.47005 5.48828 6.31641C5.75391 6.16536 5.95443 5.97005 6.08984 5.73047C6.22526 5.49349 6.29297 5.20573 6.29297 4.86719C6.29297 4.63542 6.26042 4.38151 6.19531 4.10547C6.13021 3.82943 6.05469 3.5651 5.96875 3.3125L6.86719 3.01562C6.96615 3.29167 7.04036 3.58073 7.08984 3.88281C7.14193 4.1849 7.16797 4.47656 7.16797 4.75781C7.16797 5.26302 7.07682 5.70703 6.89453 6.08984C6.71224 6.47526 6.44661 6.79167 6.09766 7.03906C5.7487 7.28906 5.32812 7.46354 4.83594 7.5625Z" fill="#0F2C30"/>
<path d="M8.98047 0V5.4375H8.07422V0H8.98047Z" fill="#0F2C30"/>
<path d="M10.668 1.08984L11.3203 1.74219L10.668 2.39062L10.0195 1.74219L10.668 1.08984ZM12.1172 5.44141C11.9766 5.44141 11.8516 5.42448 11.7422 5.39062C11.6328 5.35677 11.543 5.31771 11.4727 5.27344C11.4154 5.64844 11.2943 5.99219 11.1094 6.30469C10.9271 6.61979 10.6758 6.88411 10.3555 7.09766C10.0352 7.3138 9.64062 7.46745 9.17188 7.55859L8.84375 6.67578C9.23698 6.58984 9.56641 6.47005 9.83203 6.31641C10.0977 6.16536 10.2982 5.97005 10.4336 5.73047C10.569 5.49349 10.6367 5.20573 10.6367 4.86719C10.6367 4.63542 10.6042 4.38151 10.5391 4.10547C10.474 3.82943 10.3984 3.5651 10.3125 3.3125L11.2109 3.01562L11.4297 3.875C11.4792 4.0625 11.5534 4.20833 11.6523 4.3125C11.7539 4.41667 11.8945 4.46875 12.0742 4.46875H12.2227V5.44141H12.1172Z" fill="#0F2C30"/>
<path d="M13.5391 3.49219C13.5391 3.59115 13.569 3.6875 13.6289 3.78125C13.6888 3.875 13.7695 3.95964 13.8711 4.03516C13.9727 4.11068 14.0846 4.17057 14.207 4.21484C14.3138 4.17839 14.4141 4.1276 14.5078 4.0625C14.6042 3.9974 14.6836 3.92057 14.7461 3.83203C14.8086 3.74089 14.8398 3.64453 14.8398 3.54297C14.8398 3.42057 14.8112 3.3112 14.7539 3.21484C14.6966 3.11849 14.6211 3.04297 14.5273 2.98828C14.4336 2.93099 14.3294 2.90234 14.2148 2.90234C14.0273 2.90234 13.8672 2.95833 13.7344 3.07031C13.6042 3.18229 13.5391 3.32292 13.5391 3.49219ZM14.082 2.21094L14.4961 1.41016C14.9753 1.63932 15.3971 1.85156 15.7617 2.04688C16.1263 2.23958 16.4323 2.42839 16.6797 2.61328C16.9271 2.79818 17.1133 2.99089 17.2383 3.19141C17.3633 3.39193 17.4258 3.61589 17.4258 3.86328C17.4258 4.36589 17.2734 4.7487 16.9688 5.01172C16.6641 5.27214 16.2578 5.40234 15.75 5.40234C15.5677 5.40234 15.3763 5.38672 15.1758 5.35547C14.9779 5.32422 14.7878 5.28646 14.6055 5.24219C14.4258 5.19531 14.2708 5.15104 14.1406 5.10938C13.9062 5.19271 13.638 5.26953 13.3359 5.33984C13.0365 5.40755 12.7435 5.44141 12.457 5.44141H12.0703V4.46875H12.4062C12.526 4.46875 12.6341 4.46745 12.7305 4.46484C12.8294 4.45964 12.9323 4.45182 13.0391 4.44141C12.9609 4.36068 12.8958 4.26823 12.8438 4.16406C12.7917 4.0599 12.7513 3.95052 12.7227 3.83594C12.694 3.71875 12.6797 3.60677 12.6797 3.5C12.6797 3.25521 12.7396 3.02865 12.8594 2.82031C12.9792 2.61198 13.1497 2.44401 13.3711 2.31641C13.5924 2.1862 13.8568 2.12109 14.1641 2.12109C14.401 2.12109 14.6289 2.17839 14.8477 2.29297C15.069 2.40755 15.2487 2.5625 15.3867 2.75781C15.5273 2.95312 15.5977 3.17318 15.5977 3.41797C15.5977 3.5638 15.5807 3.69922 15.5469 3.82422C15.513 3.94661 15.4635 4.0599 15.3984 4.16406C15.3333 4.26823 15.2565 4.36589 15.168 4.45703C15.2878 4.47526 15.4089 4.48958 15.5312 4.5C15.6536 4.51042 15.75 4.51562 15.8203 4.51562C16.0339 4.51562 16.2109 4.46875 16.3516 4.375C16.4948 4.28125 16.5664 4.11849 16.5664 3.88672C16.5664 3.82161 16.5391 3.7487 16.4844 3.66797C16.4323 3.58724 16.3477 3.4974 16.2305 3.39844C16.1159 3.29948 15.9622 3.19141 15.7695 3.07422C15.5794 2.95703 15.3451 2.82682 15.0664 2.68359C14.7878 2.54036 14.4596 2.38281 14.082 2.21094Z" fill="#0F2C30"/>
<path d="M2.35156 10.8945L3.00391 11.5469L2.35156 12.1953L1.70312 11.5469L2.35156 10.8945ZM2.39844 15.207C2.79688 15.207 3.10807 15.1432 3.33203 15.0156C3.55859 14.888 3.71875 14.7161 3.8125 14.5C3.90625 14.2839 3.95312 14.0456 3.95312 13.7852C3.95312 13.4909 3.90885 13.1953 3.82031 12.8984C3.73177 12.599 3.63932 12.3281 3.54297 12.0859L4.44531 11.7383C4.58333 12.1081 4.68229 12.4557 4.74219 12.7812C4.80469 13.1068 4.83594 13.4297 4.83594 13.75C4.83594 14.237 4.74609 14.6615 4.56641 15.0234C4.38672 15.388 4.11589 15.6693 3.75391 15.8672C3.39453 16.0677 2.94271 16.168 2.39844 16.168C1.83854 16.168 1.38151 16.0625 1.02734 15.8516C0.673177 15.6406 0.41276 15.3555 0.246094 14.9961C0.0820312 14.6367 0 14.2357 0 13.793C0 13.4935 0.03125 13.1862 0.09375 12.8711C0.158854 12.5534 0.25 12.2409 0.367188 11.9336L1.19141 12.2539C1.10547 12.5169 1.03125 12.7786 0.96875 13.0391C0.908854 13.2969 0.878906 13.5417 0.878906 13.7734C0.878906 14.0339 0.925781 14.2721 1.01953 14.4883C1.11328 14.707 1.26953 14.8815 1.48828 15.0117C1.70964 15.1419 2.01302 15.207 2.39844 15.207Z" fill="#0F2C30"/>
<path d="M5.74609 9H6.64844V12.6328C6.64844 12.9453 6.69922 13.1628 6.80078 13.2852C6.90234 13.4076 7.08333 13.4688 7.34375 13.4688H7.44141V14.4414H7.34375C6.79427 14.4414 6.39062 14.2982 6.13281 14.0117C5.875 13.7227 5.74609 13.2826 5.74609 12.6914V9Z" fill="#0F2C30"/>
<path d="M9.83984 12.3242C9.72266 12.3242 9.61719 12.3633 9.52344 12.4414C9.42969 12.5195 9.34635 12.6159 9.27344 12.7305C9.20312 12.8451 9.14062 12.9583 9.08594 13.0703C9.16406 13.1458 9.23958 13.2122 9.3125 13.2695C9.38802 13.3242 9.45833 13.3724 9.52344 13.4141C9.625 13.4714 9.71745 13.513 9.80078 13.5391C9.88672 13.5651 9.96224 13.5781 10.0273 13.5781C10.1888 13.5781 10.3047 13.5286 10.375 13.4297C10.4479 13.3307 10.4844 13.2057 10.4844 13.0547C10.4844 12.849 10.4271 12.6758 10.3125 12.5352C10.2005 12.3945 10.043 12.3242 9.83984 12.3242ZM10.0273 14.5312C9.85026 14.5312 9.68099 14.5052 9.51953 14.4531C9.36068 14.401 9.20443 14.3281 9.05078 14.2344C8.89974 14.138 8.7474 14.026 8.59375 13.8984C8.49479 14.0052 8.39453 14.099 8.29297 14.1797C8.19401 14.2604 8.07943 14.3242 7.94922 14.3711C7.81901 14.418 7.65625 14.4414 7.46094 14.4414H7.28906V13.4688H7.44141C7.58724 13.4688 7.71354 13.4193 7.82031 13.3203C7.92969 13.2214 8.03125 13.0924 8.125 12.9336C8.22135 12.7747 8.31901 12.6081 8.41797 12.4336C8.51953 12.2565 8.63281 12.0885 8.75781 11.9297C8.88281 11.7708 9.02995 11.6419 9.19922 11.543C9.37109 11.444 9.57552 11.3945 9.8125 11.3945C10.125 11.3945 10.3958 11.4701 10.625 11.6211C10.8568 11.7695 11.0352 11.9674 11.1602 12.2148C11.2878 12.4596 11.3516 12.7292 11.3516 13.0234C11.3516 13.3203 11.3008 13.582 11.1992 13.8086C11.1003 14.0352 10.9531 14.2122 10.7578 14.3398C10.5625 14.4674 10.319 14.5312 10.0273 14.5312Z" fill="#0F2C30"/>
<path d="M13.4609 11.3516C13.6927 11.3516 13.8997 11.4036 14.082 11.5078C14.2669 11.612 14.4258 11.7604 14.5586 11.9531C14.694 12.1432 14.7995 12.3672 14.875 12.625C14.9531 12.8828 15 13.1641 15.0156 13.4688H15.375V14.4414H14.9453C14.862 14.8008 14.7174 15.1211 14.5117 15.4023C14.306 15.6836 14.0273 15.9206 13.6758 16.1133C13.3268 16.3086 12.8919 16.457 12.3711 16.5586L12.043 15.6719C12.3945 15.6042 12.7109 15.513 12.9922 15.3984C13.2734 15.2839 13.5065 15.1458 13.6914 14.9844C13.8789 14.8255 14.0039 14.6445 14.0664 14.4414H13.6055C13.0924 14.4414 12.7031 14.3359 12.4375 14.125C12.1745 13.9115 12.043 13.5755 12.043 13.1172C12.043 12.9245 12.0716 12.7253 12.1289 12.5195C12.1888 12.3138 12.2773 12.1224 12.3945 11.9453C12.5143 11.7682 12.6628 11.625 12.8398 11.5156C13.0195 11.4062 13.2266 11.3516 13.4609 11.3516ZM13.5898 13.4688H14.1602C14.1471 13.3073 14.1237 13.1562 14.0898 13.0156C14.0586 12.875 14.0143 12.7513 13.957 12.6445C13.9023 12.5378 13.8333 12.4557 13.75 12.3984C13.6667 12.3385 13.5677 12.3086 13.4531 12.3086C13.3151 12.3086 13.2057 12.3529 13.125 12.4414C13.0443 12.5299 12.987 12.6341 12.9531 12.7539C12.9193 12.8737 12.9023 12.9831 12.9023 13.082C12.9023 13.2383 12.9622 13.3424 13.082 13.3945C13.2018 13.444 13.3711 13.4688 13.5898 13.4688Z" fill="#0F2C30"/>
<path d="M15.2188 13.4688H15.4961V14.4414H15.2188V13.4688ZM16.9453 9.5625L17.5664 10.1836L16.9453 10.8086L16.3242 10.1836L16.9453 9.5625ZM15.6328 9.5625L16.2578 10.1836L15.6328 10.8086L15.0156 10.1836L15.6328 9.5625ZM16.0156 14.4414H15.3906V13.4688H16.0156C16.237 13.4688 16.388 13.4023 16.4688 13.2695C16.5495 13.1367 16.5898 12.9674 16.5898 12.7617C16.5898 12.5872 16.5703 12.3984 16.5312 12.1953C16.4948 11.9922 16.4557 11.7904 16.4141 11.5898L17.3086 11.3633C17.3581 11.5924 17.3958 11.8203 17.4219 12.0469C17.4505 12.2708 17.4648 12.4857 17.4648 12.6914C17.4648 13.0247 17.4193 13.3242 17.3281 13.5898C17.2396 13.8529 17.0898 14.0612 16.8789 14.2148C16.668 14.3659 16.3802 14.4414 16.0156 14.4414Z" fill="#0F2C30"/>
</svg>
