<svg width="37" height="36" viewBox="0 0 37 36" fill="none" xmlns="http://www.w3.org/2000/svg">
<path d="M18.5 6V11M18.5 6H21.5M18.5 6H15.5" stroke="#94D9E2" stroke-width="3" stroke-linecap="round" stroke-linejoin="round"/>
<path d="M6.5 24C5.70435 24 4.94129 24.3161 4.37868 24.8787C3.81607 25.4413 3.5 26.2044 3.5 27V28.5C3.5 28.8978 3.65804 29.2794 3.93934 29.5607C4.22064 29.842 4.60218 30 5 30H32C32.3978 30 32.7794 29.842 33.0607 29.5607C33.342 29.2794 33.5 28.8978 33.5 28.5V27C33.5 26.2044 33.1839 25.4413 32.6213 24.8787C32.0587 24.3161 31.2956 24 30.5 24M6.5 24H30.5M6.5 24C6.5 20.8174 7.76428 17.7652 10.0147 15.5147C12.2652 13.2643 15.3174 12 18.5 12C21.6826 12 24.7348 13.2643 26.9853 15.5147C29.2357 17.7652 30.5 20.8174 30.5 24" stroke="#0F2C30" stroke-width="3" stroke-linecap="round" stroke-linejoin="round"/>
</svg>
