<svg width="37" height="36" viewBox="0 0 37 36" fill="none" xmlns="http://www.w3.org/2000/svg">
<path d="M27.5 33H6.5C5.70435 33 4.94129 32.6839 4.37868 32.1213C3.81607 31.5587 3.5 30.7956 3.5 30V9" stroke="#0F2C30" stroke-width="3" stroke-linecap="round" stroke-linejoin="round"/>
<path d="M33.5 19.5L31.556 17.556C30.8781 16.8782 29.9587 16.4974 29 16.4974C28.0413 16.4974 27.1219 16.8782 26.444 17.556L17 27" stroke="#94D9E2" stroke-width="3" stroke-linecap="round" stroke-linejoin="round"/>
<path d="M18.5 15C20.1569 15 21.5 13.6569 21.5 12C21.5 10.3431 20.1569 9 18.5 9C16.8431 9 15.5 10.3431 15.5 12C15.5 13.6569 16.8431 15 18.5 15Z" stroke="#94D9E2" stroke-width="3" stroke-linecap="round" stroke-linejoin="round"/>
<path d="M30.5 3H12.5C10.8431 3 9.5 4.34315 9.5 6V24C9.5 25.6569 10.8431 27 12.5 27H30.5C32.1569 27 33.5 25.6569 33.5 24V6C33.5 4.34315 32.1569 3 30.5 3Z" stroke="#0F2C30" stroke-width="3" stroke-linecap="round" stroke-linejoin="round"/>
</svg>
