<svg width="36" height="36" viewBox="0 0 36 36" fill="none" xmlns="http://www.w3.org/2000/svg">
<g clip-path="url(#clip0_1224_277)">
<path d="M15.6316 13.5C15.6316 12.6716 14.96 12 14.1316 12H9.31579C5.82768 12 3 14.6863 3 18C3 21.3137 5.82768 24 9.31579 24H14.1316C14.96 24 15.6316 23.3285 15.6316 22.5C15.6316 21.6715 14.96 21 14.1316 21H9.31579C7.57173 21 6.15789 19.6569 6.15789 18C6.15789 16.3431 7.57173 15 9.31579 15H14.1316C14.96 15 15.6316 14.3284 15.6316 13.5Z" fill="#0F2C30"/>
<path d="M20.3682 22.5C20.3682 21.6715 21.0399 21 21.8682 21H26.6841C28.4281 21 29.8419 19.6569 29.8419 18C29.8419 16.3431 28.4281 15 26.6841 15H21.8682C21.0399 15 20.3682 14.3284 20.3682 13.5C20.3682 12.6716 21.0399 12 21.8682 12H26.6841C30.1722 12 32.9998 14.6863 32.9998 18C32.9998 21.3137 30.1722 24 26.6841 24H21.8682C21.0399 24 20.3682 23.3285 20.3682 22.5Z" fill="#0F2C30"/>
<path d="M22.5 18H13.5" stroke="#94D9E2" stroke-width="4" stroke-linecap="round"/>
</g>
<defs>
<clipPath id="clip0_1224_277">
<rect width="36" height="36" fill="white"/>
</clipPath>
</defs>
</svg>
