<svg width="22" height="26" viewBox="0 0 22 26" fill="none" xmlns="http://www.w3.org/2000/svg">
<path d="M19.5312 11.4375H18.3594V7.92188C18.3594 3.83008 15.0293 0.5 10.9375 0.5C6.8457 0.5 3.51562 3.83008 3.51562 7.92188V11.4375H2.34375C1.0498 11.4375 0 12.4873 0 13.7812V23.1562C0 24.4502 1.0498 25.5 2.34375 25.5H19.5312C20.8252 25.5 21.875 24.4502 21.875 23.1562V13.7812C21.875 12.4873 20.8252 11.4375 19.5312 11.4375ZM14.4531 11.4375H7.42188V7.92188C7.42188 5.9834 8.99902 4.40625 10.9375 4.40625C12.876 4.40625 14.4531 5.9834 14.4531 7.92188V11.4375Z" fill="#0F2C30"/>
</svg>
