<svg width="37" height="36" viewBox="0 0 37 36" fill="none" xmlns="http://www.w3.org/2000/svg">
<path d="M17 25.5C17 27.0913 16.3679 28.6174 15.2426 29.7426C14.1174 30.8679 12.5913 31.5 11 31.5C9.4087 31.5 7.88258 30.8679 6.75736 29.7426C5.63214 28.6174 5 27.0913 5 25.5V7.5C5 6.70435 5.31607 5.94129 5.87868 5.37868C6.44129 4.81607 7.20435 4.5 8 4.5H14C14.7956 4.5 15.5587 4.81607 16.1213 5.37868C16.6839 5.94129 17 6.70435 17 7.5V25.5Z" stroke="#0F2C30" stroke-width="3" stroke-linecap="round" stroke-linejoin="round"/>
<path d="M25.55 19.5H29C29.7956 19.5 30.5587 19.8161 31.1213 20.3787C31.6839 20.9413 32 21.7044 32 22.5V28.5C32 29.2956 31.6839 30.0587 31.1213 30.6213C30.5587 31.1839 29.7956 31.5 29 31.5H11" stroke="#0F2C30" stroke-width="3" stroke-linecap="round" stroke-linejoin="round"/>
<path d="M17 12L20.45 8.55001C20.785 8.21388 21.1831 7.94729 21.6214 7.76558C22.0598 7.58386 22.5297 7.49059 23.0043 7.49115C23.4788 7.49171 23.9485 7.58608 24.3864 7.76882C24.8244 7.95157 25.2218 8.21909 25.556 8.55601L28.4 11.4C28.7459 11.7327 29.0218 12.1312 29.2114 12.5721C29.401 13.013 29.5006 13.4874 29.5042 13.9673C29.5079 14.4472 29.4155 14.923 29.2326 15.3667C29.0496 15.8104 28.7798 16.2131 28.439 16.551L15.35 29.7" stroke="#0F2C30" stroke-width="3" stroke-linecap="round" stroke-linejoin="round"/>
<path d="M11 27.5C12.1046 27.5 13 26.6046 13 25.5C13 24.3954 12.1046 23.5 11 23.5C9.89543 23.5 9 24.3954 9 25.5C9 26.6046 9.89543 27.5 11 27.5Z" fill="#94D9E2"/>
</svg>
