<svg width="37" height="36" viewBox="0 0 37 36" fill="none" xmlns="http://www.w3.org/2000/svg">
<path d="M20.75 10.5C21.1642 10.5 21.5 10.1642 21.5 9.75C21.5 9.33579 21.1642 9 20.75 9C20.3358 9 20 9.33579 20 9.75C20 10.1642 20.3358 10.5 20.75 10.5Z" fill="#94D9E2" stroke="#94D9E2" stroke-width="3" stroke-linecap="round" stroke-linejoin="round"/>
<path d="M26.75 16.5C27.1642 16.5 27.5 16.1642 27.5 15.75C27.5 15.3358 27.1642 15 26.75 15C26.3358 15 26 15.3358 26 15.75C26 16.1642 26.3358 16.5 26.75 16.5Z" fill="#94D9E2" stroke="#94D9E2" stroke-width="3" stroke-linecap="round" stroke-linejoin="round"/>
<path d="M13.25 12C13.6642 12 14 11.6642 14 11.25C14 10.8358 13.6642 10.5 13.25 10.5C12.8358 10.5 12.5 10.8358 12.5 11.25C12.5 11.6642 12.8358 12 13.25 12Z" fill="#94D9E2" stroke="#94D9E2" stroke-width="3" stroke-linecap="round" stroke-linejoin="round"/>
<path d="M10.25 19.5C10.6642 19.5 11 19.1642 11 18.75C11 18.3358 10.6642 18 10.25 18C9.83579 18 9.5 18.3358 9.5 18.75C9.5 19.1642 9.83579 19.5 10.25 19.5Z" fill="#94D9E2" stroke="#94D9E2" stroke-width="3" stroke-linecap="round" stroke-linejoin="round"/>
<path d="M18.5 3C10.25 3 3.5 9.75 3.5 18C3.5 26.25 10.25 33 18.5 33C19.889 33 20.972 31.881 20.972 30.468C20.972 29.8125 20.702 29.2155 20.3165 28.7805C19.8815 28.347 19.6595 27.8025 19.6595 27.093C19.6538 26.7629 19.7146 26.435 19.8384 26.1288C19.9621 25.8227 20.1462 25.5446 20.3797 25.3112C20.6131 25.0777 20.8912 24.8936 21.1973 24.7699C21.5035 24.6461 21.8314 24.5853 22.1615 24.591H25.1555C29.732 24.591 33.488 20.8365 33.488 16.26C33.4475 9.018 26.6915 3 18.5 3Z" stroke="#0F2C30" stroke-width="3" stroke-linecap="round" stroke-linejoin="round"/>
</svg>
