<svg width="36" height="36" viewBox="0 0 36 36" fill="none" xmlns="http://www.w3.org/2000/svg">
<g clip-path="url(#clip0_1235_1283)">
<path d="M31.9991 24.9634V29.1785C32.0007 29.5698 31.9204 29.9571 31.7633 30.3157C31.6063 30.6742 31.3759 30.9961 31.087 31.2606C30.798 31.5251 30.457 31.7265 30.0855 31.8519C29.7141 31.9773 29.3206 32.0238 28.9301 31.9886C24.5979 31.5188 20.4366 30.0414 16.7805 27.6751C13.3789 25.5179 10.495 22.6397 8.33347 19.2449C5.9542 15.5794 4.47354 11.4061 4.01143 7.06313C3.97625 6.67459 4.02251 6.28299 4.14728 5.91328C4.27205 5.54356 4.47259 5.20382 4.73613 4.91569C4.99967 4.62756 5.32044 4.39736 5.67801 4.23973C6.03558 4.0821 6.42212 4.0005 6.81301 4.00014H11.0365C11.7197 3.99343 12.3821 4.23489 12.9001 4.67952C13.4182 5.12415 13.7566 5.74161 13.8522 6.41681C14.0304 7.76574 14.361 9.09022 14.8377 10.365C15.0271 10.8679 15.0681 11.4144 14.9558 11.9399C14.8435 12.4653 14.5826 12.9476 14.2041 13.3296L12.4162 15.114C14.4203 18.6316 17.3386 21.5441 20.8632 23.5443L22.6511 21.7599C23.0339 21.3821 23.5172 21.1218 24.0436 21.0097C24.5701 20.8977 25.1178 20.9386 25.6217 21.1276C26.8989 21.6033 28.226 21.9332 29.5777 22.1111C30.2615 22.2074 30.8861 22.5512 31.3326 23.0771C31.779 23.603 32.0163 24.2743 31.9991 24.9634Z" stroke="#0F2C30" stroke-width="3" stroke-linecap="round" stroke-linejoin="round"/>
</g>
<defs>
<clipPath id="clip0_1235_1283">
<rect width="36" height="36" fill="white"/>
</clipPath>
</defs>
</svg>
