<svg width="24" height="24" viewBox="0 0 24 24" fill="none" xmlns="http://www.w3.org/2000/svg">
<path fill-rule="evenodd" clip-rule="evenodd" d="M12.0005 9.28774C12.5528 9.28774 13.0005 9.73546 13.0005 10.2877V11.3182C16.4457 11.678 19.7014 13.9039 20.8036 17.9959H20.9968C21.5491 17.9959 21.9968 18.4436 21.9968 18.9959C21.9968 19.5482 21.5491 19.9959 20.9968 19.9959H3.00342C2.45113 19.9959 2.00342 19.5482 2.00342 18.9959C2.00342 18.4436 2.45113 17.9959 3.00342 17.9959H3.19747C4.29962 13.9039 7.55536 11.678 11.0005 11.3182V10.2877C11.0005 9.73546 11.4482 9.28774 12.0005 9.28774ZM18.7129 17.9959H5.28814C7.46133 11.6896 16.5397 11.6896 18.7129 17.9959Z" fill="#0F2C30"/>
<path d="M4.77734 6.84134L6.84679 8.84709" stroke="#94D9E2" stroke-width="2" stroke-linecap="round"/>
<path d="M19.4443 6.84134L17.3749 8.84709" stroke="#94D9E2" stroke-width="2" stroke-linecap="round"/>
<path d="M12.1992 4.0041L12.1992 7.01344" stroke="#94D9E2" stroke-width="2" stroke-linecap="round"/>
</svg>
