<svg width="37" height="36" viewBox="0 0 37 36" fill="none" xmlns="http://www.w3.org/2000/svg">
<path d="M15.4055 23.25C15.2716 22.7309 15.001 22.2572 14.6219 21.8781C14.2428 21.499 13.7691 21.2284 13.25 21.0945L4.0475 18.7215C3.8905 18.6769 3.75232 18.5824 3.65392 18.4522C3.55553 18.322 3.50229 18.1632 3.50229 18C3.50229 17.8368 3.55553 17.678 3.65392 17.5478C3.75232 17.4176 3.8905 17.3231 4.0475 17.2785L13.25 14.904C13.7689 14.7702 14.2425 14.4999 14.6216 14.1211C15.0007 13.7423 15.2713 13.2688 15.4055 12.75L17.7785 3.54751C17.8226 3.38989 17.9171 3.25102 18.0475 3.1521C18.1779 3.05318 18.3371 2.99963 18.5008 2.99963C18.6644 2.99963 18.8236 3.05318 18.954 3.1521C19.0844 3.25102 19.1789 3.38989 19.223 3.54751L21.5945 12.75C21.7284 13.2691 21.999 13.7429 22.3781 14.1219C22.7572 14.501 23.2309 14.7716 23.75 14.9055L32.9525 17.277C33.1108 17.3207 33.2503 17.415 33.3498 17.5456C33.4492 17.6762 33.5031 17.8358 33.5031 18C33.5031 18.1642 33.4492 18.3238 33.3498 18.4544C33.2503 18.585 33.1108 18.6794 32.9525 18.723L23.75 21.0945C23.2309 21.2284 22.7572 21.499 22.3781 21.8781C21.999 22.2572 21.7284 22.7309 21.5945 23.25L19.2215 32.4525C19.1774 32.6101 19.0829 32.749 18.9525 32.8479C18.8221 32.9468 18.6629 33.0004 18.4993 33.0004C18.3356 33.0004 18.1764 32.9468 18.046 32.8479C17.9156 32.749 17.8211 32.6101 17.777 32.4525L15.4055 23.25Z" stroke="#0F2C30" stroke-width="3" stroke-linecap="round" stroke-linejoin="round"/>
<path d="M30.5 4.5V10.5" stroke="#94D9E2" stroke-width="3" stroke-linecap="round" stroke-linejoin="round"/>
<path d="M33.5 7.5H27.5" stroke="#94D9E2" stroke-width="3" stroke-linecap="round" stroke-linejoin="round"/>
<path d="M6.5 25.5V28.5" stroke="#94D9E2" stroke-width="3" stroke-linecap="round" stroke-linejoin="round"/>
<path d="M8 27H5" stroke="#94D9E2" stroke-width="3" stroke-linecap="round" stroke-linejoin="round"/>
</svg>
