<svg width="36" height="36" viewBox="0 0 36 36" fill="none" xmlns="http://www.w3.org/2000/svg">
<g clip-path="url(#clip0_1490_1184)">
<path d="M4.5 9H7.5H31.5" stroke="#0F2C30" stroke-width="3" stroke-linecap="round" stroke-linejoin="round"/>
<path d="M28.5 9V30C28.5 30.7956 28.1839 31.5587 27.6213 32.1213C27.0587 32.6839 26.2956 33 25.5 33H10.5C9.70435 33 8.94129 32.6839 8.37868 32.1213C7.81607 31.5587 7.5 30.7956 7.5 30V9M12 9V6C12 5.20435 12.3161 4.44129 12.8787 3.87868C13.4413 3.31607 14.2044 3 15 3H21C21.7956 3 22.5587 3.31607 23.1213 3.87868C23.6839 4.44129 24 5.20435 24 6V9" stroke="#0F2C30" stroke-width="3" stroke-linecap="round" stroke-linejoin="round"/>
<path d="M15 16.5V25.5" stroke="#0F2C30" stroke-width="3" stroke-linecap="round" stroke-linejoin="round"/>
<path d="M21 16.5V25.5" stroke="#0F2C30" stroke-width="3" stroke-linecap="round" stroke-linejoin="round"/>
</g>
<defs>
<clipPath id="clip0_1490_1184">
<rect width="36" height="36" fill="white"/>
</clipPath>
</defs>
</svg>
