<svg width="20" height="20" viewBox="0 0 20 20" fill="none" xmlns="http://www.w3.org/2000/svg">
<path d="M17.2408 8.17313V7.13872C17.2408 4.30073 14.9402 2.00006 12.1022 2.00006H7.89788C5.05979 2.00011 2.75917 4.30073 2.75917 7.13872V8.17313H17.2408Z" fill="#FFAD41"/>
<path d="M10 2.00012H7.89783C5.05979 2.00012 2.75917 4.30074 2.75917 7.13873V8.17314H10V2.00012Z" fill="#FF9811"/>
<path d="M5.34518 6.13768C5.63082 6.13768 5.86238 5.90612 5.86238 5.62047C5.86238 5.33483 5.63082 5.10327 5.34518 5.10327C5.05954 5.10327 4.82798 5.33483 4.82798 5.62047C4.82798 5.90612 5.05954 6.13768 5.34518 6.13768Z" fill="#804C09"/>
<path d="M7.93119 4.58604C8.21683 4.58604 8.44839 4.35448 8.44839 4.06884C8.44839 3.7832 8.21683 3.55164 7.93119 3.55164C7.64555 3.55164 7.41399 3.7832 7.41399 4.06884C7.41399 4.35448 7.64555 4.58604 7.93119 4.58604Z" fill="#804C09"/>
<path d="M14.6548 6.13768C14.9405 6.13768 15.172 5.90612 15.172 5.62047C15.172 5.33483 14.9405 5.10327 14.6548 5.10327C14.3692 5.10327 14.1376 5.33483 14.1376 5.62047C14.1376 5.90612 14.3692 6.13768 14.6548 6.13768Z" fill="#BD720D"/>
<path d="M12.0688 4.58604C12.3545 4.58604 12.586 4.35448 12.586 4.06884C12.586 3.7832 12.3545 3.55164 12.0688 3.55164C11.7832 3.55164 11.5516 3.7832 11.5516 4.06884C11.5516 4.35448 11.7832 4.58604 12.0688 4.58604Z" fill="#BD720D"/>
<path d="M10 6.13768C10.2856 6.13768 10.5172 5.90612 10.5172 5.62047C10.5172 5.33483 10.2856 5.10327 10 5.10327C9.71436 5.10327 9.4828 5.33483 9.4828 5.62047C9.4828 5.90612 9.71436 6.13768 10 6.13768Z" fill="#BD720D"/>
<path d="M10 5.10327C9.71435 5.10327 9.4828 5.33482 9.4828 5.62047C9.4828 5.90612 9.71435 6.13768 10 6.13768" fill="#804C09"/>
<path d="M15.6892 12.3109H4.31077C3.45387 12.3109 2.75917 13.0056 2.75917 13.8625C2.75917 14.7194 3.45387 15.4141 4.31077 15.4141H15.6892C16.5461 15.4141 17.2408 14.7194 17.2408 13.8625C17.2408 13.0056 16.5461 12.3109 15.6892 12.3109Z" fill="#BD720D"/>
<path d="M10 12.3109H4.31077C3.45387 12.3109 2.75917 13.0056 2.75917 13.8625C2.75917 14.7194 3.45387 15.4141 4.31077 15.4141H10V12.3109Z" fill="#804C09"/>
<path d="M18.2752 16.4484C18.2752 17.3053 17.5805 18 16.7236 18H3.27637C2.41947 18 1.72476 17.3053 1.72476 16.4484C1.72476 15.5915 2.41947 14.8968 3.27637 14.8968H16.7236C17.5805 14.8968 18.2752 15.5915 18.2752 16.4484Z" fill="#FFAD41"/>
<path d="M10 14.8969H3.27637C2.41947 14.8969 1.72476 15.5916 1.72476 16.4485C1.72476 17.3054 2.41947 18.0001 3.27637 18.0001H10V14.8969Z" fill="#FF9811"/>
<path d="M4.82798 12.8281L10 12.3109L15.172 12.8281L10 15.414L4.82798 12.8281Z" fill="#FFE98F"/>
<path d="M4.82798 12.8281L10 12.3109V15.414L4.82798 12.8281Z" fill="#FFDA44"/>
<path d="M15.6892 8.69043H4.31077C3.45387 8.69043 2.75917 9.38514 2.75917 10.242C2.75917 11.0989 3.45387 11.7936 4.31077 11.7936H15.6892C16.5461 11.7936 17.2408 11.0989 17.2408 10.242C17.2408 9.38514 16.5461 8.69043 15.6892 8.69043Z" fill="#BD720D"/>
<path d="M10 8.69043H4.31077C3.45387 8.69043 2.75917 9.38514 2.75917 10.242C2.75917 11.0989 3.45387 11.7936 4.31077 11.7936H10V8.69043Z" fill="#804C09"/>
<path d="M18.2752 12.0522C18.2752 12.4807 17.9279 12.828 17.4994 12.828H2.50057C2.07217 12.828 1.72476 12.4807 1.72476 12.0522C1.72476 11.6238 2.07217 11.2764 2.50057 11.2764H17.4994C17.9279 11.2764 18.2752 11.6237 18.2752 12.0522Z" fill="#FF5023"/>
<path d="M10 11.2764H2.50057C2.07217 11.2764 1.72476 11.6238 1.72476 12.0522C1.72476 12.4807 2.07217 12.828 2.50057 12.828H10V11.2764Z" fill="#BD3C1A"/>
<path d="M4.82798 9.20763L10 8.69043L15.172 9.20763L10 11.7936L4.82798 9.20763Z" fill="#FFE98F"/>
<path d="M4.82798 9.20763L10 8.69043V11.7936L4.82798 9.20763Z" fill="#FFDA44"/>
<path d="M18.2752 8.43181C18.2752 8.86026 17.9279 9.20761 17.4994 9.20761H2.50057C2.07217 9.20761 1.72476 8.86026 1.72476 8.43181C1.72476 8.00336 2.07217 7.65601 2.50057 7.65601H17.4994C17.9279 7.65595 18.2752 8.00331 18.2752 8.43181Z" fill="#91DC5A"/>
<path d="M10 7.65594H2.50057C2.07217 7.65594 1.72476 8.0033 1.72476 8.43175C1.72476 8.8602 2.07217 9.20755 2.50057 9.20755H10V7.65594Z" fill="#64C37D"/>
</svg>
