<svg width="20" height="20" viewBox="0 0 20 20" fill="none" xmlns="http://www.w3.org/2000/svg">
<g clip-path="url(#clip0_123_318)">
<path d="M12.8571 5.14291C12.8571 5.61628 12.4734 6.00005 12 6.00005H3.42857C2.9552 6.00005 2.57143 5.61628 2.57143 5.14291C2.57143 4.66954 2.9552 4.28577 3.42857 4.28577H12C12.4734 4.28577 12.8571 4.66954 12.8571 5.14291Z" fill="#ACABB1"/>
<path d="M5.42857 4.28577H3.42857C2.9552 4.28577 2.57143 4.66954 2.57143 5.14291C2.57143 5.61628 2.9552 6.00005 3.42857 6.00005H5.42857V4.28577Z" fill="#BD3C1A"/>
<path d="M12.2857 5.14288L12 3.14288C10.8954 3.14288 10 4.03831 10 5.14288C10 6.24745 10.8954 7.14288 12 7.14288L12.2857 5.14288Z" fill="#CDCDD0"/>
<path d="M15.1429 12.8572H11.7143V3.14288H13.4286L15.1429 8.28574V12.8572Z" fill="#FFDA44"/>
<path d="M14.7394 14.8572C14.9992 14.2424 15.1429 13.5665 15.1429 12.8572C15.1429 10.0168 12.8403 7.71429 10 7.71429C7.15966 7.71429 4.85714 10.0168 4.85714 12.8572C4.85714 13.5665 5.0008 14.2424 5.26057 14.8572H14.7394Z" fill="#FFDA44"/>
<path d="M10 14.8572C10 13.5473 10 12.2857 10 7.71429C7.15966 7.71429 4.85714 10.0168 4.85714 12.8572C4.85714 13.5665 5.0008 14.2424 5.26057 14.8572H10Z" fill="#FFAD41"/>
<path d="M12.7839 14.8572C13.1891 14.2941 13.4286 13.6038 13.4286 12.8572C13.4286 10.9636 11.8935 9.42859 10 9.42859C8.10646 9.42859 6.57143 10.9636 6.57143 12.8572C6.57143 13.6038 6.8108 14.2941 7.21606 14.8572H12.7839Z" fill="#FFE98F"/>
<path d="M10 14.5715C10.9468 14.5715 11.7143 13.8039 11.7143 12.8572C11.7143 11.9104 10.9468 11.1429 10 11.1429C9.05323 11.1429 8.28571 11.9104 8.28571 12.8572C8.28571 13.8039 9.05323 14.5715 10 14.5715Z" fill="#FFDA44"/>
<path d="M10 14.5715C9.05326 14.5715 8.28571 13.8039 8.28571 12.8572C8.28571 11.9104 9.05326 11.1429 10 11.1429" fill="#FFAD41"/>
<path d="M4.85714 15.1429C6.11951 15.1429 7.14286 14.1196 7.14286 12.8572C7.14286 11.5948 6.11951 10.5715 4.85714 10.5715C3.59478 10.5715 2.57143 11.5948 2.57143 12.8572C2.57143 14.1196 3.59478 15.1429 4.85714 15.1429Z" fill="#BD3C1A"/>
<path d="M15.1429 15.1429C16.4052 15.1429 17.4286 14.1196 17.4286 12.8572C17.4286 11.5948 16.4052 10.5715 15.1429 10.5715C13.8805 10.5715 12.8571 11.5948 12.8571 12.8572C12.8571 14.1196 13.8805 15.1429 15.1429 15.1429Z" fill="#FF5023"/>
<path d="M19.1428 12.8572H0.857125C0.383753 12.8572 -1.81198e-05 13.2409 -1.81198e-05 13.7143C-1.81198e-05 14.1877 0.383753 14.5715 0.857125 14.5715H1.42855C1.42855 15.8338 2.45192 16.8572 3.71427 16.8572H16.2857C17.548 16.8572 18.5714 15.8338 18.5714 14.5715H19.1428C19.6162 14.5715 20 14.1877 20 13.7143C20 13.2409 19.6162 12.8572 19.1428 12.8572Z" fill="#91DC5A"/>
<path d="M9.99998 12.8572H0.857125C0.383753 12.8572 -1.81198e-05 13.2409 -1.81198e-05 13.7143C-1.81198e-05 14.1877 0.383753 14.5715 0.857125 14.5715H1.42855C1.42855 15.8338 2.45192 16.8572 3.71427 16.8572H9.99998V12.8572Z" fill="#64C37D"/>
<path d="M13.4286 3.14288V8.57146C13.4286 9.04483 13.8123 9.4286 14.2857 9.4286C14.7591 9.4286 15.1429 9.04483 15.1429 8.57146V3.14288H13.4286Z" fill="#FFE98F"/>
</g>
<defs>
<clipPath id="clip0_123_318">
<rect width="20" height="20" fill="white"/>
</clipPath>
</defs>
</svg>
