<svg width="50" height="50" viewBox="0 0 50 50" fill="none" xmlns="http://www.w3.org/2000/svg">
<g clip-path="url(#clip0_268_1365)">
<path d="M40.2751 22.0973C40.1771 22.0973 40.0803 22.0996 39.9847 22.1044C36.2266 22.2562 33.2275 25.3509 33.2275 29.1449C33.2275 32.4368 35.4854 35.2028 38.5383 35.9761C39.0929 36.1171 39.675 36.1924 40.2751 36.1924C44.1671 36.1924 47.3228 33.0368 47.3228 29.1448C47.3228 25.2528 44.167 22.0973 40.2751 22.0973ZM40.2751 32.9055C40.066 32.9055 39.8604 32.8888 39.6607 32.8553C37.8761 32.5624 36.5146 31.0133 36.5146 29.1451C36.5146 27.1656 38.0434 25.5435 39.9846 25.3953C40.0802 25.3882 40.177 25.3846 40.275 25.3846C42.3525 25.3846 44.0355 27.0676 44.0355 29.1451C44.0356 31.2225 42.3526 32.9055 40.2751 32.9055Z" fill="#FEE6CC"/>
<path d="M36.5146 29.145C36.5146 31.0133 37.876 32.5625 39.6607 32.8553C39.4157 33.9525 39.0355 34.9997 38.5383 35.9763C35.4855 35.2029 33.2275 32.4369 33.2275 29.145C33.2275 25.351 36.2265 22.2563 39.9847 22.1046V25.3953C38.0434 25.5435 36.5146 27.1656 36.5146 29.145Z" fill="#FCCE99"/>
<path d="M38.1654 21.0697V29.7708C38.1654 37.1585 32.2476 43.2642 24.8601 43.3165C23.2941 43.3275 21.7895 43.0698 20.3896 42.5865C15.8461 41.0194 12.4096 37.0784 11.5633 32.2457C11.4306 31.4891 11.3613 30.711 11.3613 29.916V21.0698C11.3613 20.5356 11.7944 20.1024 12.3287 20.1024H37.1978C37.7322 20.1024 38.1654 20.5355 38.1654 21.0697Z" fill="#FEE6CC"/>
<path d="M20.9371 41.7389C20.7829 42.0342 20.5988 42.3175 20.3896 42.5864C15.8462 41.0193 12.4096 37.0783 11.5634 32.2457C11.8945 32.3664 12.21 32.5254 12.5016 32.7202C13.2188 33.1995 13.7722 33.8808 14.1285 34.6936C14.5648 34.6255 15.0023 34.5896 15.4349 34.5896C18.4723 34.5896 20.9287 36.2751 21.408 38.6872C21.6112 39.7046 21.4475 40.76 20.9371 41.7389Z" fill="#FCCE99"/>
<path d="M38.1654 27.1536V29.916C38.1654 37.3175 32.1648 43.3168 24.7633 43.3168C17.3618 43.3168 11.3613 37.3175 11.3613 29.916V27.1536C11.3613 34.555 17.3619 40.5555 24.7633 40.5555C32.1647 40.5555 38.1654 34.555 38.1654 27.1536Z" fill="#FCCE99"/>
<path d="M35.4824 45.7422H14.0439V49.2676H35.4824V45.7422Z" fill="#FCCE99"/>
<path d="M19.3473 40.9094C18.7173 42.1155 17.2938 43.1255 15.5055 43.4805C12.8339 44.0113 10.3584 42.8829 9.97589 40.9584C9.97228 40.9417 9.96994 40.926 9.9675 40.9093C9.62443 39.0016 11.4724 37.0401 14.12 36.5141C16.7916 35.9833 19.2671 37.1118 19.6496 39.0363C19.7764 39.6722 19.6581 40.3141 19.3473 40.9094Z" fill="#E2780E"/>
<path d="M19.3473 40.9095C18.7174 42.1155 17.2938 43.1256 15.5055 43.4806C12.8339 44.0113 10.3584 42.8829 9.97593 40.9584C9.97231 40.9417 9.96997 40.9261 9.96753 40.9094L19.3473 40.9095Z" fill="#A85000"/>
<path d="M15.5051 43.4804C12.8344 44.0112 10.359 42.8824 9.97661 40.9586C9.92534 40.7007 9.91391 40.4409 9.94096 40.1845C10.7276 41.6526 12.8944 42.437 15.2064 41.9774C17.5183 41.5179 19.2205 39.9644 19.3858 38.307C19.5089 38.5336 19.5976 38.778 19.6489 39.0359C20.0313 40.9596 18.1758 42.9494 15.5051 43.4804Z" fill="#A85000"/>
<path d="M11.7175 40.2831C11.5693 40.5042 11.4115 40.7133 11.2453 40.9094C9.71407 42.7144 7.49561 43.3933 6.0253 42.4095C5.49697 42.0569 5.12998 41.5334 4.92559 40.9094C4.50127 39.6077 4.78936 37.8685 5.8125 36.3373C7.32579 34.0721 9.87423 33.1207 11.5047 34.2108C13.1352 35.2998 13.2308 38.0191 11.7175 40.2831Z" fill="#E2780E"/>
<path d="M11.2453 40.9095C9.71408 42.7145 7.49562 43.3934 6.02531 42.4096C5.49699 42.057 5.12999 41.5334 4.9256 40.9095H11.2453Z" fill="#A85000"/>
<path d="M11.7175 40.2836C10.2044 42.5475 7.65588 43.4996 6.02511 42.4097C5.80646 42.2636 5.61476 42.0879 5.45245 41.8875C7.04689 42.3694 9.13361 41.3919 10.4435 39.4321C11.7533 37.4724 11.8584 35.1704 10.8033 33.8815C11.0506 33.9548 11.2862 34.0647 11.5048 34.2109C13.1357 35.3008 13.2306 38.0197 11.7175 40.2836Z" fill="#A85000"/>
<path d="M2.67725 42.5837V44.3349L14.0054 46.4864H35.5213L46.8495 44.3349V42.5837H2.67725Z" fill="#FEE6CC"/>
<path d="M46.8497 41.8508H39.7774C39.3728 41.8508 39.045 42.1787 39.045 42.5832C39.045 42.9877 39.3728 43.3156 39.7774 43.3156H46.1173V43.7288L35.4526 45.7541H14.0748L3.41016 43.7288V43.3156H6.32227C6.32345 43.3156 6.32462 43.3158 6.32569 43.3158C6.32657 43.3158 6.32755 43.3156 6.32843 43.3156H8.9673C8.96818 43.3156 8.96896 43.3158 8.96984 43.3158C8.97121 43.3158 8.97267 43.3156 8.97404 43.3156H17.755C17.7555 43.3156 17.756 43.3157 17.7566 43.3157C17.7571 43.3157 17.7575 43.3156 17.7579 43.3156H20.3746C20.3754 43.3156 20.3762 43.3158 20.377 43.3158C20.3778 43.3158 20.3787 43.3156 20.3794 43.3156H29.148C29.1489 43.3156 29.1497 43.3158 29.1504 43.3158C29.1512 43.3158 29.152 43.3156 29.1527 43.3156H37.0576C37.4622 43.3156 37.79 42.9877 37.79 42.5832C37.79 42.1787 37.4622 41.8508 37.0576 41.8508H32.3334C33.2081 41.2949 34.0244 40.6439 34.7583 39.9105C35.8175 38.8508 36.6872 37.6521 37.3518 36.3562C38.278 36.7335 39.2587 36.925 40.2754 36.925C44.5649 36.925 48.0547 33.4347 48.0547 29.1447C48.0547 24.8551 44.5649 21.3654 40.2754 21.3654C39.8105 21.3654 39.35 21.4075 38.8974 21.4886V21.0696C38.8974 20.1321 38.1347 19.3694 37.1973 19.3694H33.7334C33.3288 19.3694 33.0009 19.6973 33.0009 20.1018C33.0009 20.5063 33.3288 20.8342 33.7334 20.8342H37.1973C37.327 20.8342 37.4326 20.9398 37.4326 21.0696V22.3147H12.0937V21.0696C12.0937 20.9398 12.1992 20.8342 12.329 20.8342H31.0127C31.4172 20.8342 31.7451 20.5063 31.7451 20.1018C31.7451 19.6973 31.4172 19.3694 31.0127 19.3694H12.329C11.3915 19.3694 10.6288 20.1321 10.6288 21.0696V29.9153C10.6288 31.02 10.758 32.1152 11.0098 33.179C9.81769 32.8235 8.39718 33.1028 7.10108 33.9896C6.7672 34.218 6.68165 34.6738 6.91007 35.0077C7.13859 35.3415 7.59444 35.4269 7.92823 35.1986C8.77765 34.6175 9.66906 34.3893 10.4062 34.537L7.73839 38.5284C7.51359 38.8647 7.60402 39.3196 7.94025 39.5443C8.06525 39.6279 8.20675 39.668 8.3466 39.668C8.58302 39.668 8.81505 39.5537 8.95617 39.3425L11.6247 35.3497C11.9015 35.7605 12.0531 36.2981 12.0603 36.9247C12.0603 36.925 12.0603 36.9252 12.0603 36.9255C12.0603 36.9268 12.0604 36.9282 12.0604 36.9296C12.0702 37.8972 11.7321 38.9437 11.1086 39.8766C10.7531 40.4085 10.3328 40.8646 9.85685 41.2342C9.52687 41.4926 9.18019 41.6993 8.82501 41.8508H6.51124C6.48478 41.835 6.45841 41.819 6.43214 41.8013C5.2127 40.9868 5.13555 38.8805 6.25645 37.0059C6.46407 36.6588 6.35099 36.209 6.00382 36.0014C5.65684 35.7939 5.20694 35.9068 4.99932 36.2541C4.28477 37.4489 3.93575 38.7802 4.01661 40.0027C4.0625 40.6964 4.24405 41.3215 4.54288 41.8507H2.67774C2.27315 41.8507 1.94531 42.1786 1.94531 42.5831V44.3351C1.94531 44.6869 2.19551 44.989 2.54111 45.0546L13.3116 47.1V49.2676C13.3116 49.6721 13.6395 50 14.0441 50H35.4824C35.887 50 36.2148 49.6721 36.2148 49.2676V47.1002L46.9863 45.0546C47.3319 44.989 47.5821 44.6868 47.5821 44.3351V42.5831C47.5821 42.1787 47.2542 41.8508 46.8497 41.8508ZM38.8974 26.4499C39.3218 26.232 39.7912 26.1164 40.2754 26.1164C41.9452 26.1164 43.3037 27.4749 43.3037 29.1447C43.3037 30.8145 41.9452 32.173 40.2754 32.173C39.7432 32.173 39.231 32.0348 38.7761 31.7743C38.8559 31.1628 38.8973 30.5422 38.8973 29.9151L38.8974 26.4499ZM40.2755 22.8302C43.7572 22.8302 46.5899 25.6629 46.5899 29.1447C46.5899 32.627 43.7572 35.4601 40.2755 35.4601C39.4679 35.4601 38.6895 35.3097 37.9529 35.017C38.1723 34.4491 38.3539 33.8663 38.4979 33.272C39.0548 33.5125 39.6563 33.638 40.2754 33.638C42.7529 33.638 44.7685 31.6223 44.7685 29.1448C44.7685 26.6672 42.7529 24.6516 40.2754 24.6516C39.8027 24.6516 39.339 24.7255 38.8974 24.8678V23.0546C38.8974 23.0521 38.8978 23.0497 38.8978 23.0471C38.8978 23.0446 38.8974 23.0421 38.8974 23.0396V22.9821C39.347 22.8817 39.8086 22.8302 40.2755 22.8302ZM37.4326 23.7795V26.034C37.4326 26.0348 37.4326 26.0357 37.4326 26.0365V29.9152C37.4326 33.2994 36.1149 36.4813 33.7225 38.8747C32.397 40.1993 30.7736 41.2259 29.022 41.8508H20.5063C20.2701 41.7667 20.035 41.6763 19.8029 41.5773C20.3403 40.7324 20.5451 39.7924 20.3682 38.8965C20.368 38.8953 20.3679 38.8942 20.3677 38.8931C20.3674 38.8917 20.3669 38.8903 20.3667 38.889C20.1332 37.7234 19.3097 36.7644 18.0472 36.1885C16.8646 35.6489 15.4192 35.5093 13.9771 35.7956C13.8459 35.8217 13.7159 35.8514 13.587 35.8842C12.6094 34.0566 12.0937 32.0054 12.0937 29.9153V23.7796L37.4326 23.7795ZM12.3267 40.6904C13.0047 39.676 13.4139 38.5384 13.5053 37.436C13.751 37.3532 14.0037 37.2838 14.2626 37.2322C16.1262 36.8623 17.9231 37.423 18.6396 38.4898L13.9325 39.4255C13.5358 39.5044 13.2781 39.8898 13.3569 40.2866C13.4262 40.6351 13.7322 40.8764 14.0745 40.8764C14.1218 40.8764 14.1699 40.8718 14.2181 40.8621L18.9281 39.9258C18.8341 40.4076 18.5656 40.8906 18.1354 41.3344C18.1342 41.3355 18.1331 41.3368 18.1321 41.338C17.9527 41.5221 17.7498 41.6935 17.5289 41.8506H11.3706C11.7217 41.5044 12.0419 41.1166 12.3267 40.6904ZM34.75 48.5354H14.7764V47.219H34.75V48.5354Z" fill="black"/>
<path d="M26.6793 14.6374C26.3369 14.8529 26.2339 15.305 26.4494 15.6474C26.5885 15.8687 26.8265 15.9899 27.0699 15.9899C27.2032 15.9899 27.3381 15.9535 27.4592 15.8773C28.9311 14.9512 29.8098 13.3619 29.8098 11.6262C29.8098 10.2316 29.2417 8.93244 28.2554 7.99494C29.2418 7.05744 29.8098 5.75832 29.8098 4.36378C29.8098 2.62794 28.9311 1.03877 27.4592 0.1126C27.1169 -0.10283 26.6645 0.000100211 26.4493 0.342484C26.2338 0.684867 26.3368 1.13702 26.6792 1.35245C27.7223 2.0088 28.3451 3.13448 28.3451 4.36368C28.3451 5.59288 27.7223 6.71857 26.6792 7.37492C26.2314 7.65578 26.2314 8.33293 26.6792 8.61477C27.7223 9.27111 28.3451 10.3968 28.3451 11.626C28.3452 12.8553 27.7224 13.9811 26.6793 14.6374C27.7224 13.9811 26.3369 14.8529 26.6793 14.6374Z" fill="black"/>
<path d="M31.8337 14.6375C31.4913 14.8529 31.3884 15.305 31.6038 15.6474C31.743 15.8687 31.981 15.9899 32.2244 15.9899C32.3577 15.9899 32.4926 15.9535 32.6137 15.8773C34.0855 14.9512 34.9642 13.362 34.9642 11.6262C34.9642 9.89047 34.0855 8.30121 32.6137 7.37514C32.2714 7.15971 31.8191 7.26254 31.6038 7.60502C31.3883 7.94731 31.4913 8.39955 31.8336 8.61498C32.8767 9.27133 33.4995 10.3971 33.4995 11.6263C33.4996 12.8553 32.8768 13.9811 31.8337 14.6375Z" fill="black"/>
<path d="M21.1028 14.6374C20.7604 14.8528 20.6575 15.305 20.8729 15.6474C21.0121 15.8687 21.25 15.9899 21.4934 15.9899C21.6267 15.9899 21.7617 15.9534 21.8828 15.8773C23.3546 14.9512 24.2333 13.3619 24.2333 11.6262C24.2333 9.89033 23.3546 8.30116 21.8828 7.37499C21.5405 7.15956 21.088 7.26249 20.8728 7.60487C20.6574 7.94726 20.7603 8.39941 21.1027 8.61484C22.1458 9.27119 22.7686 10.3969 22.7686 11.6261C22.7687 12.8553 22.1459 13.9811 21.1028 14.6374Z" fill="black"/>
</g>
<defs>
<clipPath id="clip0_268_1365">
<rect width="50" height="50" fill="white"/>
</clipPath>
</defs>
</svg>
