<svg width="51" height="50" viewBox="0 0 51 50" fill="none" xmlns="http://www.w3.org/2000/svg">
<g clip-path="url(#clip0_267_890)">
<path d="M12.723 1.02081C13.1411 0.602748 13.8374 0.643178 14.1919 1.11632C16.4598 4.14308 16.2176 8.45499 13.4652 11.2072C10.7129 13.9595 6.40108 14.2018 3.37432 11.9339C2.90117 11.5794 2.86074 10.8831 3.27881 10.4651L12.723 1.02081Z" fill="#4BA72D"/>
<path d="M11.6022 2.14172C13.591 4.13059 13.591 7.3553 11.6022 9.34417C9.61329 11.333 6.38859 11.333 4.39972 9.34417L11.6022 2.14172Z" fill="#C2E8B1"/>
<path d="M11.6019 9.34408C10.5591 10.3869 9.17549 10.8833 7.80859 10.8314C8.29912 10.5906 8.75938 10.2664 9.16768 9.85814C10.8244 8.2014 11.1005 5.68793 9.99795 3.74535L11.6018 2.14154C13.5915 4.13099 13.5915 7.35541 11.6019 9.34408Z" fill="#99D980"/>
<path d="M32.4515 49.2676H14.0565C13.5185 49.2676 13.0678 48.8601 13.0137 48.3248L9.03008 8.92449C8.96767 8.30701 9.45234 7.77087 10.0729 7.77087H36.435C37.0556 7.77087 37.5403 8.3071 37.4778 8.92449L33.4942 48.3248C33.4402 48.8601 32.9895 49.2676 32.4515 49.2676Z" fill="#F8F3F1"/>
<path d="M37.4775 8.9248L33.4941 48.3252C33.4404 48.8604 32.9893 49.2676 32.4512 49.2676H28.543C29.0811 49.2676 29.5312 48.8604 29.5859 48.3252L33.5693 8.9248C33.6318 8.30664 33.1465 7.77051 32.5264 7.77051H36.4346C37.0557 7.77051 37.54 8.30664 37.4775 8.9248Z" fill="#E0D3CE"/>
<path d="M9.58331 14.3967L13.0136 48.3248C13.0677 48.8601 13.5184 49.2676 14.0565 49.2676H32.4514C32.9895 49.2676 33.4401 48.8601 33.4942 48.3248L36.9245 14.3967H9.58331Z" fill="#FDF0B2"/>
<path d="M25.0988 17.4386C26.7788 17.4386 28.1407 16.0767 28.1407 14.3967C28.1407 12.7167 26.7788 11.3548 25.0988 11.3548C23.4188 11.3548 22.0569 12.7167 22.0569 14.3967C22.0569 16.0767 23.4188 17.4386 25.0988 17.4386Z" fill="#FDDD45"/>
<path d="M28.1407 14.3967C28.1407 16.0766 26.7788 17.4386 25.0988 17.4386C23.4189 17.4386 22.0569 16.0766 22.0569 14.3967H28.1407Z" fill="#F8C52D"/>
<path d="M30.772 36.5936C30.421 36.4302 29.9833 36.5145 29.7234 36.8489C29.5531 37.0682 29.5086 37.3605 29.5821 37.6281L29.6244 37.7819C29.7065 38.0812 29.6219 38.4015 29.4024 38.6209L22.4084 45.615L22.9694 49.2676H26.1376L28.899 46.5062C29.2237 46.1815 29.7763 46.4438 29.7301 46.9006L29.586 48.3253C29.5313 48.8605 29.0811 49.2677 28.5431 49.2677H32.4513C32.9893 49.2677 33.4405 48.8605 33.4942 48.3253L36.9244 14.3968H33.0162L30.772 36.5936Z" fill="#FDDD45"/>
<path d="M36.5651 34.5685L47.6501 23.4834L42.8278 20.9241L32.8742 30.8777C32.6547 31.0971 32.3344 31.1819 32.0352 31.0997L31.8572 31.0507C31.558 30.9686 31.2376 31.0534 31.0182 31.2727C30.6811 31.6098 30.6811 32.1564 31.0182 32.4935L34.9492 36.4245C35.2863 36.7616 35.8329 36.7616 36.17 36.4245C36.3894 36.205 36.4742 35.8847 36.3919 35.5855L36.343 35.4075C36.2609 35.1083 36.3457 34.7879 36.5651 34.5685Z" fill="#C2E8B1"/>
<path d="M36.1699 36.4245C35.8327 36.7617 35.2858 36.7617 34.9487 36.4245L32.65 34.1258C32.9872 34.463 33.5342 34.463 33.8713 34.1258C33.9814 34.0158 34.0575 33.8814 34.0949 33.736C34.1337 33.592 34.1337 33.4369 34.0929 33.2867L34.0438 33.1088C33.962 32.8096 34.0472 32.4891 34.2667 32.2696L44.6466 21.8897L47.6501 23.4836L36.5653 34.5682C36.3458 34.7877 36.2607 35.1083 36.343 35.4081L36.3921 35.586C36.4323 35.7355 36.4323 35.8906 36.3942 36.0353C36.3562 36.18 36.28 36.3143 36.1699 36.4245Z" fill="#99D980"/>
<path d="M20.284 43.4679C20.0645 43.6873 19.7442 43.7721 19.445 43.6899L19.267 43.641C18.9677 43.5588 18.6474 43.6435 18.428 43.8629C18.0909 44.2 18.0909 44.7466 18.428 45.0837L22.359 49.0147C22.6961 49.3518 23.2427 49.3518 23.5798 49.0147C23.7992 48.7953 23.884 48.4749 23.8017 48.1757L23.7528 47.9977C23.6707 47.6985 23.7554 47.3782 23.9748 47.1587L33.0932 38.0403C33.3127 37.8208 33.633 37.7361 33.9322 37.8183L34.1102 37.8672C34.4095 37.9494 34.7298 37.8647 34.9492 37.6453C35.2863 37.3081 35.2863 36.7616 34.9492 36.4244L31.0182 32.4935C30.6811 32.1564 30.1345 32.1564 29.7974 32.4935C29.578 32.7129 29.4932 33.0332 29.5755 33.3325L29.6244 33.5105C29.7065 33.8097 29.6218 34.13 29.4024 34.3495L20.284 43.4679Z" fill="#C2E8B1"/>
<path d="M23.5794 49.0151C23.2428 49.3516 22.6959 49.3516 22.3588 49.0144L20.0601 46.7158C20.3973 47.053 20.9443 47.053 21.2807 46.7165C21.5002 46.497 21.5854 46.1764 21.503 45.8766L21.4539 45.6987C21.3721 45.3996 21.4566 45.0797 21.6761 44.8602L30.7946 35.7417C31.014 35.5223 31.3346 35.4372 31.6338 35.5202L31.8117 35.5679C32.1108 35.651 32.4313 35.5659 32.6508 35.3463C32.988 35.0091 32.9874 34.4628 32.6502 34.1257L34.9488 36.4244C35.286 36.7616 35.2867 37.3079 34.9495 37.645C34.73 37.8644 34.4094 37.9497 34.111 37.8672L33.9324 37.8188C33.6333 37.7357 33.3128 37.8208 33.0932 38.0404L23.9748 47.1588C23.7553 47.3783 23.6709 47.6982 23.7532 47.998L23.8023 48.1759C23.8839 48.4751 23.7988 48.7956 23.5794 49.0151Z" fill="#99D980"/>
<path d="M47.9682 22.9374C48.2253 21.9778 47.2107 20.8722 45.7021 20.468C44.1934 20.0638 42.762 20.514 42.5048 21.4736C42.2477 22.4332 43.2623 23.5388 44.771 23.943C46.2797 24.3472 47.7111 23.897 47.9682 22.9374Z" fill="#4BA72D"/>
<path d="M19.3043 22.633C20.3232 22.633 21.1491 21.8071 21.1491 20.7882C21.1491 19.7693 20.3232 18.9434 19.3043 18.9434C18.2854 18.9434 17.4595 19.7693 17.4595 20.7882C17.4595 21.8071 18.2854 22.633 19.3043 22.633Z" fill="#FDDD45"/>
<path d="M24.2532 31.8503C25.2721 31.8503 26.098 31.0243 26.098 30.0055C26.098 28.9866 25.2721 28.1606 24.2532 28.1606C23.2343 28.1606 22.4084 28.9866 22.4084 30.0055C22.4084 31.0243 23.2343 31.8503 24.2532 31.8503Z" fill="#FDDD45"/>
<path d="M9.33926 13.3545C7.28701 13.7135 5.11758 13.2399 3.37432 11.9338C2.90117 11.5793 2.86074 10.883 3.27881 10.4649L12.723 1.02069C13.1411 0.602626 13.8374 0.643056 14.1919 1.1162C15.6055 3.00282 16.0438 5.38866 15.507 7.58485" stroke="black" stroke-width="1.5" stroke-miterlimit="10" stroke-linecap="round" stroke-linejoin="round"/>
<path d="M9.08937 10.7187C7.45197 11.0753 5.67277 10.6171 4.39972 9.3441L11.6022 2.14166C13.0939 3.63336 13.4667 5.82008 12.7209 7.65934" stroke="black" stroke-width="1.5" stroke-miterlimit="10" stroke-linecap="round" stroke-linejoin="round"/>
<path d="M25.0988 17.4386C26.7788 17.4386 28.1407 16.0767 28.1407 14.3967C28.1407 12.7167 26.7788 11.3548 25.0988 11.3548C23.4188 11.3548 22.0569 12.7167 22.0569 14.3967C22.0569 16.0767 23.4188 17.4386 25.0988 17.4386Z" stroke="black" stroke-width="1.5" stroke-miterlimit="10" stroke-linecap="round" stroke-linejoin="round"/>
<path d="M35.533 28.1607L37.4778 8.92455C37.5402 8.30707 37.0556 7.77094 36.4349 7.77094H27.9855" stroke="black" stroke-width="1.5" stroke-miterlimit="10" stroke-linecap="round" stroke-linejoin="round"/>
<path d="M11.2646 31.0261L13.0137 48.3248C13.0678 48.8601 13.5185 49.2676 14.0565 49.2676H32.4515C32.9896 49.2676 33.4402 48.8601 33.4943 48.3248L34.5394 37.9887" stroke="black" stroke-width="1.5" stroke-miterlimit="10" stroke-linecap="round" stroke-linejoin="round"/>
<path d="M24.7795 7.77081H10.073C9.45236 7.77081 8.96759 8.30704 9.03009 8.92443L10.9435 27.8492" stroke="black" stroke-width="1.5" stroke-miterlimit="10" stroke-linecap="round" stroke-linejoin="round"/>
<path d="M36.9246 14.3967H9.58331" stroke="black" stroke-width="1.5" stroke-miterlimit="10" stroke-linecap="round" stroke-linejoin="round"/>
<path d="M42.8278 20.9241L32.8742 30.8777C32.6548 31.0971 32.3345 31.1819 32.0353 31.0997L31.8572 31.0507C31.558 30.9686 31.2377 31.0534 31.0183 31.2727C30.6812 31.6098 30.6812 32.1564 31.0183 32.4935L34.9492 36.4245C35.2863 36.7616 35.8329 36.7616 36.17 36.4245C36.3895 36.205 36.4742 35.8847 36.392 35.5855L36.3431 35.4075C36.2609 35.1083 36.3456 34.7879 36.5651 34.5685L39.8811 31.2525" stroke="black" stroke-width="1.5" stroke-miterlimit="10" stroke-linecap="round" stroke-linejoin="round"/>
<path d="M42.1483 28.9854L47.6502 23.4835" stroke="black" stroke-width="1.5" stroke-miterlimit="10" stroke-linecap="round" stroke-linejoin="round"/>
<path d="M23.8018 48.1758L23.7529 47.9978C23.6707 47.6986 23.7555 47.3783 23.9748 47.1589L33.0933 38.0404C33.3127 37.821 33.633 37.7362 33.9323 37.8184L34.1103 37.8673C34.4095 37.9495 34.7298 37.8648 34.9493 37.6454C35.2864 37.3083 35.2864 36.7617 34.9493 36.4246L31.0183 32.4936C30.6812 32.1565 30.1346 32.1565 29.7975 32.4936C29.5781 32.713 29.4933 33.0334 29.5755 33.3326L29.6245 33.5106C29.7066 33.8098 29.6218 34.1301 29.4025 34.3496L20.284 43.468C20.0646 43.6875 19.7443 43.7722 19.4451 43.69L19.267 43.6411C18.9678 43.5589 18.6475 43.6436 18.4281 43.863C18.091 44.2002 18.091 44.7467 18.4281 45.0838L22.359 49.0148C22.6961 49.3519 23.2427 49.3519 23.5798 49.0148C23.7992 48.7954 23.8839 48.4751 23.8018 48.1758Z" stroke="black" stroke-width="1.5" stroke-miterlimit="10" stroke-linecap="round" stroke-linejoin="round"/>
<path d="M47.9683 22.9374C48.2254 21.9778 47.2108 20.8722 45.7021 20.468C44.1935 20.0638 42.762 20.514 42.5049 21.4736C42.2478 22.4332 43.2624 23.5388 44.7711 23.943C46.2797 24.3472 47.7112 23.897 47.9683 22.9374Z" stroke="black" stroke-width="1.5" stroke-miterlimit="10" stroke-linecap="round" stroke-linejoin="round"/>
<path d="M19.3043 22.633C20.3232 22.633 21.1491 21.8071 21.1491 20.7882C21.1491 19.7693 20.3232 18.9434 19.3043 18.9434C18.2854 18.9434 17.4595 19.7693 17.4595 20.7882C17.4595 21.8071 18.2854 22.633 19.3043 22.633Z" stroke="black" stroke-width="1.5" stroke-miterlimit="10" stroke-linecap="round" stroke-linejoin="round"/>
<path d="M24.2532 31.8503C25.2721 31.8503 26.098 31.0243 26.098 30.0055C26.098 28.9866 25.2721 28.1606 24.2532 28.1606C23.2343 28.1606 22.4084 28.9866 22.4084 30.0055C22.4084 31.0243 23.2343 31.8503 24.2532 31.8503Z" stroke="black" stroke-width="1.5" stroke-miterlimit="10" stroke-linecap="round" stroke-linejoin="round"/>
<path d="M28.3295 20.924H27.9518" stroke="black" stroke-width="1.5" stroke-miterlimit="10" stroke-linecap="round" stroke-linejoin="round"/>
<path d="M15.9175 34.3745H15.5399" stroke="black" stroke-width="1.5" stroke-miterlimit="10" stroke-linecap="round" stroke-linejoin="round"/>
<path d="M19.1154 37.8154H18.7378" stroke="black" stroke-width="1.5" stroke-miterlimit="10" stroke-linecap="round" stroke-linejoin="round"/>
</g>
<defs>
<clipPath id="clip0_267_890">
<rect width="50" height="50" fill="white" transform="translate(0.5)"/>
</clipPath>
</defs>
</svg>
