<svg width="50" height="50" viewBox="0 0 50 50" fill="none" xmlns="http://www.w3.org/2000/svg">
<g clip-path="url(#clip0_267_1033)">
<path d="M31.8739 35.1548C34.3728 35.1548 36.3985 33.129 36.3985 30.6302C36.3985 28.1313 34.3728 26.1056 31.8739 26.1056C29.3751 26.1056 27.3494 28.1313 27.3494 30.6302C27.3494 33.129 29.3751 35.1548 31.8739 35.1548Z" fill="#F2F2F2"/>
<path d="M31.874 26.1055C31.1745 26.1055 30.5122 26.2644 29.9209 26.5478C31.442 27.2768 32.4924 28.8307 32.4924 30.6301C32.4924 32.4295 31.442 33.9834 29.9209 34.7125C30.5122 34.9959 31.1745 35.1548 31.874 35.1548C34.3728 35.1548 36.3986 33.1291 36.3986 30.6302C36.3986 28.1314 34.3728 26.1055 31.874 26.1055Z" fill="#E6E6E6"/>
<path d="M10.0165 35.0826C8.65564 33.0715 7.6544 31.0278 6.92395 29.1898C4.1377 22.1792 3.99903 15.2314 4.79833 11.067C5.11511 9.41624 5.8026 7.85027 6.73421 6.65743C7.79404 5.30034 9.06276 4.53952 10.5049 4.39617C10.6757 4.37917 10.8485 4.37048 11.0184 4.37048C13.6363 4.37048 15.8734 6.42287 18.0369 8.40758C19.1934 9.46859 20.2858 10.4707 21.4607 11.2122C23.6061 12.5664 27.789 13.7191 29.4885 14.1521C29.9244 14.2631 30.2268 14.6579 30.223 15.1077C30.1741 20.8 30.6915 25.0455 30.6915 25.0455C29.6756 25.2601 28.7058 25.7527 27.9047 26.5279C26.3307 28.0511 25.8228 30.2592 26.3936 32.2255L26.3925 32.2242C26.3925 32.2242 19.644 38.3429 11.0885 35.86C10.6519 35.7332 10.2711 35.459 10.0165 35.0826Z" fill="#D82E3D"/>
<path d="M36.9841 43.6682C34.7231 45.1843 31.3293 45.6152 28.7389 45.6152C26.3294 45.6152 23.9134 45.1676 21.6532 44.3373C19.2416 43.4515 17.1737 42.2583 15.4016 40.8843C14.6741 40.3201 15.0607 39.1587 15.981 39.1362C23.1105 38.9613 27.733 34.559 27.7747 34.6019C29.5331 36.417 32.2038 36.814 34.3621 35.7728C34.3621 35.7728 36.2987 39.5109 37.3686 42.5294C37.5183 42.9517 37.3563 43.4187 36.9841 43.6682Z" fill="#D82E3D"/>
<path d="M37.3686 42.5294C36.2986 39.5109 34.3621 35.7728 34.3621 35.7728C33.2083 36.3295 31.9083 36.4747 30.6793 36.2124C31.2185 37.2855 32.6131 40.1333 33.4625 42.5294C33.6122 42.9517 33.4502 43.4186 33.0781 43.6682C31.3762 44.8094 29.0328 45.3356 26.873 45.5261C27.4936 45.5847 28.1166 45.6151 28.739 45.6151C31.3294 45.6151 34.7232 45.1842 36.9842 43.6681C37.3563 43.4187 37.5183 42.9517 37.3686 42.5294Z" fill="#C10A54"/>
<path d="M44.5154 35.7051C43.6461 37.7304 42.4008 39.5014 40.8659 40.9643C40.377 41.4304 39.5753 41.2778 39.2976 40.662C37.8791 37.5156 36.3975 34.1242 36.3975 34.1242C38.1118 31.9149 37.9856 28.7255 35.983 26.6585C35.2684 25.9209 34.3465 25.3944 33.3696 25.0908C33.0738 21.9761 33.0388 18.2615 33.0443 16.3187C33.0463 15.6403 33.7233 15.1712 34.3594 15.407C38.5363 16.9552 42.2908 20.2034 44.1764 24.1429C45.9789 27.9087 46.0994 32.0148 44.5154 35.7051Z" fill="#D82E3D"/>
<path d="M44.1765 24.1428C42.2908 20.2033 38.5364 16.9551 34.3595 15.4069C33.7234 15.171 33.0463 15.6402 33.0444 16.3186C33.0441 16.4128 33.044 16.5124 33.0439 16.6148C36.1407 18.367 38.7853 21.0402 40.2703 24.1428C42.0729 27.9086 42.1933 32.0148 40.6093 35.705C40.077 36.9451 39.4031 38.0893 38.6087 39.1263C38.8357 39.6343 39.0674 40.1512 39.2977 40.6618C39.5753 41.2776 40.3769 41.4302 40.866 40.9641C42.4009 39.5011 43.6462 37.7302 44.5155 35.7049C46.0994 32.0148 45.979 27.9087 44.1765 24.1428Z" fill="#C10A54"/>
<path d="M47.4534 22.5604C44.9252 17.2903 40.0271 13.1972 34.3507 11.6111C33.2293 11.2977 32.1065 11.0376 31.0208 10.7861C28.2402 10.142 25.6139 9.53352 23.4049 8.13932C22.5068 7.57254 21.5316 6.67784 20.4991 5.73069C18.0478 3.48193 15.2694 0.93317 11.4471 0.74587C11.0151 0.72468 10.5766 0.735714 10.1438 0.77878C7.70721 1.02096 5.53559 2.28059 3.86367 4.42145C2.58421 6.05979 1.64654 8.17653 1.22321 10.382C0.0802732 16.3373 0.968237 24.0577 3.54063 30.5304C5.88168 36.4209 10.7064 44.1897 20.3972 47.7491C22.7334 48.6073 25.1536 49.1028 27.5907 49.2223C31.8834 49.4326 36.0263 48.4705 39.5701 46.4406C43.2985 44.3047 46.1655 41.0879 47.8612 37.1377C49.8665 32.4659 49.7217 27.2889 47.4534 22.5604ZM32.0245 27.6801C32.7744 27.7168 33.4755 28.0345 33.9985 28.5744C35.1326 29.7451 35.1025 31.6197 33.9311 32.7533C33.3383 33.327 32.5578 33.6207 31.7333 33.5803C30.8033 33.5347 29.9482 33.0571 29.4147 32.2591C28.6185 31.0679 28.797 29.5035 29.8267 28.5071C30.4195 27.9334 31.2 27.6397 32.0245 27.6801ZM10.0165 35.0826C8.65562 33.0714 7.65438 31.0278 6.92393 29.1898C4.13768 22.1792 3.99901 15.2314 4.79831 11.067C5.1151 9.41624 5.80258 7.85027 6.73419 6.65743C7.79403 5.30034 9.06274 4.53952 10.5049 4.39616C10.6757 4.37917 10.8484 4.37048 11.0184 4.37048C13.6362 4.37048 15.8734 6.42286 18.0369 8.40758C19.1934 9.46858 20.2858 10.4707 21.4606 11.2122C23.6061 12.5663 27.789 13.7191 29.4885 14.152C29.9244 14.2631 30.2268 14.6579 30.223 15.1077C30.1741 20.8 30.6914 25.0455 30.6914 25.0455C29.6756 25.2601 28.7058 25.7527 27.9047 26.5279C26.3307 28.0511 25.8228 30.2592 26.3936 32.2255L26.3924 32.2242C26.3924 32.2242 19.644 38.3429 11.0885 35.8599C10.6519 35.7332 10.2711 35.459 10.0165 35.0826ZM36.9841 43.6682C34.7232 45.1843 31.3293 45.6152 28.739 45.6152C26.3295 45.6152 23.9134 45.1676 21.6532 44.3374C19.2417 43.4515 17.1737 42.2583 15.4016 40.8843C14.6741 40.3202 15.0607 39.1588 15.981 39.1362C23.1105 38.9613 27.733 34.559 27.7747 34.602C29.5332 36.4171 32.2038 36.814 34.3621 35.7728C34.3621 35.7728 36.2987 39.5109 37.3686 42.5294C37.5183 42.9517 37.3563 43.4187 36.9841 43.6682ZM44.5155 35.7051C43.6462 37.7304 42.4009 39.5014 40.866 40.9643C40.377 41.4304 39.5754 41.2778 39.2977 40.662C37.8791 37.5156 36.3975 34.1242 36.3975 34.1242C38.1119 31.9149 37.9857 28.7255 35.9831 26.6585C35.2685 25.9209 34.3465 25.3944 33.3697 25.0908C33.0739 21.9761 33.0388 18.2615 33.0444 16.3187C33.0464 15.6403 33.7234 15.1712 34.3595 15.407C38.5364 16.9552 42.2908 20.2034 44.1764 24.1429C45.979 27.9087 46.0994 32.0148 44.5155 35.7051Z" fill="#FFD8D5"/>
<path d="M29.6691 13.4423C28.0037 13.0179 23.9081 11.8908 21.8515 10.5927C17.3349 7.74262 11.4588 -0.582447 6.15687 6.20663C5.15524 7.48921 4.41727 9.16631 4.079 10.9289C3.26027 15.1948 3.39884 22.3032 6.2433 29.4604C7.10802 31.636 8.17342 33.6657 9.40981 35.4929C9.75853 36.0084 10.2822 36.3886 10.8842 36.5633C12.3021 36.9748 13.7588 37.1796 15.2306 37.1795C17.5642 37.1794 19.9353 36.6647 22.2449 35.643C24.8668 34.4833 26.5482 33.062 26.8409 32.8054C27.0764 32.6239 27.1817 32.3136 27.0968 32.0214C26.5807 30.2432 27.0854 28.34 28.4139 27.0543C29.0876 26.4024 29.9275 25.9556 30.8427 25.7622C31.2143 25.6837 31.4642 25.3341 31.4184 24.9572C31.4133 24.9151 30.9074 20.6875 30.9553 15.1142C30.9621 14.3244 30.4332 13.637 29.6691 13.4423ZM27.3952 26.0015C25.7934 27.5516 25.1166 29.7949 25.5713 31.9547C24.4284 32.8623 20.42 35.7165 15.2201 35.7164C13.9719 35.7164 12.6546 35.5518 11.2925 35.1565C11.0183 35.077 10.7807 34.9051 10.6232 34.6723C9.44594 32.9326 8.43035 30.9969 7.60459 28.9194C4.87654 22.055 4.73777 15.2679 5.51763 11.2051C6.01694 8.60305 7.72343 5.26466 10.749 5.18956C13.3642 5.12472 15.7467 7.30074 17.5417 8.94737C18.7231 10.0312 19.8389 11.0549 21.0697 11.8316C23.303 13.2413 27.5746 14.4204 29.3074 14.8618C29.4162 14.8895 29.4915 14.9881 29.4905 15.1015C29.4525 19.5103 29.7564 23.0987 29.8963 24.5002C28.9617 24.8011 28.1067 25.313 27.3952 26.0015Z" fill="#060606"/>
<path d="M48.1137 22.2436C45.4957 16.7862 40.4244 12.5478 34.5479 10.9056C33.4101 10.5878 32.2795 10.3259 31.186 10.0726C28.4676 9.44288 25.9 8.84798 23.7959 7.51998C20.3823 5.36555 18.1455 1.84035 14.1544 0.52457C10.0947 -0.813772 5.89036 0.636481 3.28643 3.97076C2.1516 5.42395 1.27711 7.21247 0.757495 9.14328C0.511408 10.0577 1.92582 10.4385 2.17191 9.52393C2.64104 7.78082 3.42559 6.17237 4.44089 4.8723C6.73438 1.93547 10.3815 0.733842 13.9201 2.00168C17.621 3.32772 19.7948 6.72684 23.014 8.75882C25.3277 10.219 28.0127 10.8411 30.8555 11.4997C31.9332 11.7493 33.0475 12.0074 34.1536 12.3164C39.6298 13.8466 44.3547 17.7945 46.793 22.8772C48.9685 27.4122 49.1088 32.3741 47.1881 36.8489C45.5556 40.6518 42.7955 43.7488 39.206 45.8051C33.5947 49.0192 26.6624 49.2703 20.6496 47.0615C11.2128 43.5954 6.50704 36.0115 4.22127 30.2599C2.17845 25.1196 1.19664 19.1464 1.52769 13.872C1.58696 12.9268 0.124993 12.8353 0.0657171 13.7803C-0.278414 19.2631 0.740113 25.4669 2.85998 30.8009C5.2561 36.8301 10.1999 44.7839 20.1447 48.4366C26.562 50.794 33.9483 50.505 39.9343 47.0762C43.8016 44.8608 46.7755 41.5241 48.5343 37.4268C50.6242 32.5576 50.4749 27.1655 48.1137 22.2436Z" fill="#060606"/>
<path d="M34.0438 35.1131C32.106 36.048 29.7979 35.6376 28.3009 34.0927C27.9857 33.7667 27.46 33.9063 27.1519 34.1558C23.8916 36.7984 19.918 38.307 15.9631 38.404C14.4066 38.4422 13.6892 40.4834 14.9528 41.463C16.8934 42.9676 19.0627 44.166 21.4006 45.0248C23.7901 45.9025 26.2591 46.3476 28.7389 46.3476C33.5803 46.3476 36.2384 45.05 37.392 44.2766C38.0451 43.8386 38.3193 43.0195 38.0588 42.2847C36.9844 39.2537 35.0924 35.5904 35.0123 35.4359C34.8301 35.0839 34.4009 34.941 34.0438 35.1131ZM36.5763 43.0599C34.1226 44.7052 30.278 44.8828 28.739 44.8828C26.4645 44.8828 24.1016 44.4564 21.9058 43.6498C19.7092 42.8429 17.672 41.7178 15.8505 40.3054C15.6926 40.0914 15.7422 39.9458 15.9991 39.8684C20.1384 39.7668 24.289 38.2415 27.734 35.564C29.4791 37.0317 31.8669 37.4656 34.0149 36.7092C34.598 37.8785 35.8877 40.5436 36.6783 42.7741C36.7149 42.8775 36.673 42.9951 36.5763 43.0599Z" fill="#060606"/>
<path d="M29.3173 27.9808C28.0354 29.2212 27.8202 31.1917 28.8057 32.6661C29.4662 33.6543 30.5202 34.2542 31.6973 34.312C31.7599 34.315 31.8221 34.3165 31.8843 34.3165C32.8438 34.3165 33.7455 33.9523 34.4403 33.2798C35.1474 32.5953 35.5457 31.6755 35.5615 30.6898C35.5774 29.7039 35.209 28.7717 34.5243 28.065C33.8714 27.391 32.9962 26.9946 32.0601 26.9487C31.0325 26.8987 30.0574 27.2647 29.3173 27.9808ZM34.097 30.666C34.0874 31.2605 33.8476 31.8148 33.4217 32.2269C32.976 32.6584 32.3894 32.8797 31.7691 32.8487C31.0599 32.814 30.4238 32.4507 30.0235 31.852C29.4222 30.9523 29.5506 29.7932 30.3359 29.0334C30.7547 28.6283 31.2978 28.4088 31.8758 28.4088C31.9132 28.4088 31.9508 28.4097 31.9885 28.4115H31.9886C32.5522 28.4391 33.0791 28.6779 33.4724 29.084C33.8848 29.5096 34.1065 30.0714 34.097 30.666Z" fill="#060606"/>
<path d="M39.8591 41.937C40.3747 42.0374 40.9932 41.8548 41.3712 41.4944C43.0065 39.9358 44.2909 38.0852 45.1885 35.9939C46.857 32.1069 46.7322 27.7858 44.8372 23.8266C42.8998 19.7791 39.078 16.3748 34.614 14.7202C34.0909 14.5263 33.5048 14.6003 33.0462 14.9184C32.588 15.2363 32.3136 15.7589 32.3119 16.3164C32.3063 18.2684 32.3417 22.0131 32.6405 25.16C32.6684 25.454 32.8703 25.7025 33.1523 25.7901C33.8436 26.0049 34.4876 26.3422 35.0148 26.7657C35.7532 27.3587 36.6703 26.2167 35.9321 25.6236C35.3858 25.1848 34.7447 24.82 34.0568 24.5547C33.8025 21.5722 33.7716 18.1498 33.7768 16.3207C33.7771 16.2107 33.8423 16.149 33.8812 16.122C33.9202 16.095 34.0013 16.055 34.1049 16.0937C38.2206 17.6193 41.7388 20.7465 43.5158 24.4591C45.2259 28.0317 45.3419 31.9231 43.8424 35.4162C43.0232 37.3246 41.8518 39.0128 40.3605 40.4341C40.2023 40.5464 40.0705 40.5219 39.9653 40.361C38.8405 37.8663 37.6637 35.1888 37.2362 34.2135C38.2482 32.7087 38.5764 30.8613 38.135 29.0776C37.9075 28.1584 36.4856 28.5103 36.7131 29.4296C37.0819 30.9202 36.7559 32.4675 35.8189 33.6752C35.6545 33.8871 35.619 34.1717 35.7264 34.4175C35.7412 34.4515 37.2258 37.8488 38.63 40.9631C38.8572 41.4669 39.3167 41.8311 39.8591 41.937Z" fill="#060606"/>
</g>
<defs>
<clipPath id="clip0_267_1033">
<rect width="50" height="50" fill="white"/>
</clipPath>
</defs>
</svg>
