<svg width="24" height="24" viewBox="0 0 24 24" fill="none" xmlns="http://www.w3.org/2000/svg">
<path d="M4.9001 19.1C1.0001 15.2 1.0001 8.79999 4.9001 4.89999" stroke="#C5E5E9" stroke-width="2" stroke-linecap="round" stroke-linejoin="round"/>
<path d="M7.79995 16.2C5.49995 13.9 5.49995 10.1 7.79995 7.7" stroke="#C5E5E9" stroke-width="2" stroke-linecap="round" stroke-linejoin="round"/>
<path d="M12 14C13.1046 14 14 13.1046 14 12C14 10.8954 13.1046 10 12 10C10.8954 10 10 10.8954 10 12C10 13.1046 10.8954 14 12 14Z" stroke="#94D9E2" stroke-width="2" stroke-linecap="round" stroke-linejoin="round"/>
<path d="M16.2 7.8C18.5 10.1 18.5 13.9 16.2 16.3" stroke="#C5E5E9" stroke-width="2" stroke-linecap="round" stroke-linejoin="round"/>
<path d="M19.1001 4.89999C23.0001 8.79999 23.0001 15.1 19.1001 19" stroke="#C5E5E9" stroke-width="2" stroke-linecap="round" stroke-linejoin="round"/>
</svg>
