<svg width="20" height="20" viewBox="0 0 20 20" fill="none" xmlns="http://www.w3.org/2000/svg">
<path d="M17.4839 6.78892C17.4839 6.78892 16.6246 6.61728 15.5512 6.73437C16.2046 5.10729 15.8838 3.28743 15.8838 3.28743C15.8838 3.28743 13.8965 2.89022 12.1907 3.7158C11.493 2.13032 10.0102 1.09094 10.0102 1.09094C10.0102 1.09094 8.50947 2.09272 7.81729 3.70971C6.11424 2.89204 4.13659 3.2875 4.13659 3.2875C4.13659 3.2875 3.81579 5.10729 4.46923 6.73444C3.39582 6.61735 2.53655 6.78899 2.53655 6.78899C2.53655 6.78899 1.99858 9.83753 3.73196 11.571C5.46548 13.3044 8.51395 12.7665 8.51395 12.7665H11.5063C11.5063 12.7665 14.5548 13.3044 16.2883 11.571C18.0218 9.83746 17.4839 6.78892 17.4839 6.78892Z" fill="#C2FB3B"/>
<path d="M10.0102 1.09094C10.0102 1.09094 8.50947 2.09272 7.81729 3.70971C6.11424 2.89204 4.13659 3.2875 4.13659 3.2875C4.13659 3.2875 3.81579 5.10729 4.46923 6.73444C3.39582 6.61735 2.53655 6.78899 2.53655 6.78899C2.53655 6.78899 1.99858 9.83753 3.73196 11.571C5.46548 13.3044 8.51395 12.7665 8.51395 12.7665H10.0102V1.09094Z" fill="#91DC5A"/>
<path d="M11.1307 11.1752C11.7495 11.1752 12.2511 10.6736 12.2511 10.0547C12.2511 9.43592 11.7495 8.93427 11.1307 8.93427V11.1752Z" fill="#FB523B"/>
<path d="M11.1307 8.93428C10.5118 8.93428 10.0102 9.43593 10.0102 10.0548C10.0102 10.6736 10.5118 11.1752 11.1307 11.1752L11.1307 8.93428Z" fill="#DC6A5A"/>
<path d="M18.994 9.65507C18.994 9.65507 17.2933 9.65514 15.1168 9.65507C12.4321 9.65506 12.8976 9.65506 12.8976 9.65506C12.8976 9.65506 12.4289 9.65507 10.0102 9.65504C7.209 9.65501 8.32948 9.65507 8.32948 9.65507C8.32948 9.65507 7.63359 9.65507 4.74289 9.65507C2.51782 9.65507 1.04639 10.0547 1.04639 10.0547C1.04639 10.0547 0.709257 14.5341 3.53258 16.704C5.22177 18.0023 7.20901 18 8.9393 18C9.57497 18 10.6203 18 11.0811 18C12.8114 18 14.7986 18.0023 16.4878 16.704C19.3112 14.5342 18.994 9.65507 18.994 9.65507Z" fill="#FFAD41"/>
<path d="M10.0102 9.65509C7.333 9.65512 7.209 9.65513 7.209 9.65513C7.209 9.65513 7.76924 9.65513 4.90362 9.65513C2.72709 9.65506 1.04637 9.65513 1.04637 9.65513C1.04637 9.65513 0.709257 14.5342 3.53258 16.7041C5.22177 18.0024 7.20901 18 8.9393 18H10.0102C10.0102 18 10.0102 13.9925 10.0102 9.65509Z" fill="#FF9811"/>
<path d="M6.64877 8.93431C7.26759 8.93431 7.76924 8.43266 7.76924 7.81384C7.76924 7.19501 7.26759 6.69336 6.64877 6.69336V8.93431Z" fill="#FB523B"/>
<path d="M6.64877 6.69337C6.02994 6.69337 5.52829 7.19503 5.52829 7.81385C5.52829 8.43267 6.02994 8.93433 6.64877 8.93433L6.64877 6.69337Z" fill="#DC6A5A"/>
<path d="M13.3716 6.69335C13.9905 6.69335 14.4921 6.19169 14.4921 5.57287C14.4921 4.95405 13.9905 4.45239 13.3716 4.45239V6.69335Z" fill="#FF5023"/>
<path d="M13.3716 4.4524C12.7528 4.4524 12.2512 4.95406 12.2512 5.57288C12.2512 6.1917 12.7528 6.69336 13.3716 6.69336L13.3716 4.4524Z" fill="#DC6A5A"/>
</svg>
