<svg width="40" height="40" viewBox="0 0 40 40" fill="none" xmlns="http://www.w3.org/2000/svg">
<path d="M32.6938 8.49994C32.4578 8.49768 32.2276 8.42619 32.0319 8.29432C31.8361 8.16245 31.6834 7.97602 31.5926 7.75814C31.5019 7.54027 31.4771 7.30055 31.5214 7.06872C31.5657 6.83689 31.677 6.62316 31.8416 6.45404L35.4574 2.83832C35.6847 2.61878 35.9892 2.4973 36.3052 2.50005C36.6212 2.50279 36.9235 2.62955 37.147 2.85301C37.3705 3.07647 37.4972 3.37876 37.5 3.69477C37.5027 4.01078 37.3812 4.31522 37.1617 4.54253L33.5459 8.15825C33.3182 8.38036 33.0118 8.50322 32.6938 8.49994Z" fill="#94D9E2"/>
<path d="M36.4819 13.5H34.5181C34.2481 13.5 33.9891 13.3946 33.7982 13.2071C33.6073 13.0196 33.5 12.7652 33.5 12.5C33.5 12.2348 33.6073 11.9804 33.7982 11.7929C33.9891 11.6054 34.2481 11.5 34.5181 11.5H36.4819C36.7519 11.5 37.0109 11.6054 37.2018 11.7929C37.3927 11.9804 37.5 12.2348 37.5 12.5C37.5 12.7652 37.3927 13.0196 37.2018 13.2071C37.0109 13.3946 36.7519 13.5 36.4819 13.5Z" fill="#94D9E2"/>
<path d="M27.5 6.5C27.2348 6.5 26.9804 6.39273 26.7929 6.20179C26.6054 6.01085 26.5 5.75188 26.5 5.48185V3.51815C26.5 3.24812 26.6054 2.98915 26.7929 2.79821C26.9804 2.60727 27.2348 2.5 27.5 2.5C27.7652 2.5 28.0196 2.60727 28.2071 2.79821C28.3946 2.98915 28.5 3.24812 28.5 3.51815V5.48185C28.5 5.75188 28.3946 6.01085 28.2071 6.20179C28.0196 6.39273 27.7652 6.5 27.5 6.5Z" fill="#94D9E2"/>
<path d="M36.3094 22.5C36.1516 22.5014 35.9951 22.4717 35.8487 22.4126C35.7024 22.3534 35.5692 22.2661 35.4568 22.1554L31.8386 18.5415C31.6189 18.3143 31.4973 18.01 31.5 17.6942C31.5028 17.3783 31.6296 17.0762 31.8532 16.8528C32.0769 16.6295 32.3794 16.5028 32.6956 16.5C33.0118 16.4973 33.3165 16.6187 33.5439 16.8382L37.1621 20.4521C37.3255 20.6219 37.4357 20.8356 37.4792 21.067C37.5227 21.2984 37.4977 21.5375 37.4071 21.7549C37.3166 21.9723 37.1645 22.1586 36.9696 22.2909C36.7746 22.4233 36.5452 22.4959 36.3094 22.5Z" fill="#94D9E2"/>
<path d="M22.3089 8.49996C22.151 8.50126 21.9944 8.47138 21.8481 8.41204C21.7018 8.3527 21.5686 8.26507 21.4563 8.15418L17.8385 4.54106C17.6189 4.31392 17.4973 4.00969 17.5 3.69391C17.5028 3.37812 17.6296 3.07605 17.8532 2.85275C18.0768 2.62945 18.3793 2.50279 18.6955 2.50005C19.0117 2.4973 19.3163 2.6187 19.5437 2.83808L23.1616 6.4512C23.3251 6.62097 23.4354 6.83473 23.4791 7.06624C23.5227 7.29776 23.4977 7.53696 23.4072 7.75449C23.3167 7.97203 23.1645 8.15845 22.9694 8.29087C22.7744 8.42329 22.5448 8.49596 22.3089 8.49996Z" fill="#94D9E2"/>
<path d="M26.8367 13.163C26.5314 12.8534 26.1422 12.64 25.717 12.5491C25.2919 12.4583 24.8494 12.4939 24.4443 12.6517L4.94895 20.0787C4.5098 20.2459 4.13404 20.5465 3.87443 20.9382C3.61483 21.3299 3.48441 21.7931 3.50149 22.2627C3.51857 22.7324 3.68229 23.1849 3.96967 23.5567C4.25704 23.9285 4.65364 24.201 5.10378 24.3358L13.1439 26.7482C13.1696 26.7559 13.1931 26.7698 13.2121 26.7887C13.2311 26.8077 13.2452 26.831 13.2529 26.8568L15.6646 34.8975C15.7958 35.3495 16.0672 35.7482 16.4397 36.036C16.8122 36.3238 17.2664 36.4858 17.737 36.4987C18.2063 36.5145 18.6689 36.3836 19.0604 36.1243C19.4519 35.865 19.7529 35.4901 19.9215 35.0518L27.3481 15.5544C27.506 15.1494 27.5418 14.7071 27.4508 14.282C27.3599 13.857 27.1464 13.4679 26.8367 13.163Z" fill="#94D9E2"/>
</svg>
