<svg width="40" height="40" viewBox="0 0 40 40" fill="none" xmlns="http://www.w3.org/2000/svg">
<path d="M36.6667 27.5V32.5C36.6667 33.6051 36.2277 34.6649 35.4463 35.4463C34.6649 36.2277 33.6051 36.6667 32.5 36.6667H20.5967C20.2686 36.6667 19.9477 36.5698 19.6744 36.3883C19.4011 36.2067 19.1875 35.9485 19.0603 35.6461C18.9331 35.3436 18.8981 35.0103 18.9595 34.688C19.0209 34.3657 19.1761 34.0687 19.4056 33.8342L29.1931 23.8342C29.3483 23.6756 29.5336 23.5497 29.7381 23.4636C29.9427 23.3776 30.1623 23.3333 30.3842 23.3333H32.5C33.6051 23.3333 34.6649 23.7723 35.4463 24.5537C36.2277 25.3351 36.6667 26.3949 36.6667 27.5ZM22.0048 27.4187L26.1 23.3333L30.6167 18.8167C31.3991 18.0343 31.8386 16.9731 31.8386 15.8667C31.8386 14.7602 31.3991 13.6991 30.6167 12.9167L27.0833 9.38333C26.3009 8.60094 25.2398 8.1614 24.1333 8.1614C23.0269 8.1614 21.9657 8.60094 21.1833 9.38333L19.6548 10.9119C19.3423 11.2244 19.1667 11.6483 19.1667 12.0903C19.1667 12.0903 19.1667 20.8901 19.161 26.244C19.1611 26.5734 19.2589 26.8955 19.4421 27.1693C19.6253 27.4431 19.8856 27.6564 20.1901 27.7822C20.4946 27.9079 20.8296 27.9405 21.1526 27.8758C21.4757 27.8111 21.7722 27.6521 22.0048 27.4187ZM16.6667 7.5V30C16.6667 31.7681 15.9643 33.4638 14.714 34.714C13.4638 35.9643 11.7681 36.6667 10 36.6667C8.23189 36.6667 6.53619 35.9643 5.28595 34.714C4.03571 33.4638 3.33333 31.7681 3.33333 30V7.5C3.29976 6.94407 3.38454 6.38735 3.58206 5.86661C3.77958 5.34587 4.08535 4.87298 4.47916 4.47916C4.87298 4.08535 5.34587 3.77958 5.86661 3.58206C6.38735 3.38454 6.94407 3.29976 7.5 3.33333H12.5C13.0559 3.29976 13.6126 3.38454 14.1334 3.58206C14.6541 3.77958 15.127 4.08535 15.5208 4.47916C15.9146 4.87298 16.2204 5.34587 16.4179 5.86661C16.6155 6.38735 16.7002 6.94407 16.6667 7.5ZM12.5 30C12.5 29.5055 12.3534 29.0222 12.0787 28.6111C11.804 28.1999 11.4135 27.8795 10.9567 27.6903C10.4999 27.5011 9.99722 27.4516 9.51227 27.548C9.02732 27.6445 8.58186 27.8826 8.23223 28.2322C7.8826 28.5819 7.6445 29.0273 7.54803 29.5123C7.45157 29.9972 7.50108 30.4999 7.6903 30.9567C7.87952 31.4135 8.19995 31.804 8.61107 32.0787C9.02219 32.3534 9.50554 32.5 10 32.5C10.6628 32.4993 11.2983 32.2356 11.767 31.767C12.2356 31.2983 12.4993 30.6628 12.5 30Z" fill="#94D9E2"/>
</svg>
