<svg width="40" height="40" viewBox="0 0 40 40" fill="none" xmlns="http://www.w3.org/2000/svg">
<g clip-path="url(#clip0_429_1428)">
<path d="M23.75 0H4.58333C2.05 0 0 2.05 0 4.58333V30.4167C0 32.95 2.05 35 4.58333 35H16.8833L17.25 32.95C17.4167 32.0167 17.85 31.1833 18.5167 30.5L28.3333 20.7V4.58333C28.3333 2.05 26.2833 0 23.75 0ZM6.66667 6.66667H13.3333C14.25 6.66667 15 7.41667 15 8.33333C15 9.25 14.25 10 13.3333 10H6.66667C5.75 10 5 9.25 5 8.33333C5 7.41667 5.75 6.66667 6.66667 6.66667ZM15 23.3333H6.66667C5.75 23.3333 5 22.5833 5 21.6667C5 20.75 5.75 20 6.66667 20H15C15.9167 20 16.6667 20.75 16.6667 21.6667C16.6667 22.5833 15.9167 23.3333 15 23.3333ZM21.6667 16.6667H6.66667C5.75 16.6667 5 15.9167 5 15C5 14.0833 5.75 13.3333 6.66667 13.3333H21.6667C22.5833 13.3333 23.3333 14.0833 23.3333 15C23.3333 15.9167 22.5833 16.6667 21.6667 16.6667Z" fill="#94D9E2"/>
<path d="M20.88 40C20.5516 40 20.2316 39.87 19.9966 39.6333C19.7083 39.345 19.5783 38.935 19.65 38.5316L20.5333 33.5233C20.5766 33.2716 20.7 33.0383 20.88 32.8566L33.255 20.4833C34.775 18.96 36.2683 19.3716 37.085 20.1883L39.1466 22.25C40.285 23.3866 40.285 25.2366 39.1466 26.375L26.7716 38.75C26.5916 38.9316 26.3583 39.0533 26.105 39.0966L21.0966 39.98C21.025 39.9933 20.9516 40 20.88 40Z" fill="#94D9E2"/>
</g>
<defs>
<clipPath id="clip0_429_1428">
<rect width="40" height="40" fill="white"/>
</clipPath>
</defs>
</svg>
