<svg width="165" height="51" viewBox="0 0 165 51" fill="none" xmlns="http://www.w3.org/2000/svg">
<path d="M15.0352 25.1787L15.8555 28.0059C16.0508 28.6602 16.3242 29.1338 16.6758 29.4268C17.0273 29.71 17.4961 29.8516 18.082 29.8516H18.4922C18.5898 29.8516 18.6826 29.8662 18.7705 29.8955C18.8584 29.915 18.9316 29.9541 18.9902 30.0127C19.0488 30.0713 19.0977 30.125 19.1367 30.1738C19.1855 30.2227 19.2246 30.2959 19.2539 30.3936C19.2832 30.4814 19.3027 30.5547 19.3125 30.6133C19.332 30.6621 19.3418 30.7451 19.3418 30.8623C19.3516 30.9795 19.3564 31.0576 19.3564 31.0967C19.3662 31.1357 19.3711 31.209 19.3711 31.3164C19.3711 31.4238 19.3711 31.4824 19.3711 31.4922V31.8438C19.3711 31.8535 19.3711 31.9414 19.3711 32.1074C19.3809 32.2734 19.3809 32.3955 19.3711 32.4736C19.3711 32.542 19.3613 32.6543 19.3418 32.8105C19.332 32.9668 19.3076 33.0889 19.2686 33.1768C19.2295 33.2549 19.1758 33.3428 19.1074 33.4404C19.0488 33.5381 18.9658 33.6113 18.8584 33.6602C18.751 33.6992 18.6289 33.7188 18.4922 33.7188H18.2432C17.3057 33.7188 16.5586 33.6016 16.002 33.3672C15.543 35.5547 14.4248 37.2734 12.6475 38.5234C10.8799 39.7832 8.50684 40.5742 5.52832 40.8965L5.01562 40.9551L4.89844 40.457L4.26855 37.9668L4.10742 37.3076L4.78125 37.2344C7.44727 36.9707 9.41016 36.3115 10.6699 35.2568C11.9297 34.2119 12.5547 32.7568 12.5449 30.8916C12.5449 29.5146 12.1787 28.04 11.4463 26.4678L11.168 25.8818L11.7832 25.6621L14.2734 24.7979L14.8594 24.5928L15.0352 25.1787ZM22.7109 18.5576C24.8887 20.4131 26.5146 21.917 27.5889 23.0693C27.8721 23.3818 28.1357 23.7188 28.3799 24.0801C28.6338 24.4414 28.8584 24.832 29.0537 25.252C29.2588 25.6621 29.4443 26.1016 29.6104 26.5703C30.0107 27.7129 30.5088 28.5479 31.1045 29.0752C31.71 29.5928 32.4326 29.8516 33.2725 29.8516H33.5068C33.6338 29.8516 33.7412 29.8711 33.8291 29.9102C33.9268 29.9492 34.0049 29.9932 34.0635 30.042C34.1318 30.0908 34.1855 30.1689 34.2246 30.2764C34.2734 30.374 34.3076 30.457 34.3271 30.5254C34.3467 30.584 34.3613 30.6816 34.3711 30.8184C34.3809 30.9453 34.3857 31.0332 34.3857 31.082C34.3955 31.1309 34.3955 31.2236 34.3857 31.3604C34.3857 31.4873 34.3857 31.5557 34.3857 31.5654V31.8438C34.3857 31.873 34.3857 31.9658 34.3857 32.1221C34.3955 32.2686 34.3955 32.3809 34.3857 32.459C34.3857 32.5371 34.376 32.6543 34.3564 32.8105C34.3467 32.957 34.3223 33.0742 34.2832 33.1621C34.2441 33.25 34.1953 33.3428 34.1367 33.4404C34.0781 33.5381 33.9951 33.6113 33.8877 33.6602C33.7803 33.6992 33.6533 33.7188 33.5068 33.7188H33.2725C31.2119 33.7188 29.5127 32.9717 28.1748 31.4775C26.7686 32.9717 24.1611 33.7188 20.3525 33.7188H18.2578C17.7793 33.7188 17.4229 33.5381 17.1885 33.1768C16.9443 32.8154 16.8223 32.3711 16.8223 31.8438V31.5654C16.8223 31.0869 16.9492 30.6816 17.2031 30.3496C17.4473 30.0176 17.7988 29.8516 18.2578 29.8516H20.3379C23.9707 29.8418 25.7969 29.1045 25.8164 27.6396C25.8164 26.8486 25.3721 26.0381 24.4834 25.208C23.7412 24.5146 23.0381 23.8848 22.374 23.3184C21.71 22.7422 21.0898 22.2295 20.5137 21.7803C19.2539 20.7939 18.624 19.7246 18.624 18.5723C18.624 17.8105 18.834 17.1562 19.2539 16.6094C19.6836 16.0625 20.2842 15.6426 21.0557 15.3496L31.207 11.4971L31.998 11.1895V12.0391V14.6904V15.0859L31.6172 15.2324L22.7109 18.5576ZM32.877 38.1426L35.001 36.0039L35.2207 35.7842L35.4404 36.0039L37.5938 38.1572L37.6084 38.1719L37.6377 38.1426L39.7764 36.0039L39.9961 35.7842L40.2158 36.0039L42.3545 38.1572L42.5742 38.377L42.3545 38.5967L40.2305 40.7207L40.0107 40.9404L39.791 40.7207L37.6377 38.582L37.623 38.5674L37.5938 38.5967L35.4551 40.7207L35.2354 40.9404L35.0303 40.7207L32.877 38.582L32.6572 38.3623L32.877 38.1426ZM44.918 31.8438C44.918 31.873 44.918 31.9512 44.918 32.0781C44.918 32.2051 44.918 32.3076 44.918 32.3857C44.918 32.4541 44.9131 32.5518 44.9033 32.6787C44.8936 32.8057 44.8789 32.9131 44.8594 33.001C44.8398 33.0791 44.8057 33.1719 44.7568 33.2793C44.7178 33.377 44.6641 33.4551 44.5957 33.5137C44.5371 33.5723 44.459 33.6211 44.3613 33.6602C44.2637 33.6992 44.1562 33.7188 44.0391 33.7188H43.8926C42.0859 33.7188 40.7334 33.1621 39.835 32.0488C38.7119 33.1621 37.042 33.7188 34.8252 33.7188H33.3018C32.8232 33.7188 32.4668 33.5381 32.2324 33.1768C31.998 32.8057 31.8809 32.3613 31.8809 31.8438V31.5654C31.8809 31.2529 31.9297 30.9746 32.0273 30.7305C32.125 30.4766 32.2861 30.2666 32.5107 30.1006C32.7256 29.9346 32.9893 29.8516 33.3018 29.8516H34.752C36.6855 29.8516 37.7402 29.3682 37.916 28.4014C37.9746 28.0889 38.0039 27.7178 38.0039 27.2881C38.0039 26.8096 37.9893 26.3604 37.96 25.9404L37.8867 24.7393L37.8428 24.1826L38.3994 24.124L40.8164 23.8311L41.417 23.7725L41.4609 24.373L41.6953 27.7715C41.7539 28.5137 41.9541 29.0459 42.2959 29.3682C42.6377 29.6904 43.1797 29.8516 43.9219 29.8516H44.0391C44.1758 29.8516 44.2979 29.876 44.4053 29.9248C44.5127 29.9639 44.5957 30.0322 44.6543 30.1299C44.7129 30.2275 44.7617 30.3203 44.8008 30.4082C44.8496 30.4863 44.8789 30.6035 44.8887 30.7598C44.9082 30.9062 44.918 31.0137 44.918 31.082C44.918 31.1504 44.918 31.2676 44.918 31.4336C44.918 31.5898 44.918 31.6777 44.918 31.6973V31.8438ZM53.1797 30.2471C53.7266 30.2471 54.1074 30.1445 54.3223 29.9395C54.5371 29.7246 54.6445 29.3535 54.6445 28.8262C54.6445 28.709 54.6396 28.6016 54.6299 28.5039C54.6299 28.3965 54.6201 28.2939 54.6006 28.1963C54.5908 28.0986 54.5762 28.0059 54.5566 27.918C54.5371 27.8203 54.5127 27.7324 54.4834 27.6543C54.4541 27.5762 54.4248 27.498 54.3955 27.4199C54.2979 27.1953 54.1904 27.0049 54.0732 26.8486C53.9561 26.6924 53.8242 26.5654 53.6777 26.4678C53.5312 26.3604 53.3652 26.2871 53.1797 26.248C53.0039 26.1992 52.8086 26.1748 52.5938 26.1748C51.5977 26.1748 50.792 26.9463 50.1768 28.4893C51.251 29.6611 52.252 30.2471 53.1797 30.2471ZM48.2432 31.8877C47.0322 33.1084 45.6602 33.7188 44.127 33.7188H43.8193C43.3408 33.7188 42.9844 33.5381 42.75 33.1768C42.5156 32.8057 42.3984 32.3613 42.3984 31.8438V31.5654C42.3984 31.0869 42.5205 30.6816 42.7646 30.3496C43.0088 30.0176 43.3604 29.8516 43.8193 29.8516H44.0537C44.6592 29.8516 45.2891 29.4609 45.9434 28.6797C46.2461 28.3184 46.5879 27.7031 46.9688 26.834C48.3555 23.7676 50.2109 22.2295 52.5352 22.2197C53.4238 22.2197 54.2246 22.3857 54.9375 22.7178C55.6602 23.04 56.2852 23.5283 56.8125 24.1826C57.8184 25.4424 58.3213 26.917 58.3213 28.6064C58.3213 30.2666 57.9502 31.5361 57.208 32.415C57.0713 32.5615 56.9297 32.7031 56.7832 32.8398C56.6367 32.9766 56.4805 33.1035 56.3145 33.2207C56.1484 33.3281 55.9775 33.4258 55.8018 33.5137C55.626 33.6016 55.4404 33.6797 55.2451 33.748C55.0596 33.8164 54.8643 33.8701 54.6592 33.9092C54.4639 33.958 54.2588 33.9922 54.0439 34.0117C53.8291 34.0312 53.6094 34.041 53.3848 34.041C51.5098 34.041 49.7959 33.3232 48.2432 31.8877Z" fill="#94D9E2"/>
<path d="M76.1045 29.8516C75.8408 27.2148 75.1084 25.8916 73.9072 25.8818C73.585 25.8818 73.3066 25.9844 73.0723 26.1895C72.8379 26.3945 72.6328 26.7461 72.457 27.2441C72.3008 27.7031 72.2227 28.1377 72.2227 28.5479C72.2227 28.8408 72.2812 29.0801 72.3984 29.2656C72.5156 29.4414 72.7354 29.583 73.0576 29.6904C73.3799 29.7979 73.8193 29.8516 74.376 29.8516H76.1045ZM79.7227 29.8662H80.7041C80.8408 29.8662 80.9629 29.8906 81.0703 29.9395C81.1777 29.9785 81.2607 30.0469 81.3193 30.1445C81.3877 30.2422 81.4414 30.3301 81.4805 30.4082C81.5195 30.4863 81.5439 30.6035 81.5537 30.7598C81.5732 30.916 81.583 31.0283 81.583 31.0967C81.5928 31.165 81.5928 31.2822 81.583 31.4482C81.583 31.6045 81.583 31.6875 81.583 31.6973V31.8438C81.583 31.8926 81.583 31.9609 81.583 32.0488C81.5928 32.127 81.5879 32.2783 81.5684 32.5029C81.5488 32.7178 81.5098 32.9082 81.4512 33.0742C81.4023 33.2402 81.3096 33.3916 81.1729 33.5283C81.0459 33.6553 80.8896 33.7188 80.7041 33.7188L79.5469 33.7041C79.0684 35.8135 77.9551 37.4639 76.207 38.6553C74.4688 39.8564 72.1445 40.6035 69.2344 40.8965L68.7363 40.9404L68.6191 40.457L67.9893 37.9375L67.8281 37.293L68.4873 37.2197C72.374 36.7998 74.8105 35.6328 75.7969 33.7188H74.5225C72.6182 33.7188 71.1484 33.2988 70.1133 32.459C69.0879 31.6191 68.5752 30.3887 68.5752 28.7676C68.5752 27.498 68.8486 26.292 69.3955 25.1494C69.7275 24.4561 70.123 23.875 70.582 23.4062C71.041 22.9277 71.5635 22.5664 72.1494 22.3223C72.7451 22.0684 73.3896 21.9414 74.083 21.9414C75.7139 21.9414 76.9932 22.625 77.9209 23.9922C78.8584 25.3594 79.459 27.3174 79.7227 29.8662ZM92.1152 31.8438C92.1152 31.873 92.1152 31.9512 92.1152 32.0781C92.1152 32.2051 92.1152 32.3076 92.1152 32.3857C92.1152 32.4541 92.1104 32.5518 92.1006 32.6787C92.0908 32.8057 92.0762 32.9131 92.0566 33.001C92.0371 33.0791 92.0029 33.1719 91.9541 33.2793C91.915 33.377 91.8613 33.4551 91.793 33.5137C91.7344 33.5723 91.6562 33.6211 91.5586 33.6602C91.4609 33.6992 91.3535 33.7188 91.2363 33.7188H91.0898C89.2832 33.7188 87.9307 33.1621 87.0322 32.0488C85.9092 33.1621 84.2393 33.7188 82.0225 33.7188H80.499C80.0205 33.7188 79.6641 33.5381 79.4297 33.1768C79.1953 32.8057 79.0781 32.3613 79.0781 31.8438V31.5654C79.0781 31.2529 79.127 30.9746 79.2246 30.7305C79.3223 30.4766 79.4834 30.2666 79.708 30.1006C79.9229 29.9346 80.1865 29.8516 80.499 29.8516H81.9492C83.8828 29.8516 84.9375 29.3682 85.1133 28.4014C85.1719 28.0889 85.2012 27.7178 85.2012 27.2881C85.2012 26.8096 85.1865 26.3604 85.1572 25.9404L85.084 24.7393L85.04 24.1826L85.5967 24.124L88.0137 23.8311L88.6143 23.7725L88.6582 24.373L88.8926 27.7715C88.9512 28.5137 89.1514 29.0459 89.4932 29.3682C89.835 29.6904 90.377 29.8516 91.1191 29.8516H91.2363C91.373 29.8516 91.4951 29.876 91.6025 29.9248C91.71 29.9639 91.793 30.0322 91.8516 30.1299C91.9102 30.2275 91.959 30.3203 91.998 30.4082C92.0469 30.4863 92.0762 30.6035 92.0859 30.7598C92.1055 30.9062 92.1152 31.0137 92.1152 31.082C92.1152 31.1504 92.1152 31.2676 92.1152 31.4336C92.1152 31.5898 92.1152 31.6777 92.1152 31.6973V31.8438ZM83.6777 18.5576L85.8164 16.4189L86.0361 16.1992L86.2559 16.4189L88.3945 18.5723L88.6143 18.792L88.3945 19.0117L86.2705 21.1357L86.0508 21.3555L85.8311 21.1357L83.6777 18.9971L83.458 18.7773L83.6777 18.5576ZM100.377 30.2471C100.924 30.2471 101.305 30.1445 101.52 29.9395C101.734 29.7246 101.842 29.3535 101.842 28.8262C101.842 28.709 101.837 28.6016 101.827 28.5039C101.827 28.3965 101.817 28.2939 101.798 28.1963C101.788 28.0986 101.773 28.0059 101.754 27.918C101.734 27.8203 101.71 27.7324 101.681 27.6543C101.651 27.5762 101.622 27.498 101.593 27.4199C101.495 27.1953 101.388 27.0049 101.271 26.8486C101.153 26.6924 101.021 26.5654 100.875 26.4678C100.729 26.3604 100.562 26.2871 100.377 26.248C100.201 26.1992 100.006 26.1748 99.791 26.1748C98.7949 26.1748 97.9893 26.9463 97.374 28.4893C98.4482 29.6611 99.4492 30.2471 100.377 30.2471ZM95.4404 31.8877C94.2295 33.1084 92.8574 33.7188 91.3242 33.7188H91.0166C90.5381 33.7188 90.1816 33.5381 89.9473 33.1768C89.7129 32.8057 89.5957 32.3613 89.5957 31.8438V31.5654C89.5957 31.0869 89.7178 30.6816 89.9619 30.3496C90.2061 30.0176 90.5576 29.8516 91.0166 29.8516H91.251C91.8564 29.8516 92.4863 29.4609 93.1406 28.6797C93.4434 28.3184 93.7852 27.7031 94.166 26.834C95.5527 23.7676 97.4082 22.2295 99.7324 22.2197C100.621 22.2197 101.422 22.3857 102.135 22.7178C102.857 23.04 103.482 23.5283 104.01 24.1826C105.016 25.4424 105.519 26.917 105.519 28.6064C105.519 30.2666 105.147 31.5361 104.405 32.415C104.269 32.5615 104.127 32.7031 103.98 32.8398C103.834 32.9766 103.678 33.1035 103.512 33.2207C103.346 33.3281 103.175 33.4258 102.999 33.5137C102.823 33.6016 102.638 33.6797 102.442 33.748C102.257 33.8164 102.062 33.8701 101.856 33.9092C101.661 33.958 101.456 33.9922 101.241 34.0117C101.026 34.0312 100.807 34.041 100.582 34.041C98.707 34.041 96.9932 33.3232 95.4404 31.8877Z" fill="#0F2C30"/>
<path d="M141.583 23.4167V15.0833H149.917V23.4167H141.583ZM149.917 35.9167V31.75H145.75V35.9167H149.917ZM129.083 27.5833V35.9167H137.417V27.5833H129.083ZM129.083 15.0833V19.25H133.25V15.0833H129.083Z" stroke="#94D9E2" stroke-width="5" stroke-linecap="round" stroke-linejoin="round"/>
<path d="M158.25 17.1667V8.83333C158.25 8.2808 158.03 7.75089 157.64 7.36019C157.249 6.96949 156.719 6.75 156.167 6.75H147.833" stroke="#0F2C30" stroke-width="5" stroke-linecap="round" stroke-linejoin="round"/>
<path d="M147.833 44.25H156.167C156.719 44.25 157.249 44.0305 157.64 43.6398C158.03 43.2491 158.25 42.7192 158.25 42.1667V33.8333" stroke="#0F2C30" stroke-width="5" stroke-linecap="round" stroke-linejoin="round"/>
<path d="M131.167 6.75H122.833C122.281 6.75 121.751 6.96949 121.36 7.36019C120.969 7.75089 120.75 8.2808 120.75 8.83333V17.1667" stroke="#0F2C30" stroke-width="5" stroke-linecap="round" stroke-linejoin="round"/>
<path d="M120.75 33.8333V42.1667C120.75 42.7192 120.969 43.2491 121.36 43.6398C121.751 44.0305 122.281 44.25 122.833 44.25H131.167" stroke="#0F2C30" stroke-width="5" stroke-linecap="round" stroke-linejoin="round"/>
</svg>
