<svg width="24" height="24" viewBox="0 0 24 24" fill="none" xmlns="http://www.w3.org/2000/svg">
<rect x="4" y="12.421" width="16" height="3.36842" rx="1" fill="white"/>
<path d="M19.3333 17.193C19.3333 18.7433 18.0766 20 16.5263 20L7.4737 20C5.92342 20 4.66668 18.7433 4.66668 17.193C4.66668 16.8829 4.91803 16.6316 5.22808 16.6316L18.7719 16.6316C19.082 16.6316 19.3333 16.8829 19.3333 17.193Z" fill="white"/>
<path fill-rule="evenodd" clip-rule="evenodd" d="M19.2384 11.4799C20.2186 5.44554 16.0262 4 12.0014 4C7.9765 4 3.92259 5.44554 4.71369 11.4799H19.2384ZM7.33423 9.05263C7.33423 9.09038 7.33446 9.12755 7.33468 9.16399C7.33723 9.57643 7.3392 9.89473 7.00089 9.89473C6.66259 9.89473 6.66456 9.57643 6.6671 9.16399C6.66733 9.12755 6.66756 9.09038 6.66756 9.05263C6.66756 9.01488 6.66733 8.97771 6.6671 8.94127C6.66456 8.52882 6.66259 8.21052 7.00089 8.21052C7.3392 8.21052 7.33723 8.52882 7.33468 8.94127C7.33446 8.97771 7.33423 9.01488 7.33423 9.05263ZM8.66625 7.47978C8.66602 7.44335 8.66579 7.40618 8.66579 7.36842C8.66579 7.33067 8.66602 7.2935 8.66625 7.25706C8.66879 6.84462 8.67075 6.52632 8.33334 6.52632C7.99593 6.52632 7.99789 6.84462 8.00043 7.25707C8.00066 7.2935 8.00089 7.33067 8.00089 7.36842C8.00089 7.40617 8.00066 7.44335 8.00043 7.47978C7.99789 7.89223 7.99593 8.21053 8.33334 8.21053C8.67075 8.21053 8.66879 7.89223 8.66625 7.47978ZM11.3347 6.63756V6.63767C11.3372 7.05011 11.3392 7.36841 11.0009 7.36841C10.6626 7.36841 10.6646 7.05011 10.6671 6.63767V6.63756V6.63745V6.63734L10.6671 6.63722C10.6673 6.60093 10.6676 6.56391 10.6676 6.52631C10.6676 6.48871 10.6673 6.45169 10.6671 6.4154L10.6671 6.41528V6.41517V6.41506V6.41495C10.6646 6.00251 10.6626 5.6842 11.0009 5.6842C11.3392 5.6842 11.3372 6.0025 11.3347 6.41495V6.41506V6.41517V6.41528V6.41539C11.3345 6.45169 11.3342 6.48871 11.3342 6.52631C11.3342 6.56391 11.3345 6.60093 11.3347 6.63723V6.63734V6.63745V6.63756ZM17.3347 9.16399C17.3345 9.12755 17.3342 9.09038 17.3342 9.05263C17.3342 9.01499 17.3345 8.97793 17.3347 8.9416V8.94149V8.94137V8.94127C17.3372 8.52882 17.3392 8.21052 17.0009 8.21052C16.6626 8.21052 16.6646 8.52882 16.6671 8.94127V8.94138V8.94149V8.94161V8.94172C16.6673 8.97801 16.6676 9.01503 16.6676 9.05263C16.6676 9.09026 16.6673 9.12732 16.6671 9.16365V9.16377V9.16388V9.16399C16.6646 9.57643 16.6626 9.89473 17.0009 9.89473C17.3392 9.89473 17.3372 9.57643 17.3347 9.16399ZM16.0013 7.47968V7.47978C16.0039 7.89223 16.0059 8.21053 15.6676 8.21053C15.3293 8.21053 15.3312 7.89223 15.3338 7.47978C15.334 7.44335 15.3342 7.40617 15.3342 7.36842C15.3342 7.33079 15.334 7.29373 15.3338 7.2574V7.25728V7.25717V7.25707C15.3312 6.84462 15.3293 6.52632 15.6676 6.52632C16.0059 6.52632 16.0039 6.84462 16.0013 7.25706V7.25717V7.25728V7.25739C16.0011 7.29373 16.0009 7.33079 16.0009 7.36842C16.0009 7.40606 16.0011 7.44312 16.0013 7.47946V7.47957V7.47968ZM10.668 9.16399V9.16388C10.6678 9.12748 10.6676 9.09034 10.6676 9.05263C10.6676 9.01495 10.6678 8.97785 10.668 8.94149V8.94138V8.94127C10.6706 8.52882 10.6725 8.21052 10.3342 8.21052C9.99592 8.21052 9.99789 8.52882 10.0004 8.94127V8.94138V8.94149C10.0007 8.97786 10.0009 9.01495 10.0009 9.05263C10.0009 9.09034 10.0007 9.12748 10.0004 9.16388V9.16399C9.99789 9.57643 9.99592 9.89473 10.3342 9.89473C10.6725 9.89473 10.6706 9.57643 10.668 9.16399ZM14.0013 9.16388V9.16399C14.0039 9.57643 14.0059 9.89473 13.6676 9.89473C13.3293 9.89473 13.3312 9.57643 13.3338 9.16399V9.16388C13.334 9.12748 13.3342 9.09034 13.3342 9.05263C13.3342 9.01491 13.334 8.97778 13.3338 8.94138V8.94127C13.3312 8.52882 13.3293 8.21052 13.6676 8.21052C14.0059 8.21052 14.0039 8.52882 14.0013 8.94127C14.0011 8.9777 14.0009 9.01488 14.0009 9.05263C14.0009 9.09034 14.0011 9.12748 14.0013 9.16388ZM13.3347 6.63767C13.3345 6.60123 13.3342 6.56406 13.3342 6.52631C13.3342 6.48856 13.3345 6.45139 13.3347 6.41495C13.3372 6.0025 13.3392 5.6842 13.0009 5.6842C12.6626 5.6842 12.6646 6.00251 12.6671 6.41495C12.6673 6.45139 12.6676 6.48856 12.6676 6.52631C12.6676 6.56406 12.6673 6.60123 12.6671 6.63767C12.6646 7.05011 12.6626 7.36841 13.0009 7.36841C13.3392 7.36841 13.3372 7.05012 13.3347 6.63767Z" fill="white"/>
</svg>
