<svg width="50" height="50" viewBox="0 0 50 50" fill="none" xmlns="http://www.w3.org/2000/svg">
<path d="M43.1021 20.4327V17.8467C43.1021 10.7517 37.3505 5.00006 30.2554 5.00006H19.7447C12.6495 5.00019 6.89792 10.7517 6.89792 17.8467V20.4327H43.1021Z" fill="#FFAD41"/>
<path d="M25 5.00012H19.7446C12.6495 5.00012 6.89792 10.7517 6.89792 17.8467V20.4327H25V5.00012Z" fill="#FF9811"/>
<path d="M13.363 15.3442C14.0771 15.3442 14.656 14.7653 14.656 14.0512C14.656 13.3371 14.0771 12.7582 13.363 12.7582C12.6488 12.7582 12.0699 13.3371 12.0699 14.0512C12.0699 14.7653 12.6488 15.3442 13.363 15.3442Z" fill="#804C09"/>
<path d="M19.828 11.465C20.5421 11.465 21.121 10.8861 21.121 10.172C21.121 9.45793 20.5421 8.87903 19.828 8.87903C19.1139 8.87903 18.535 9.45793 18.535 10.172C18.535 10.8861 19.1139 11.465 19.828 11.465Z" fill="#804C09"/>
<path d="M36.6371 15.3442C37.3512 15.3442 37.9301 14.7653 37.9301 14.0512C37.9301 13.3371 37.3512 12.7582 36.6371 12.7582C35.923 12.7582 35.3441 13.3371 35.3441 14.0512C35.3441 14.7653 35.923 15.3442 36.6371 15.3442Z" fill="#BD720D"/>
<path d="M30.172 11.465C30.8861 11.465 31.465 10.8861 31.465 10.172C31.465 9.45793 30.8861 8.87903 30.172 8.87903C29.4579 8.87903 28.879 9.45793 28.879 10.172C28.879 10.8861 29.4579 11.465 30.172 11.465Z" fill="#BD720D"/>
<path d="M25 15.3442C25.7141 15.3442 26.293 14.7653 26.293 14.0512C26.293 13.3371 25.7141 12.7582 25 12.7582C24.2859 12.7582 23.707 13.3371 23.707 14.0512C23.707 14.7653 24.2859 15.3442 25 15.3442Z" fill="#BD720D"/>
<path d="M25 12.7582C24.2859 12.7582 23.707 13.3371 23.707 14.0512C23.707 14.7653 24.2859 15.3442 25 15.3442" fill="#804C09"/>
<path d="M39.2231 30.777H10.7769C8.63468 30.777 6.89792 32.5137 6.89792 34.656C6.89792 36.7982 8.63468 38.535 10.7769 38.535H39.2231C41.3653 38.535 43.1021 36.7982 43.1021 34.656C43.1021 32.5137 41.3653 30.777 39.2231 30.777Z" fill="#BD720D"/>
<path d="M25 30.777H10.7769C8.63468 30.777 6.89792 32.5137 6.89792 34.656C6.89792 36.7982 8.63468 38.535 10.7769 38.535H25V30.777Z" fill="#804C09"/>
<path d="M45.6881 41.1209C45.6881 43.2632 43.9513 44.9999 41.8091 44.9999H8.19092C6.04867 44.9999 4.3119 43.2632 4.3119 41.1209C4.3119 38.9786 6.04867 37.2419 8.19092 37.2419H41.8091C43.9513 37.242 45.6881 38.9786 45.6881 41.1209Z" fill="#FFAD41"/>
<path d="M25 37.242H8.19092C6.04867 37.242 4.3119 38.9788 4.3119 41.121C4.3119 43.2633 6.04867 45 8.19092 45H25V37.242Z" fill="#FF9811"/>
<path d="M12.0699 32.07L25 30.777L37.9301 32.07L25 38.5349L12.0699 32.07Z" fill="#FFE98F"/>
<path d="M12.0699 32.07L25 30.777V38.5349L12.0699 32.07Z" fill="#FFDA44"/>
<path d="M39.2231 21.726H10.7769C8.63468 21.726 6.89792 23.4627 6.89792 25.605C6.89792 27.7472 8.63468 29.484 10.7769 29.484H39.2231C41.3653 29.484 43.1021 27.7472 43.1021 25.605C43.1021 23.4627 41.3653 21.726 39.2231 21.726Z" fill="#BD720D"/>
<path d="M25 21.726H10.7769C8.63468 21.726 6.89792 23.4627 6.89792 25.605C6.89792 27.7472 8.63468 29.484 10.7769 29.484H25V21.726Z" fill="#804C09"/>
<path d="M45.6881 30.1305C45.6881 31.2016 44.8198 32.07 43.7486 32.07H6.25141C5.18042 32.07 4.3119 31.2016 4.3119 30.1305C4.3119 29.0594 5.18042 28.191 6.25141 28.191H43.7486C44.8198 28.191 45.6881 29.0592 45.6881 30.1305Z" fill="#FF5023"/>
<path d="M25 28.191H6.25141C5.18042 28.191 4.3119 29.0594 4.3119 30.1305C4.3119 31.2016 5.18042 32.07 6.25141 32.07H25V28.191Z" fill="#BD3C1A"/>
<path d="M12.0699 23.019L25 21.726L37.9301 23.019L25 29.484L12.0699 23.019Z" fill="#FFE98F"/>
<path d="M12.0699 23.019L25 21.726V29.484L12.0699 23.019Z" fill="#FFDA44"/>
<path d="M45.6881 21.0794C45.6881 22.1505 44.8198 23.0189 43.7486 23.0189H6.25141C5.18042 23.0189 4.3119 22.1505 4.3119 21.0794C4.3119 20.0083 5.18042 19.1399 6.25141 19.1399H43.7486C44.8198 19.1398 45.6881 20.0081 45.6881 21.0794Z" fill="#91DC5A"/>
<path d="M25 19.1398H6.25141C5.18042 19.1398 4.3119 20.0082 4.3119 21.0793C4.3119 22.1504 5.18042 23.0188 6.25141 23.0188H25V19.1398Z" fill="#64C37D"/>
</svg>
