<svg width="20" height="20" viewBox="0 0 20 20" fill="none" xmlns="http://www.w3.org/2000/svg">
<path d="M13.0159 0.0006875C13.0058 0.0005 12.9961 0 12.9857 0C11.5046 0.005625 11.5003 1.08537 10.0112 1.08537C10.0074 1.08537 10.0038 1.08512 9.99994 1.08512C9.99606 1.08512 9.99256 1.08537 9.98862 1.08537C8.49956 1.08537 8.49531 0.005625 7.01419 0C7.00387 0 6.99412 0.0005 6.98394 0.0006875C6.23181 0.010875 5.625 0.623062 5.625 1.37769V6.875H14.375V1.37769C14.375 0.623062 13.7682 0.010875 13.0159 0.0006875Z" fill="#91DC5A"/>
<path d="M9.98869 1.08537C8.49962 1.08537 8.49537 0.005625 7.01425 0C7.00394 0 6.99419 0.0005 6.984 0.0006875C6.23181 0.010875 5.625 0.623062 5.625 1.37769V6.875H10C10 6.875 9.99263 1.08537 9.98869 1.08537Z" fill="#64C37D"/>
<path d="M7.1875 6.875V2.5C7.1875 1.98225 7.60725 1.5625 8.125 1.5625C8.64275 1.5625 9.0625 1.98225 9.0625 2.5V2.8125C9.0625 3.33025 9.48225 3.75 10 3.75C10.5178 3.75 10.9375 3.33025 10.9375 2.8125C10.9375 2.29475 11.3573 1.875 11.875 1.875C12.3927 1.875 12.8125 2.29475 12.8125 2.8125V3.125C12.8125 3.64275 12.8125 6.875 12.8125 6.875H7.1875Z" fill="#FF5023"/>
<path d="M10 6.875H7.1875V2.5C7.1875 1.98225 7.60725 1.5625 8.125 1.5625C8.64275 1.5625 9.0625 1.98225 9.0625 2.5V2.8125C9.0625 3.33025 9.48225 3.75 10 3.75C10.0316 3.75 10 6.875 10 6.875Z" fill="#BD3C1A"/>
<path d="M14.375 6.875H5.625V20H14.375V6.875Z" fill="#BD720D"/>
<path d="M5.625 4.375H5.66525C9.09487 4.375 11.875 7.15512 11.875 10.5847V13.7902C11.875 17.2199 9.09487 20 5.66525 20H5.625V4.375Z" fill="#FF9811"/>
<path d="M14.375 4.375H14.3347C10.9051 4.375 8.125 7.15512 8.125 10.5847V13.7902C8.125 17.2199 10.9051 20 14.3347 20H14.375V4.375Z" fill="#FFAD41"/>
<path d="M12.5 17.5C12.8452 17.5 13.125 17.2202 13.125 16.875C13.125 16.5298 12.8452 16.25 12.5 16.25C12.1548 16.25 11.875 16.5298 11.875 16.875C11.875 17.2202 12.1548 17.5 12.5 17.5Z" fill="#FF9811"/>
<path d="M10.625 15C10.9702 15 11.25 14.7202 11.25 14.375C11.25 14.0298 10.9702 13.75 10.625 13.75C10.2798 13.75 10 14.0298 10 14.375C10 14.7202 10.2798 15 10.625 15Z" fill="#FF9811"/>
<path d="M12.5 7.5C12.8452 7.5 13.125 7.22018 13.125 6.875C13.125 6.52982 12.8452 6.25 12.5 6.25C12.1548 6.25 11.875 6.52982 11.875 6.875C11.875 7.22018 12.1548 7.5 12.5 7.5Z" fill="#FF9811"/>
<path d="M10.625 10C10.9702 10 11.25 9.72018 11.25 9.375C11.25 9.02982 10.9702 8.75 10.625 8.75C10.2798 8.75 10 9.02982 10 9.375C10 9.72018 10.2798 10 10.625 10Z" fill="#FF9811"/>
<path d="M12.5 12.5C12.8452 12.5 13.125 12.2202 13.125 11.875C13.125 11.5298 12.8452 11.25 12.5 11.25C12.1548 11.25 11.875 11.5298 11.875 11.875C11.875 12.2202 12.1548 12.5 12.5 12.5Z" fill="#FF9811"/>
</svg>
