<svg width="50" height="50" viewBox="0 0 50 50" fill="none" xmlns="http://www.w3.org/2000/svg">
<g clip-path="url(#clip0_2599_2733)">
<path d="M43.1684 36.7119L35.4595 35.7353L5.85498 36.7119C5.046 36.7119 4.39014 37.3677 4.39014 38.1767V39.466C4.39014 42.4324 6.79482 44.8371 9.76123 44.8371H39.2621C42.2285 44.8371 44.6332 42.4324 44.6332 39.466V38.1767C44.6332 37.3677 43.9774 36.7119 43.1684 36.7119Z" fill="#FEC165"/>
<path d="M44.1449 36.7119L43.1684 35.7353L41.2152 36.7119C42.0242 36.7119 42.6801 37.3677 42.6801 38.1767V39.466C42.6801 42.4324 40.2754 44.8371 37.309 44.8371H40.2387C43.2051 44.8371 45.6098 42.4324 45.6098 39.466V38.1767C45.6098 37.3677 44.954 36.7119 44.1449 36.7119Z" fill="#FEA713"/>
<path d="M44.2518 36.7118H4.77169C2.89297 36.7118 1.37003 35.1889 1.37003 33.3102C1.37003 31.4315 2.89297 29.9085 4.77169 29.9085H44.2518C46.1305 29.9085 47.6534 31.4315 47.6534 33.3102C47.6534 35.1889 46.1305 36.7118 44.2518 36.7118Z" fill="#D6694B"/>
<path d="M45.2283 29.9085H42.2986C44.1773 29.9085 45.7003 31.4315 45.7003 33.3102C45.7003 35.1889 44.1773 36.7118 42.2986 36.7118H45.2283C47.107 36.7118 48.63 35.1889 48.63 33.3102C48.63 31.4315 47.107 29.9085 45.2283 29.9085Z" fill="#C4573A"/>
<path d="M44.2518 27.9776L25.4726 32.5862L4.77169 27.9776C2.89297 27.9776 1.37003 26.4546 1.37003 24.5759C1.37003 22.6972 2.89297 21.1743 4.77169 21.1743H5.85499L29.3913 18.5263L44.2517 21.1743C46.1304 21.1743 47.6533 22.6972 47.6533 24.5759C47.6534 26.4546 46.1305 27.9776 44.2518 27.9776Z" fill="#FE646F"/>
<path d="M48.291 30.2867C48.291 31.3883 48.4896 32.2444 47.408 32.4534C45.0879 32.9017 44.4844 34.1298 41.1776 34.1298C40.6184 34.1298 40.1364 34.1923 39.7105 34.1317C37.0553 33.7544 36.5733 32.3898 33.0877 32.3898C29.0433 32.3898 29.0433 34.2274 24.9988 34.2274C20.9543 34.2274 20.9543 32.3898 16.9098 32.3898C12.8654 32.3898 12.8654 34.2274 8.82109 34.2274C5.51494 34.2274 4.91152 32.9994 2.59199 32.5512C1.51035 32.3421 0.732422 31.3884 0.732422 30.2868V30.2867C0.732422 29.0114 1.76631 27.9775 3.0416 27.9775H45.9818C47.2571 27.9775 48.291 29.0114 48.291 30.2867Z" fill="#97DA7B"/>
<path d="M46.9584 27.9775H44.0287C45.304 27.9775 46.3379 29.0114 46.3379 30.2867C46.3379 31.3883 45.56 32.3421 44.4783 32.5511C42.5496 32.9237 41.8058 33.8347 39.7104 34.1316C40.1365 34.1922 40.6183 34.2274 41.1776 34.2274C44.4845 34.2274 45.0879 32.9993 47.408 32.5511C48.4896 32.3421 49.2676 31.3884 49.2676 30.2867C49.2676 29.0114 48.2337 27.9775 46.9584 27.9775Z" fill="#68CA44"/>
<path d="M9.52969 21.1743L23.5352 29.2431C24.1126 29.5757 25.3554 29.5893 25.9328 29.2567L39.2008 20.1977L9.52969 21.1743Z" fill="#FFE177"/>
<path d="M37.5406 21.1743L23.5352 29.2431L24.0672 29.5496C24.6446 29.8823 25.3554 29.8823 25.9328 29.5496L40.4703 21.1743L38.646 20.1977L37.5406 21.1743Z" fill="#FEC165"/>
<path d="M45.2283 21.1743H44.2518L43.7471 21.0766L42.2986 21.1743C44.1773 21.1743 45.7003 22.6973 45.7003 24.5759C45.7003 26.4546 44.1773 27.9776 42.2986 27.9776L44.4891 28.0752L45.2283 27.9776C47.107 27.9776 48.63 26.4546 48.63 24.5759C48.63 22.6972 47.107 21.1743 45.2283 21.1743Z" fill="#FD4755"/>
<path d="M30.0868 5.1629H18.9366C10.9028 5.1629 4.39023 11.6755 4.39023 19.7093C4.39023 20.5183 5.04609 21.1741 5.85507 21.1741H43.1685C43.9774 21.1741 44.6333 20.5183 44.6333 19.7093C44.6332 11.6756 38.1206 5.1629 30.0868 5.1629Z" fill="#FEC165"/>
<path d="M31.0634 5.1629H28.1337C36.1675 5.1629 42.6801 11.6755 42.6801 19.7093C42.6801 20.5183 42.0242 21.1741 41.2152 21.1741H44.1449C44.9539 21.1741 45.6098 20.5183 45.6098 19.7093C45.6098 11.6756 39.0972 5.1629 31.0634 5.1629Z" fill="#FEA713"/>
<path d="M20.6606 9.94629C20.6606 9.5418 20.3327 9.21387 19.9282 9.21387H17.4542C17.0497 9.21387 16.7218 9.5418 16.7218 9.94629C16.7218 10.3508 17.0497 10.6787 17.4542 10.6787H19.9282C20.3327 10.6787 20.6606 10.3508 20.6606 9.94629Z" fill="black"/>
<path d="M26.237 9.21387H23.763C23.3585 9.21387 23.0306 9.5418 23.0306 9.94629C23.0306 10.3508 23.3585 10.6787 23.763 10.6787H26.237C26.6415 10.6787 26.9694 10.3508 26.9694 9.94629C26.9694 9.5418 26.6415 9.21387 26.237 9.21387Z" fill="black"/>
<path d="M30.0718 10.6787H32.5458C32.9503 10.6787 33.2782 10.3508 33.2782 9.94629C33.2782 9.5418 32.9503 9.21387 32.5458 9.21387H30.0718C29.6673 9.21387 29.3394 9.5418 29.3394 9.94629C29.3394 10.3508 29.6673 10.6787 30.0718 10.6787Z" fill="black"/>
<path d="M19.8762 14.3377C19.8762 14.7422 20.2041 15.0701 20.6086 15.0701H23.0826C23.4871 15.0701 23.815 14.7422 23.815 14.3377C23.815 13.9332 23.4871 13.6053 23.0826 13.6053H20.6086C20.2041 13.6053 19.8762 13.9332 19.8762 14.3377Z" fill="black"/>
<path d="M26.185 14.3377C26.185 14.7422 26.5129 15.0701 26.9174 15.0701H29.3914C29.7959 15.0701 30.1238 14.7422 30.1238 14.3377C30.1238 13.9332 29.7959 13.6053 29.3914 13.6053H26.9174C26.5129 13.6053 26.185 13.9332 26.185 14.3377Z" fill="black"/>
<path d="M50 30.2867C50 29.0348 49.2395 27.9573 48.1562 27.4913C48.9012 26.7433 49.3624 25.7124 49.3624 24.5759C49.3624 22.6218 47.9991 20.9813 46.1741 20.5523C46.2819 20.2913 46.3422 20.0068 46.3422 19.7094C46.3422 11.2846 39.4881 4.43048 31.0634 4.43048H23.4053C23.0008 4.43048 22.6729 4.75841 22.6729 5.1629C22.6729 5.5674 23.0008 5.89532 23.4053 5.89532H31.0634C38.6805 5.89532 44.8773 12.0923 44.8773 19.7094C44.8773 20.0499 44.6467 20.3429 44.3164 20.4218C44.2931 20.4274 44.2703 20.4342 44.248 20.4418H5.67764C5.64375 20.4203 5.6083 20.4007 5.57021 20.3846C5.29834 20.2695 5.12266 20.0045 5.12266 19.7094C5.12266 12.0923 11.3196 5.89532 18.9366 5.89532H20.2133C20.6178 5.89532 20.9457 5.5674 20.9457 5.1629C20.9457 4.75841 20.6178 4.43048 20.2133 4.43048H18.9366C10.5118 4.43048 3.65781 11.2846 3.65781 19.7094C3.65781 20.005 3.71777 20.2901 3.82646 20.5522C2.00107 20.981 0.637598 22.6217 0.637598 24.576C0.637598 25.7126 1.09883 26.7434 1.84375 27.4914C0.760547 27.9573 0 29.0349 0 30.2868C0 31.0513 0.285449 31.7605 0.7625 32.3012C0.67998 32.6296 0.637598 32.9674 0.637598 33.3102C0.637598 35.2651 2.00215 36.9065 3.82861 37.3344C3.71865 37.5966 3.65781 37.8818 3.65781 38.1767V39.466C3.65781 42.8315 6.3959 45.5695 9.76133 45.5695H40.2388C43.6042 45.5695 46.3423 42.8315 46.3423 39.466V38.1767C46.3423 37.8805 46.2806 37.5959 46.1712 37.3345C47.9978 36.9066 49.3625 35.2652 49.3625 33.3102C49.3625 32.9676 49.3203 32.6295 49.2378 32.3009C49.7146 31.7602 50 31.0512 50 30.2867ZM47.8976 24.5759C47.8976 26.0477 46.7001 27.2451 45.2283 27.2451H31.3999L40.573 21.9604C40.6011 21.9442 40.6271 21.9258 40.6523 21.9067H45.2283C46.7002 21.9067 47.8976 23.104 47.8976 24.5759ZM4.77168 21.9067H9.33769C9.34873 21.9139 9.35938 21.9215 9.3709 21.9281L13.6869 24.4147C13.8021 24.4811 13.9278 24.5126 14.0519 24.5126C14.3052 24.5126 14.5516 24.381 14.6871 24.1457C14.8891 23.7952 14.7687 23.3474 14.4182 23.1454L12.268 21.9067H37.7317L25.567 28.9151C25.2172 29.1165 24.7825 29.1165 24.4327 28.9151L17.1784 24.7357C16.8279 24.5337 16.3802 24.6541 16.1781 25.0046C15.9762 25.3551 16.0967 25.8029 16.4471 26.0049L18.5999 27.2452H4.77168C3.2998 27.2452 2.10234 26.0478 2.10234 24.576C2.10244 23.104 3.2999 21.9067 4.77168 21.9067ZM44.8773 39.466C44.8773 42.0237 42.7964 44.1047 40.2387 44.1047H9.76133C7.20361 44.1047 5.12266 42.0237 5.12266 39.466V38.1767C5.12266 37.8548 5.3377 37.566 5.64561 37.4744C5.67383 37.466 5.70098 37.4557 5.72744 37.4442H44.2356C44.2546 37.4497 44.2736 37.4551 44.2934 37.4591C44.6318 37.5283 44.8774 37.8301 44.8774 38.1767V39.466H44.8773ZM45.2283 35.9794H4.77168C3.2998 35.9794 2.10234 34.7819 2.10234 33.3102C2.10234 33.267 2.10576 33.2243 2.10781 33.1815C2.22002 33.2173 2.33496 33.2475 2.45283 33.2702C3.26855 33.4278 3.85391 33.6939 4.47363 33.9754C5.53877 34.4594 6.64014 34.9598 8.8209 34.9598C11.0017 34.9598 12.1031 34.4593 13.1683 33.9754C14.134 33.5366 15.0461 33.1222 16.9097 33.1222C18.7733 33.1222 19.6855 33.5366 20.6512 33.9754C21.7164 34.4594 22.8179 34.9598 24.9987 34.9598C27.1796 34.9598 28.281 34.4593 29.3462 33.9754C30.0743 33.6445 30.7621 33.332 31.8372 33.1953C32.2385 33.1443 32.5225 32.7776 32.4714 32.3764C32.4204 31.9752 32.054 31.6912 31.6524 31.7422C30.3577 31.9069 29.5354 32.2805 28.7403 32.6418C27.7746 33.0806 26.8625 33.495 24.9989 33.495C23.1353 33.495 22.223 33.0806 21.2574 32.6418C20.1922 32.1578 19.0907 31.6574 16.91 31.6574C14.7292 31.6574 13.6278 32.1578 12.5626 32.6418C11.5969 33.0806 10.6848 33.495 8.82119 33.495C6.95762 33.495 6.04551 33.0806 5.07978 32.6418C4.40977 32.3374 3.71699 32.0226 2.73105 31.832C1.99727 31.6902 1.46484 31.0403 1.46484 30.2867C1.46484 29.4173 2.17217 28.71 3.0416 28.71H21.1427L23.7016 30.1842C24.1021 30.415 24.551 30.5303 25 30.5303C25.4489 30.5303 25.898 30.4149 26.2984 30.1842L28.8573 28.71H46.9584C47.8278 28.71 48.5352 29.4173 48.5352 30.2867C48.5352 31.0403 48.0027 31.6902 47.269 31.8319C46.2829 32.0225 45.5898 32.3373 44.9196 32.6418C43.9538 33.0806 43.0415 33.495 41.1775 33.495C39.3137 33.495 38.4014 33.0806 37.4355 32.6418C36.7452 32.3281 36.0313 32.0039 34.999 31.8156C34.601 31.7432 34.2196 32.0068 34.1471 32.4048C34.0745 32.8027 34.3383 33.1842 34.7362 33.2568C35.5903 33.4125 36.1924 33.6859 36.8297 33.9755C37.8949 34.4595 38.9965 34.9599 41.1775 34.9599C43.3586 34.9599 44.4602 34.4594 45.5255 33.9755C46.1454 33.6939 46.7309 33.4279 47.5469 33.2702C47.6648 33.2475 47.7799 33.2173 47.8922 33.1815C47.8942 33.2243 47.8976 33.2671 47.8976 33.3103C47.8976 34.782 46.7002 35.9794 45.2283 35.9794Z" fill="black"/>
</g>
<defs>
<clipPath id="clip0_2599_2733">
<rect width="50" height="50" fill="white"/>
</clipPath>
</defs>
</svg>
