<svg width="50" height="50" viewBox="0 0 50 50" fill="none" xmlns="http://www.w3.org/2000/svg">
<g clip-path="url(#clip0_2599_2850)">
<path d="M12.223 1.02081C12.6411 0.602748 13.3374 0.643178 13.6919 1.11632C15.9598 4.14308 15.7176 8.45499 12.9652 11.2072C10.2129 13.9595 5.90108 14.2018 2.87432 11.9339C2.40117 11.5794 2.36074 10.8831 2.77881 10.4651L12.223 1.02081Z" fill="#4BA72D"/>
<path d="M11.1021 2.14172C13.091 4.13059 13.091 7.3553 11.1021 9.34417C9.11328 11.333 5.88858 11.333 3.89971 9.34417L11.1021 2.14172Z" fill="#C2E8B1"/>
<path d="M11.1019 9.34408C10.0591 10.3869 8.67549 10.8833 7.30859 10.8314C7.79912 10.5906 8.25938 10.2664 8.66768 9.85814C10.3244 8.2014 10.6005 5.68793 9.49795 3.74535L11.1018 2.14154C13.0915 4.13099 13.0915 7.35541 11.1019 9.34408Z" fill="#99D980"/>
<path d="M31.9515 49.2676H13.5565C13.0185 49.2676 12.5678 48.8601 12.5137 48.3248L8.53008 8.92449C8.46768 8.30701 8.95235 7.77087 9.57295 7.77087H35.935C36.5556 7.77087 37.0403 8.3071 36.9778 8.92449L32.9942 48.3248C32.9402 48.8601 32.4896 49.2676 31.9515 49.2676Z" fill="#F8F3F1"/>
<path d="M36.9775 8.9248L32.9941 48.3252C32.9404 48.8604 32.4893 49.2676 31.9512 49.2676H28.043C28.5811 49.2676 29.0313 48.8604 29.0859 48.3252L33.0693 8.9248C33.1318 8.30664 32.6465 7.77051 32.0264 7.77051H35.9346C36.5557 7.77051 37.04 8.30664 36.9775 8.9248Z" fill="#E0D3CE"/>
<path d="M9.0833 14.3967L12.5136 48.3248C12.5677 48.8601 13.0184 49.2676 13.5564 49.2676H31.9514C32.4895 49.2676 32.9401 48.8601 32.9942 48.3248L36.4245 14.3967H9.0833Z" fill="#FDF0B2"/>
<path d="M24.5988 17.4386C26.2788 17.4386 27.6407 16.0767 27.6407 14.3967C27.6407 12.7167 26.2788 11.3548 24.5988 11.3548C22.9188 11.3548 21.5569 12.7167 21.5569 14.3967C21.5569 16.0767 22.9188 17.4386 24.5988 17.4386Z" fill="#FDDD45"/>
<path d="M27.6407 14.3967C27.6407 16.0766 26.2788 17.4386 24.5988 17.4386C22.9188 17.4386 21.5569 16.0766 21.5569 14.3967H27.6407Z" fill="#F8C52D"/>
<path d="M30.272 36.5936C29.921 36.4302 29.4833 36.5145 29.2234 36.8489C29.0531 37.0682 29.0086 37.3605 29.0821 37.6281L29.1244 37.7819C29.2065 38.0812 29.1219 38.4015 28.9024 38.6209L21.9084 45.615L22.4694 49.2676H25.6376L28.399 46.5062C28.7237 46.1815 29.2763 46.4438 29.2301 46.9006L29.086 48.3253C29.0313 48.8605 28.5812 49.2677 28.0431 49.2677H31.9513C32.4894 49.2677 32.9405 48.8605 32.9942 48.3253L36.4244 14.3968H32.5162L30.272 36.5936Z" fill="#FDDD45"/>
<path d="M36.0651 34.5685L47.1502 23.4834L42.3278 20.9241L32.3742 30.8777C32.1548 31.0971 31.8345 31.1819 31.5353 31.0997L31.3572 31.0507C31.058 30.9686 30.7377 31.0534 30.5183 31.2727C30.1812 31.6098 30.1812 32.1564 30.5183 32.4935L34.4492 36.4245C34.7863 36.7616 35.3329 36.7616 35.67 36.4245C35.8895 36.205 35.9742 35.8847 35.892 35.5855L35.8431 35.4075C35.7609 35.1083 35.8457 34.7879 36.0651 34.5685Z" fill="#C2E8B1"/>
<path d="M35.67 36.4245C35.3328 36.7617 34.7858 36.7617 34.4487 36.4245L32.1501 34.1258C32.4873 34.463 33.0343 34.463 33.3714 34.1258C33.4814 34.0158 33.5576 33.8814 33.595 33.736C33.6338 33.592 33.6338 33.4369 33.593 33.2867L33.5438 33.1088C33.4621 32.8096 33.5473 32.4891 33.7668 32.2696L44.1467 21.8897L47.1502 23.4836L36.0653 34.5682C35.8459 34.7877 35.7607 35.1083 35.8431 35.4081L35.8922 35.586C35.9323 35.7355 35.9323 35.8906 35.8942 36.0353C35.8563 36.18 35.7801 36.3143 35.67 36.4245Z" fill="#99D980"/>
<path d="M19.784 43.4679C19.5645 43.6873 19.2442 43.7721 18.945 43.6899L18.767 43.641C18.4678 43.5588 18.1475 43.6435 17.928 43.8629C17.5909 44.2 17.5909 44.7466 17.928 45.0837L21.859 49.0147C22.1961 49.3518 22.7427 49.3518 23.0798 49.0147C23.2992 48.7953 23.384 48.4749 23.3018 48.1757L23.2528 47.9977C23.1707 47.6985 23.2555 47.3782 23.4748 47.1587L32.5933 38.0403C32.8127 37.8208 33.133 37.7361 33.4322 37.8183L33.6103 37.8672C33.9095 37.9494 34.2298 37.8647 34.4492 37.6453C34.7863 37.3081 34.7863 36.7616 34.4492 36.4244L30.5183 32.4935C30.1812 32.1564 29.6346 32.1564 29.2975 32.4935C29.078 32.7129 28.9933 33.0332 29.0755 33.3325L29.1244 33.5105C29.2065 33.8097 29.1218 34.13 28.9024 34.3495L19.784 43.4679Z" fill="#C2E8B1"/>
<path d="M23.0794 49.0151C22.7429 49.3516 22.1959 49.3516 21.8588 49.0144L19.5602 46.7158C19.8974 47.053 20.4443 47.053 20.7808 46.7165C21.0002 46.497 21.0855 46.1764 21.003 45.8766L20.9539 45.6987C20.8722 45.3996 20.9566 45.0797 21.1762 44.8602L30.2946 35.7417C30.5141 35.5223 30.8347 35.4372 31.1338 35.5202L31.3117 35.5679C31.6108 35.651 31.9313 35.5659 32.1509 35.3463C32.4881 35.0091 32.4874 34.4628 32.1502 34.1257L34.4488 36.4244C34.786 36.7616 34.7867 37.3079 34.4495 37.645C34.2301 37.8644 33.9095 37.9497 33.611 37.8672L33.4324 37.8188C33.1333 37.7357 32.8128 37.8208 32.5933 38.0404L23.4748 47.1588C23.2554 47.3783 23.1709 47.6982 23.2532 47.998L23.3023 48.1759C23.384 48.4751 23.2988 48.7956 23.0794 49.0151Z" fill="#99D980"/>
<path d="M47.4682 22.9374C47.7253 21.9778 46.7108 20.8722 45.2021 20.468C43.6934 20.0638 42.262 20.514 42.0049 21.4736C41.7478 22.4332 42.7623 23.5388 44.271 23.943C45.7797 24.3472 47.2111 23.897 47.4682 22.9374Z" fill="#4BA72D"/>
<path d="M18.8043 22.633C19.8232 22.633 20.6491 21.8071 20.6491 20.7882C20.6491 19.7693 19.8232 18.9434 18.8043 18.9434C17.7854 18.9434 16.9595 19.7693 16.9595 20.7882C16.9595 21.8071 17.7854 22.633 18.8043 22.633Z" fill="#FDDD45"/>
<path d="M23.7532 31.8503C24.7721 31.8503 25.598 31.0243 25.598 30.0055C25.598 28.9866 24.7721 28.1606 23.7532 28.1606C22.7344 28.1606 21.9084 28.9866 21.9084 30.0055C21.9084 31.0243 22.7344 31.8503 23.7532 31.8503Z" fill="#FDDD45"/>
<path d="M8.83926 13.3545C6.78701 13.7135 4.61758 13.2399 2.87432 11.9338C2.40117 11.5793 2.36074 10.883 2.77881 10.4649L12.223 1.02069C12.6411 0.602626 13.3374 0.643056 13.6919 1.1162C15.1055 3.00282 15.5438 5.38866 15.007 7.58485" stroke="black" stroke-width="1.5" stroke-miterlimit="10" stroke-linecap="round" stroke-linejoin="round"/>
<path d="M8.58936 10.7187C6.95195 11.0753 5.17275 10.6171 3.89971 9.3441L11.1021 2.14166C12.5938 3.63336 12.9667 5.82008 12.2209 7.65934" stroke="black" stroke-width="1.5" stroke-miterlimit="10" stroke-linecap="round" stroke-linejoin="round"/>
<path d="M24.5988 17.4386C26.2788 17.4386 27.6407 16.0767 27.6407 14.3967C27.6407 12.7167 26.2788 11.3548 24.5988 11.3548C22.9188 11.3548 21.5569 12.7167 21.5569 14.3967C21.5569 16.0767 22.9188 17.4386 24.5988 17.4386Z" stroke="black" stroke-width="1.5" stroke-miterlimit="10" stroke-linecap="round" stroke-linejoin="round"/>
<path d="M35.033 28.1607L36.9778 8.92455C37.0402 8.30707 36.5556 7.77094 35.935 7.77094H27.4855" stroke="black" stroke-width="1.5" stroke-miterlimit="10" stroke-linecap="round" stroke-linejoin="round"/>
<path d="M10.7646 31.0261L12.5137 48.3248C12.5678 48.8601 13.0185 49.2676 13.5565 49.2676H31.9515C32.4896 49.2676 32.9402 48.8601 32.9943 48.3248L34.0394 37.9887" stroke="black" stroke-width="1.5" stroke-miterlimit="10" stroke-linecap="round" stroke-linejoin="round"/>
<path d="M24.2795 7.77081H9.57295C8.95234 7.77081 8.46758 8.30704 8.53008 8.92443L10.4435 27.8492" stroke="black" stroke-width="1.5" stroke-miterlimit="10" stroke-linecap="round" stroke-linejoin="round"/>
<path d="M36.4246 14.3967H9.0833" stroke="black" stroke-width="1.5" stroke-miterlimit="10" stroke-linecap="round" stroke-linejoin="round"/>
<path d="M42.3278 20.9241L32.3742 30.8777C32.1548 31.0971 31.8345 31.1819 31.5353 31.0997L31.3572 31.0507C31.058 30.9686 30.7377 31.0534 30.5183 31.2727C30.1812 31.6098 30.1812 32.1564 30.5183 32.4935L34.4492 36.4245C34.7863 36.7616 35.3329 36.7616 35.67 36.4245C35.8895 36.205 35.9742 35.8847 35.892 35.5855L35.8431 35.4075C35.7609 35.1083 35.8456 34.7879 36.065 34.5685L39.3811 31.2525" stroke="black" stroke-width="1.5" stroke-miterlimit="10" stroke-linecap="round" stroke-linejoin="round"/>
<path d="M41.6482 28.9854L47.1502 23.4835" stroke="black" stroke-width="1.5" stroke-miterlimit="10" stroke-linecap="round" stroke-linejoin="round"/>
<path d="M23.3018 48.1758L23.2528 47.9978C23.1707 47.6986 23.2555 47.3783 23.4748 47.1589L32.5933 38.0404C32.8127 37.821 33.133 37.7362 33.4322 37.8184L33.6103 37.8673C33.9095 37.9495 34.2298 37.8648 34.4492 37.6454C34.7863 37.3083 34.7863 36.7617 34.4492 36.4246L30.5183 32.4936C30.1812 32.1565 29.6346 32.1565 29.2975 32.4936C29.078 32.713 28.9933 33.0334 29.0755 33.3326L29.1244 33.5106C29.2065 33.8098 29.1218 34.1301 28.9024 34.3496L19.784 43.468C19.5645 43.6875 19.2442 43.7722 18.945 43.69L18.767 43.6411C18.4678 43.5589 18.1475 43.6436 17.928 43.863C17.5909 44.2002 17.5909 44.7467 17.928 45.0838L21.859 49.0148C22.1961 49.3519 22.7427 49.3519 23.0798 49.0148C23.2991 48.7954 23.3839 48.4751 23.3018 48.1758Z" stroke="black" stroke-width="1.5" stroke-miterlimit="10" stroke-linecap="round" stroke-linejoin="round"/>
<path d="M47.4682 22.9374C47.7253 21.9778 46.7108 20.8722 45.2021 20.468C43.6934 20.0638 42.262 20.514 42.0049 21.4736C41.7478 22.4332 42.7623 23.5388 44.271 23.943C45.7797 24.3472 47.2111 23.897 47.4682 22.9374Z" stroke="black" stroke-width="1.5" stroke-miterlimit="10" stroke-linecap="round" stroke-linejoin="round"/>
<path d="M18.8043 22.633C19.8232 22.633 20.6491 21.8071 20.6491 20.7882C20.6491 19.7693 19.8232 18.9434 18.8043 18.9434C17.7854 18.9434 16.9595 19.7693 16.9595 20.7882C16.9595 21.8071 17.7854 22.633 18.8043 22.633Z" stroke="black" stroke-width="1.5" stroke-miterlimit="10" stroke-linecap="round" stroke-linejoin="round"/>
<path d="M23.7532 31.8503C24.7721 31.8503 25.598 31.0243 25.598 30.0055C25.598 28.9866 24.7721 28.1606 23.7532 28.1606C22.7344 28.1606 21.9084 28.9866 21.9084 30.0055C21.9084 31.0243 22.7344 31.8503 23.7532 31.8503Z" stroke="black" stroke-width="1.5" stroke-miterlimit="10" stroke-linecap="round" stroke-linejoin="round"/>
<path d="M27.8295 20.924H27.4519" stroke="black" stroke-width="1.5" stroke-miterlimit="10" stroke-linecap="round" stroke-linejoin="round"/>
<path d="M15.4175 34.3745H15.0398" stroke="black" stroke-width="1.5" stroke-miterlimit="10" stroke-linecap="round" stroke-linejoin="round"/>
<path d="M18.6154 37.8154H18.2378" stroke="black" stroke-width="1.5" stroke-miterlimit="10" stroke-linecap="round" stroke-linejoin="round"/>
</g>
<defs>
<clipPath id="clip0_2599_2850">
<rect width="50" height="50" fill="white"/>
</clipPath>
</defs>
</svg>
