<svg width="50" height="50" viewBox="0 0 50 50" fill="none" xmlns="http://www.w3.org/2000/svg">
<g clip-path="url(#clip0_2599_2486)">
<path d="M32.1429 12.8571C32.1429 14.0405 31.1834 14.9999 30 14.9999H8.57145C7.38802 14.9999 6.42859 14.0405 6.42859 12.8571C6.42859 11.6737 7.38802 10.7142 8.57145 10.7142H30C31.1834 10.7142 32.1429 11.6737 32.1429 12.8571Z" fill="#ACABB1"/>
<path d="M13.5714 10.7142H8.57145C7.38802 10.7142 6.42859 11.6737 6.42859 12.8571C6.42859 14.0405 7.38802 14.9999 8.57145 14.9999H13.5714V10.7142Z" fill="#BD3C1A"/>
<path d="M30.7143 12.8571L30 7.85712C27.2386 7.85712 25 10.0957 25 12.8571C25 15.6185 27.2386 17.8571 30 17.8571L30.7143 12.8571Z" fill="#CDCDD0"/>
<path d="M37.8572 32.1428H29.2857V7.85712H33.5715L37.8572 20.7143V32.1428Z" fill="#FFDA44"/>
<path d="M36.8486 37.1428C37.498 35.6058 37.8572 33.9163 37.8572 32.1428C37.8572 25.042 32.1009 19.2857 25 19.2857C17.8992 19.2857 12.1429 25.042 12.1429 32.1428C12.1429 33.9163 12.502 35.6058 13.1515 37.1428H36.8486Z" fill="#FFDA44"/>
<path d="M25 37.1428C25 33.8681 25 30.7143 25 19.2857C17.8992 19.2857 12.1429 25.042 12.1429 32.1428C12.1429 33.9163 12.502 35.6058 13.1515 37.1428H25Z" fill="#FFAD41"/>
<path d="M31.9599 37.1428C32.9729 35.7353 33.5714 34.0094 33.5714 32.1428C33.5714 27.409 29.7339 23.5714 25 23.5714C20.2662 23.5714 16.4286 27.409 16.4286 32.1428C16.4286 34.0094 17.027 35.7353 18.0402 37.1428H31.9599Z" fill="#FFE98F"/>
<path d="M25 36.4285C27.3669 36.4285 29.2857 34.5098 29.2857 32.1428C29.2857 29.7759 27.3669 27.8571 25 27.8571C22.6331 27.8571 20.7143 29.7759 20.7143 32.1428C20.7143 34.5098 22.6331 36.4285 25 36.4285Z" fill="#FFDA44"/>
<path d="M25 36.4285C22.6332 36.4285 20.7143 34.5097 20.7143 32.1428C20.7143 29.776 22.6332 27.8571 25 27.8571" fill="#FFAD41"/>
<path d="M12.1429 37.8571C15.2988 37.8571 17.8572 35.2987 17.8572 32.1428C17.8572 28.9869 15.2988 26.4285 12.1429 26.4285C8.98696 26.4285 6.42859 28.9869 6.42859 32.1428C6.42859 35.2987 8.98696 37.8571 12.1429 37.8571Z" fill="#BD3C1A"/>
<path d="M37.8572 37.8571C41.0131 37.8571 43.5714 35.2987 43.5714 32.1428C43.5714 28.9869 41.0131 26.4285 37.8572 26.4285C34.7012 26.4285 32.1429 28.9869 32.1429 32.1428C32.1429 35.2987 34.7012 37.8571 37.8572 37.8571Z" fill="#FF5023"/>
<path d="M47.8571 32.1428H2.14283C0.959398 32.1428 -3.05176e-05 33.1023 -3.05176e-05 34.2857C-3.05176e-05 35.4691 0.959398 36.4285 2.14283 36.4285H3.5714C3.5714 39.5844 6.12983 42.1428 9.28568 42.1428H40.7143C43.8701 42.1428 46.4285 39.5844 46.4285 36.4285H47.8571C49.0405 36.4285 50 35.4691 50 34.2857C50 33.1023 49.0405 32.1428 47.8571 32.1428Z" fill="#91DC5A"/>
<path d="M25 32.1428H2.14283C0.959398 32.1428 -3.05176e-05 33.1023 -3.05176e-05 34.2857C-3.05176e-05 35.4691 0.959398 36.4285 2.14283 36.4285H3.5714C3.5714 39.5844 6.12983 42.1428 9.28568 42.1428H25V32.1428Z" fill="#64C37D"/>
<path d="M33.5714 7.85712V21.4285C33.5714 22.612 34.5309 23.5714 35.7143 23.5714C36.8977 23.5714 37.8572 22.612 37.8572 21.4285V7.85712H33.5714Z" fill="#FFE98F"/>
</g>
<defs>
<clipPath id="clip0_2599_2486">
<rect width="50" height="50" fill="white"/>
</clipPath>
</defs>
</svg>
