<svg width="50" height="50" viewBox="0 0 50 50" fill="none" xmlns="http://www.w3.org/2000/svg">
<path d="M43.7096 16.9723C43.7096 16.9723 41.5615 16.5432 38.8779 16.8359C40.5116 12.7682 39.7095 8.21857 39.7095 8.21857C39.7095 8.21857 34.7413 7.22555 30.4768 9.2895C28.7325 5.32581 25.0255 2.72736 25.0255 2.72736C25.0255 2.72736 21.2737 5.2318 19.5432 9.27427C15.2856 7.2301 10.3415 8.21875 10.3415 8.21875C10.3415 8.21875 9.53947 12.7682 11.1731 16.8361C8.48954 16.5434 6.34138 16.9725 6.34138 16.9725C6.34138 16.9725 4.99646 24.5938 9.3299 28.9274C13.6637 33.2609 21.2849 31.9161 21.2849 31.9161H28.7658C28.7658 31.9161 36.387 33.2609 40.7208 28.9274C45.0544 24.5936 43.7096 16.9723 43.7096 16.9723Z" fill="#C2FB3B"/>
<path d="M25.0255 2.72736C25.0255 2.72736 21.2737 5.2318 19.5432 9.27427C15.2856 7.2301 10.3415 8.21875 10.3415 8.21875C10.3415 8.21875 9.53947 12.7682 11.1731 16.8361C8.48954 16.5434 6.34138 16.9725 6.34138 16.9725C6.34138 16.9725 4.99646 24.5938 9.3299 28.9274C13.6637 33.2609 21.2849 31.9161 21.2849 31.9161H25.0255V2.72736Z" fill="#91DC5A"/>
<path d="M27.8267 27.9381C29.3737 27.9381 30.6279 26.684 30.6279 25.1369C30.6279 23.5899 29.3737 22.3358 27.8267 22.3358V27.9381Z" fill="#FB523B"/>
<path d="M27.8267 22.3357C26.2796 22.3357 25.0255 23.5899 25.0255 25.1369C25.0255 26.684 26.2796 27.9381 27.8267 27.9381L27.8267 22.3357Z" fill="#DC6A5A"/>
<path d="M47.4851 24.1377C47.4851 24.1377 43.2332 24.1378 37.792 24.1377C31.0804 24.1376 32.244 24.1377 32.244 24.1377C32.244 24.1377 31.0723 24.1377 25.0255 24.1376C18.0225 24.1375 20.8237 24.1377 20.8237 24.1377C20.8237 24.1377 19.084 24.1377 11.8572 24.1377C6.29456 24.1377 2.61598 25.1367 2.61598 25.1367C2.61598 25.1367 1.77315 36.3353 8.83146 41.76C13.0544 45.0059 18.0225 44.9999 22.3483 44.9999C23.9374 44.9999 26.5508 44.9999 27.7027 44.9999C32.0285 44.9999 36.9966 45.0059 41.2196 41.76C48.278 36.3355 47.4851 24.1377 47.4851 24.1377Z" fill="#FFAD41"/>
<path d="M25.0255 24.1378C18.3325 24.1378 18.0225 24.1379 18.0225 24.1379C18.0225 24.1379 19.4231 24.1379 12.2591 24.1379C6.81774 24.1377 2.61594 24.1379 2.61594 24.1379C2.61594 24.1379 1.77315 36.3355 8.83146 41.7602C13.0544 45.006 18.0225 45.0001 22.3483 45.0001H25.0255C25.0255 45.0001 25.0255 34.9812 25.0255 24.1378Z" fill="#FF9811"/>
<path d="M16.6219 22.3357C18.169 22.3357 19.4231 21.0816 19.4231 19.5345C19.4231 17.9875 18.169 16.7333 16.6219 16.7333V22.3357Z" fill="#FB523B"/>
<path d="M16.6219 16.7333C15.0749 16.7333 13.8207 17.9874 13.8207 19.5345C13.8207 21.0816 15.0749 22.3357 16.6219 22.3357L16.6219 16.7333Z" fill="#DC6A5A"/>
<path d="M33.4291 16.7333C34.9761 16.7333 36.2303 15.4792 36.2303 13.9321C36.2303 12.3851 34.9761 11.1309 33.4291 11.1309V16.7333Z" fill="#FF5023"/>
<path d="M33.4291 11.1309C31.882 11.1309 30.6279 12.385 30.6279 13.9321C30.6279 15.4791 31.882 16.7333 33.4291 16.7333L33.4291 11.1309Z" fill="#DC6A5A"/>
</svg>
