<svg width="50" height="50" viewBox="0 0 50 50" fill="none" xmlns="http://www.w3.org/2000/svg">
<mask id="mask0_2599_2758" style="mask-type:luminance" maskUnits="userSpaceOnUse" x="0" y="0" width="50" height="50">
<path d="M0 3.8147e-06H50V50H0V3.8147e-06Z" fill="white"/>
</mask>
<g mask="url(#mask0_2599_2758)">
<path d="M36.1483 18.6827C34.0923 18.6827 32.4257 17.0161 32.4257 14.9602C32.4257 12.9043 34.0923 11.2376 36.1483 11.2376C38.2041 11.2376 39.8708 12.9043 39.8708 14.9602C39.8708 17.0161 38.2041 18.6827 36.1483 18.6827ZM36.1483 8.72688C32.7058 8.72688 29.915 11.5176 29.915 14.9602C29.915 18.4028 32.7058 21.1935 36.1483 21.1935C39.5907 21.1935 42.3816 18.4028 42.3816 14.9602C42.3816 11.5176 39.5907 8.72688 36.1483 8.72688Z" fill="#FED2A4"/>
<path d="M39.0625 9.44875C38.1929 8.98792 37.201 8.72688 36.1483 8.72688C32.7058 8.72688 29.915 11.5176 29.915 14.9602C29.915 18.4028 32.7058 21.1935 36.1483 21.1935C39.5907 21.1935 42.3816 18.4028 42.3816 14.9602C42.3816 13.8136 42.072 12.7393 41.5318 11.8163M36.1483 18.6827C34.0923 18.6827 32.4257 17.0161 32.4257 14.9602C32.4257 12.9043 34.0923 11.2376 36.1483 11.2376C38.2041 11.2376 39.8708 12.9043 39.8708 14.9602C39.8708 17.0161 38.2041 18.6827 36.1483 18.6827Z" stroke="black" stroke-width="1.5" stroke-miterlimit="10" stroke-linecap="round" stroke-linejoin="round"/>
<path d="M11.3294 24.7326C9.27341 24.7326 7.6068 23.066 7.6068 21.0101C7.6068 18.9542 9.27341 17.2875 11.3294 17.2875C13.3852 17.2875 15.0519 18.9542 15.0519 21.0101C15.0519 23.066 13.3852 24.7326 11.3294 24.7326ZM11.3294 14.7768C7.88678 14.7768 5.09606 17.5675 5.09606 21.0101C5.09606 24.4527 7.88678 27.2433 11.3294 27.2433C14.7718 27.2433 17.5627 24.4527 17.5627 21.0101C17.5627 17.5675 14.7718 14.7768 11.3294 14.7768Z" fill="#FED2A4"/>
<path d="M11.3294 24.7326C9.27341 24.7326 7.6068 23.066 7.6068 21.0101C7.6068 18.9542 9.27341 17.2875 11.3294 17.2875C13.3852 17.2875 15.0519 18.9542 15.0519 21.0101C15.0519 23.066 13.3852 24.7326 11.3294 24.7326ZM11.3294 14.7768C7.88678 14.7768 5.09606 17.5675 5.09606 21.0101C5.09606 24.4527 7.88678 27.2433 11.3294 27.2433C14.7718 27.2433 17.5627 24.4527 17.5627 21.0101C17.5627 17.5675 14.7718 14.7768 11.3294 14.7768Z" stroke="black" stroke-width="1.5" stroke-miterlimit="10" stroke-linecap="round" stroke-linejoin="round"/>
<path d="M26.9111 18.4143C29.9707 21.4739 34.857 21.5934 38.0593 18.7729C38.2721 18.5855 38.2854 18.2585 38.0849 18.058L27.2675 7.24061C27.067 7.04002 26.74 7.0534 26.5525 7.2661C23.732 10.4684 23.8515 15.3548 26.9111 18.4143Z" fill="#FB2B3A"/>
<path d="M29.6017 19.487C26.6924 16.5777 26.4435 12.0181 28.8507 8.82373L27.2675 7.24053C27.067 7.04004 26.7399 7.05332 26.5524 7.26611C23.7319 10.4685 23.8515 15.3548 26.911 18.4144C28.0868 19.59 29.5325 20.3298 31.0485 20.6372C30.5349 20.3159 30.0483 19.9338 29.6017 19.487Z" fill="#E41F2D"/>
<path d="M26.9111 18.4143C29.9707 21.4739 34.857 21.5934 38.0593 18.7729C38.2721 18.5855 38.2854 18.2585 38.0849 18.058L27.2675 7.24061C27.067 7.04002 26.74 7.0534 26.5525 7.2661C23.732 10.4684 23.8515 15.3548 26.9111 18.4143Z" stroke="black" stroke-width="1.5" stroke-miterlimit="10" stroke-linecap="round" stroke-linejoin="round"/>
<path d="M29.0561 16.1119L29.8431 15.3249" stroke="black" stroke-width="1.5" stroke-miterlimit="10" stroke-linecap="round" stroke-linejoin="round"/>
<path d="M27.7005 12.6166H28.8134" stroke="black" stroke-width="1.5" stroke-miterlimit="10" stroke-linecap="round" stroke-linejoin="round"/>
<path d="M32.4862 17.6249V16.512" stroke="black" stroke-width="1.5" stroke-miterlimit="10" stroke-linecap="round" stroke-linejoin="round"/>
<path d="M21.301 10.8808C24.0164 8.16535 24.1355 3.83674 21.6582 0.979901C21.4724 0.765643 21.1435 0.753924 20.943 0.954412L11.3746 10.5228C11.1741 10.7233 11.1858 11.0522 11.4 11.238C14.2569 13.7153 18.5856 13.5962 21.301 10.8808Z" fill="#FD4755"/>
<path d="M13.2095 9.01447C13.1469 8.96027 13.1038 8.89318 13.076 8.82131L11.3745 10.5228C11.1741 10.7233 11.1859 11.0522 11.4 11.238C14.2569 13.7153 18.5856 13.5962 21.301 10.8808C21.8316 10.3501 22.2616 9.75734 22.594 9.12658C19.8702 11.3773 15.8914 11.3401 13.2095 9.01447Z" fill="#FB2B3A"/>
<path d="M16.3086 5.58873L11.3746 10.5227C11.1741 10.7233 11.1858 11.0522 11.4 11.2379C14.2569 13.7152 18.5855 13.5961 21.301 10.8807C24.0164 8.16529 24.1354 3.83677 21.6582 0.97984C21.4724 0.765583 21.1435 0.753864 20.943 0.954352L18.75 3.14732" stroke="black" stroke-width="1.5" stroke-miterlimit="10" stroke-linecap="round" stroke-linejoin="round"/>
<path d="M19.2473 8.96753L18.5454 8.26558" stroke="black" stroke-width="1.5" stroke-miterlimit="10" stroke-linecap="round" stroke-linejoin="round"/>
<path d="M16.1297 10.1766V9.18396" stroke="black" stroke-width="1.5" stroke-miterlimit="10" stroke-linecap="round" stroke-linejoin="round"/>
<path d="M20.5969 5.90802H19.6041" stroke="black" stroke-width="1.5" stroke-miterlimit="10" stroke-linecap="round" stroke-linejoin="round"/>
<path d="M18.8093 26.1006C18.46 26.1006 18.1192 26.1368 17.7901 26.2052C18.2164 24.9595 17.9152 23.3276 16.8808 21.9665C15.4051 20.0251 12.998 19.3714 11.5046 20.5066C10.1954 21.5017 10.023 23.5409 10.9944 25.3368C9.35233 25.6326 8.08534 26.679 7.8952 28.0743C7.64188 29.933 9.3953 31.7069 11.8116 32.0362C12.5448 32.1362 13.2543 32.0908 13.8947 31.9283C14.2947 34.2816 16.3421 36.0739 18.8093 36.0739C21.5633 36.0739 23.7959 33.8412 23.7959 31.0872C23.7959 28.3332 21.5633 26.1006 18.8093 26.1006Z" fill="#81D261"/>
<path d="M18.8093 26.1006C18.46 26.1006 18.1192 26.1368 17.7901 26.2052C18.2164 24.9595 17.9152 23.3276 16.8808 21.9665C15.4051 20.0251 12.998 19.3714 11.5046 20.5066C10.1954 21.5017 10.023 23.5409 10.9944 25.3368C9.35233 25.6326 8.08534 26.679 7.8952 28.0743C7.64188 29.933 9.3953 31.7069 11.8116 32.0362C12.5448 32.1362 13.2543 32.0908 13.8947 31.9283C14.2947 34.2816 16.3421 36.0739 18.8093 36.0739C21.5633 36.0739 23.7959 33.8412 23.7959 31.0872C23.7959 28.3332 21.5633 26.1006 18.8093 26.1006Z" stroke="black" stroke-width="1.5" stroke-miterlimit="10" stroke-linecap="round" stroke-linejoin="round"/>
<path d="M17.8193 32.8809C17.3567 32.0797 17.4943 31.0361 18.0877 30.0063C15.5983 29.703 13.7247 28.3826 13.7247 26.7995C13.7247 25.6359 14.7377 24.6148 16.2626 24.0346C16.0785 23.8851 15.8988 23.7252 15.7259 23.5523C13.6163 21.4426 13.2381 18.4004 14.8812 16.7573C16.5243 15.1141 19.5666 15.4923 21.6762 17.602C21.8516 17.7775 22.014 17.9598 22.1653 18.1469C22.7455 16.6213 23.7667 15.608 24.9305 15.608C26.5114 15.608 27.8304 17.4762 28.1362 19.9602C29.1641 19.3698 30.2051 19.2337 31.0049 19.6954C32.57 20.5991 32.6179 23.4464 31.1118 26.055C30.1264 27.7617 28.7202 28.943 27.4271 29.3032C27.067 30.5962 25.8856 32.0025 24.179 32.9879C21.5703 34.494 18.7229 34.4461 17.8193 32.8809Z" fill="#017B4E"/>
<path d="M20.9892 32.8809C20.5266 32.0797 20.6642 31.0361 21.2575 30.0063C18.7682 29.703 16.8945 28.3826 16.8945 26.7995C16.8945 25.8078 17.6304 24.9196 18.7918 24.3197C19.0789 24.1713 19.1298 23.7857 18.901 23.5575C18.8993 23.5557 18.8976 23.554 18.8958 23.5523C16.7861 21.4427 16.4079 18.4004 18.0511 16.7573C18.375 16.4333 18.754 16.189 19.169 16.02C17.5745 15.4809 15.9383 15.7001 14.8812 16.7573C13.238 18.4004 13.6162 21.4427 15.7259 23.5523C15.8988 23.7252 16.0784 23.8851 16.2625 24.0346C14.7377 24.6148 13.7246 25.6359 13.7246 26.7995C13.7246 28.3826 15.5983 29.703 18.0877 30.0063C17.4944 31.0361 17.3568 32.0797 17.8194 32.8809C18.4912 34.0448 20.2382 34.3689 22.1623 33.8398C21.6502 33.6404 21.243 33.3205 20.9892 32.8809Z" fill="#026841"/>
<path d="M17.8193 32.8809C17.3567 32.0797 17.4943 31.0361 18.0877 30.0063C15.5983 29.703 13.7247 28.3826 13.7247 26.7995C13.7247 25.6359 14.7377 24.6148 16.2626 24.0346C16.0785 23.8851 15.8988 23.7252 15.7259 23.5523C13.6163 21.4426 13.2381 18.4004 14.8812 16.7573C16.5243 15.1141 19.5666 15.4923 21.6762 17.602C21.8516 17.7775 22.014 17.9598 22.1653 18.1469C22.7455 16.6213 23.7667 15.608 24.9305 15.608C26.5114 15.608 27.8304 17.4762 28.1362 19.9602C29.1641 19.3698 30.2051 19.2337 31.0049 19.6954C32.57 20.5991 32.6179 23.4464 31.1118 26.055C30.1264 27.7617 28.7202 28.943 27.4271 29.3032C27.067 30.5962 25.8856 32.0025 24.179 32.9879C21.5703 34.494 18.7229 34.4461 17.8193 32.8809Z" stroke="black" stroke-width="1.5" stroke-miterlimit="10" stroke-linecap="round" stroke-linejoin="round"/>
<path d="M19.7295 21.6056L29.3528 31.2288" stroke="black" stroke-width="1.5" stroke-miterlimit="10" stroke-linecap="round" stroke-linejoin="round"/>
<path d="M40.8885 32.2576C41.3511 31.4564 41.2135 30.4128 40.6201 29.383C43.1095 29.0797 44.9832 27.7593 44.9832 26.1762C44.9832 25.0126 43.9701 23.9915 42.4452 23.4113C42.6294 23.2618 42.809 23.1019 42.9818 22.929C45.0915 20.8193 45.4697 17.7771 43.8266 16.134C42.1835 14.4908 39.1413 14.8691 37.0315 16.9787C36.8561 17.1542 36.6938 17.3365 36.5425 17.5236C35.9623 15.9981 34.9411 14.9846 33.7772 14.9846C32.1964 14.9846 30.8773 16.8529 30.5716 19.3369C29.5437 18.7465 28.5026 18.6104 27.7029 19.0721C26.1378 19.9757 26.0898 22.8231 27.596 25.4318C28.5813 27.1384 29.9876 28.3197 31.2806 28.6799C31.6408 29.9729 32.8221 31.3792 34.5288 32.3646C37.1375 33.8707 39.9848 33.8228 40.8885 32.2576Z" fill="#68CA44"/>
<path d="M40.8885 32.2576C41.3511 31.4564 41.2135 30.4128 40.6201 29.383C43.1095 29.0797 44.9832 27.7593 44.9832 26.1762C44.9832 25.0126 43.9701 23.9915 42.4452 23.4113C42.6294 23.2618 42.809 23.1019 42.9818 22.929C45.0915 20.8193 45.4697 17.7771 43.8266 16.134C42.1835 14.4908 39.1413 14.8691 37.0315 16.9787C36.8561 17.1542 36.6938 17.3365 36.5425 17.5236C35.9623 15.9981 34.9411 14.9846 33.7772 14.9846C32.1964 14.9846 30.8773 16.8529 30.5716 19.3369C29.5437 18.7465 28.5026 18.6104 27.7029 19.0721C26.1378 19.9757 26.0898 22.8231 27.596 25.4318C28.5813 27.1384 29.9876 28.3197 31.2806 28.6799C31.6408 29.9729 32.8221 31.3792 34.5288 32.3646C37.1375 33.8707 39.9848 33.8228 40.8885 32.2576Z" stroke="black" stroke-width="1.5" stroke-miterlimit="10" stroke-linecap="round" stroke-linejoin="round"/>
<path d="M38.9782 20.9823L29.355 30.6055" stroke="black" stroke-width="1.5" stroke-miterlimit="10" stroke-linecap="round" stroke-linejoin="round"/>
<path d="M30.0403 32.8766C33.0786 35.9149 37.9257 36.0422 41.1154 33.2583C41.3432 33.0595 41.3564 32.7094 41.1426 32.4955L30.4216 21.7744C30.2077 21.5606 29.8575 21.5737 29.6587 21.8016C26.8748 24.9914 27.002 29.8384 30.0403 32.8766Z" fill="white"/>
<path d="M30.0403 32.8766C33.0786 35.9149 37.9257 36.0422 41.1154 33.2583C41.3432 33.0595 41.3564 32.7094 41.1426 32.4955L30.4216 21.7744C30.2077 21.5606 29.8575 21.5737 29.6587 21.8016C26.8748 24.9914 27.002 29.8384 30.0403 32.8766Z" stroke="black" stroke-width="1.5" stroke-miterlimit="10" stroke-linecap="round" stroke-linejoin="round"/>
<path d="M32.7471 30.1698C34.4233 31.846 37.1408 31.846 38.817 30.1698L32.7471 24.1C31.071 25.7762 31.071 28.4936 32.7471 30.1698Z" fill="#FDDF30"/>
<path d="M34.3599 30.1699C32.9631 28.773 32.7314 26.6534 33.6626 25.0156L32.7471 24.1001C31.071 25.7761 31.071 28.4937 32.7471 30.1699C33.7912 31.214 35.2395 31.6074 36.5884 31.3507C35.7719 31.1953 34.9919 30.8018 34.3599 30.1699Z" fill="#FED402"/>
<path d="M32.7471 30.1698C34.4233 31.846 37.1408 31.846 38.817 30.1698L32.7471 24.1C31.071 25.7762 31.071 28.4936 32.7471 30.1698Z" stroke="black" stroke-width="1.5" stroke-miterlimit="10" stroke-linecap="round" stroke-linejoin="round"/>
<path d="M23.1609 34.6647C21.105 34.6647 19.4384 32.9981 19.4384 30.9422C19.4384 28.8863 21.105 27.2196 23.1609 27.2196C25.2169 27.2196 26.8835 28.8863 26.8835 30.9422C26.8835 32.9981 25.2169 34.6647 23.1609 34.6647ZM23.1609 24.7089C19.7185 24.7089 16.9276 27.4996 16.9276 30.9422C16.9276 34.3847 19.7185 37.1754 23.1609 37.1754C26.6034 37.1754 29.3942 34.3847 29.3942 30.9422C29.3942 27.4996 26.6034 24.7089 23.1609 24.7089Z" fill="#FED2A4"/>
<path d="M23.1609 34.6647C21.105 34.6647 19.4384 32.9981 19.4384 30.9422C19.4384 28.8863 21.105 27.2196 23.1609 27.2196C25.2169 27.2196 26.8835 28.8863 26.8835 30.9422C26.8835 32.9981 25.2169 34.6647 23.1609 34.6647ZM23.1609 24.7089C19.7185 24.7089 16.9276 27.4996 16.9276 30.9422C16.9276 34.3847 19.7185 37.1754 23.1609 37.1754C26.6034 37.1754 29.3942 34.3847 29.3942 30.9422C29.3942 27.4996 26.6034 24.7089 23.1609 24.7089Z" stroke="black" stroke-width="1.5" stroke-miterlimit="10" stroke-linecap="round" stroke-linejoin="round"/>
<path d="M17.691 49.2676H31.5632C31.7524 49.2676 31.9405 49.2324 32.1154 49.1602C38.9474 46.3394 43.8399 39.7748 44.236 32.0227C44.2644 31.4676 43.8161 31.0041 43.2603 31.0041H5.99397C5.43821 31.0041 4.98987 31.4676 5.01829 32.0227C5.41448 39.7748 10.307 46.3394 17.139 49.1602C17.3138 49.2324 17.5019 49.2676 17.691 49.2676Z" fill="#D8ECFE"/>
<path d="M8.73027 32.0226C8.70185 31.4675 9.15009 31.004 9.70595 31.004H5.99384C5.43808 31.004 4.98974 31.4675 5.01816 32.0226C5.41425 39.7747 10.3068 46.3393 17.1389 49.1602C17.3137 49.2324 17.5018 49.2675 17.6909 49.2675H21.403C21.2139 49.2675 21.0258 49.2324 20.851 49.1602C14.0189 46.3393 9.12646 39.7747 8.73027 32.0226Z" fill="#C4E2FF"/>
<path d="M43.2604 31.0041H5.99405C5.43828 31.0041 4.98994 31.4676 5.01836 32.0227C5.08086 33.247 5.25596 34.4417 5.53272 35.5967H43.7217C43.9984 34.4417 44.1735 33.247 44.236 32.0227C44.2645 31.4676 43.8161 31.0041 43.2604 31.0041Z" fill="#EAF6FF"/>
<path d="M5.01813 32.0226C5.08073 33.247 5.25573 34.4417 5.53259 35.5967H9.2447C8.96784 34.4417 8.79284 33.247 8.73024 32.0226C8.70192 31.4675 9.15016 31.0041 9.70593 31.0041H5.99382C5.43806 31.0041 4.98972 31.4675 5.01813 32.0226Z" fill="#D8ECFE"/>
<path d="M36.2305 35.5967H43.7215" stroke="black" stroke-width="1.5" stroke-miterlimit="10" stroke-linecap="round" stroke-linejoin="round"/>
<path d="M5.53255 35.5967H32.7149" stroke="black" stroke-width="1.5" stroke-miterlimit="10" stroke-linecap="round" stroke-linejoin="round"/>
<path d="M17.691 49.2676H31.5632C31.7524 49.2676 31.9405 49.2324 32.1154 49.1602C38.9474 46.3394 43.8399 39.7748 44.236 32.0227C44.2644 31.4676 43.8161 31.0041 43.2603 31.0041H5.99397C5.43821 31.0041 4.98987 31.4676 5.01829 32.0227C5.41448 39.7748 10.307 46.3394 17.139 49.1602C17.3138 49.2324 17.5019 49.2676 17.691 49.2676Z" stroke="black" stroke-width="1.5" stroke-miterlimit="10" stroke-linecap="round" stroke-linejoin="round"/>
<path d="M36.9551 5.21223C37.1914 5.14885 37.3458 4.92014 37.3136 4.67756C37.1857 3.71291 36.7516 2.78117 36.0104 2.03996C35.2691 1.29875 34.3373 0.864569 33.3727 0.736639C33.1302 0.70451 32.9015 0.858807 32.8381 1.09523L31.55 5.90226C31.4528 6.26535 31.785 6.59758 32.148 6.50021L36.9551 5.21223Z" fill="#FD9A01"/>
<path d="M33.6853 5.9023L34.9345 1.23989C34.4427 0.976124 33.9129 0.808351 33.3727 0.736671C33.1301 0.704445 32.9015 0.858839 32.8381 1.09517L31.55 5.9023C31.4528 6.26528 31.785 6.59751 32.148 6.50024L33.6726 6.09175C33.6648 6.03101 33.6679 5.96724 33.6853 5.9023Z" fill="#FB8801"/>
<path d="M36.9551 5.21223C37.1914 5.14885 37.3458 4.92014 37.3136 4.67756C37.1857 3.71291 36.7516 2.78117 36.0104 2.03996C35.2691 1.29875 34.3373 0.864569 33.3727 0.736639C33.1302 0.70451 32.9015 0.858807 32.8381 1.09523L31.55 5.90226C31.4528 6.26535 31.785 6.59758 32.148 6.50021L36.9551 5.21223Z" stroke="black" stroke-width="1.5" stroke-miterlimit="10" stroke-linecap="round" stroke-linejoin="round"/>
</g>
</svg>
