<svg width="14" height="14" viewBox="0 0 14 14" fill="currentColor" xmlns="http://www.w3.org/2000/svg">
<path d="M2.33331 8.16667C2.33331 7.14583 2.57637 6.23681 3.06248 5.43958C3.54859 4.64236 4.08331 3.97153 4.66665 3.42708C5.24998 2.88264 5.7847 2.46692 6.27081 2.17992L6.99998 1.75V3.675C6.99998 4.03472 7.12151 4.319 7.36456 4.52783C7.60762 4.73667 7.87984 4.84128 8.18123 4.84167C8.34651 4.84167 8.50459 4.80764 8.65548 4.73958C8.80637 4.67153 8.94481 4.55972 9.07081 4.40417L9.33331 4.08333C10.0333 4.49167 10.5972 5.05789 11.025 5.782C11.4528 6.50611 11.6666 7.301 11.6666 8.16667C11.6666 9.02222 11.4576 9.80253 11.0396 10.5076C10.6215 11.2126 10.0722 11.7689 9.39165 12.1765C9.55692 11.9432 9.68584 11.6879 9.7784 11.4106C9.87095 11.1333 9.91703 10.8395 9.91665 10.5292C9.91665 10.1403 9.84373 9.77317 9.6979 9.42783C9.55206 9.0825 9.34303 8.77392 9.07081 8.50208L6.99998 6.475L4.94373 8.50208C4.66179 8.78403 4.4479 9.09514 4.30206 9.43542C4.15623 9.77569 4.08331 10.1403 4.08331 10.5292C4.08331 10.8403 4.12959 11.1345 4.22215 11.4117C4.3147 11.689 4.44342 11.9441 4.60831 12.1771C3.92776 11.7687 3.37845 11.2121 2.9604 10.507C2.54234 9.80194 2.33331 9.02183 2.33331 8.16667ZM6.99998 8.10833L8.23956 9.31875C8.40484 9.48403 8.53123 9.66875 8.61873 9.87292C8.70623 10.0771 8.74998 10.2958 8.74998 10.5292C8.74998 11.0056 8.57984 11.4114 8.23956 11.7466C7.89929 12.0818 7.48609 12.2496 6.99998 12.25C6.51387 12.25 6.10067 12.0822 5.7604 11.7466C5.42012 11.411 5.24998 11.0052 5.24998 10.5292C5.24998 10.3056 5.29373 10.0891 5.38123 9.87992C5.46873 9.67069 5.59512 9.48364 5.7604 9.31875L6.99998 8.10833Z" fill="#303030"/>
</svg>
