<svg width="14" height="14" viewBox="0 0 14 14" fill="currentColor" xmlns="http://www.w3.org/2000/svg">
<path d="M12.2199 2.19133C12.2137 2.0843 12.1684 1.98329 12.0925 1.90748C12.0167 1.83167 11.9157 1.78633 11.8087 1.78008C7.64533 1.53563 4.31049 2.78906 2.88861 5.14063C2.39575 5.94503 2.15288 6.87769 2.1908 7.82031C2.21555 8.4231 2.3382 9.01785 2.55393 9.58125C2.5666 9.61593 2.58785 9.64683 2.61568 9.67108C2.64352 9.69533 2.67704 9.71214 2.71312 9.71995C2.74921 9.72775 2.78668 9.7263 2.82205 9.71572C2.85742 9.70515 2.88954 9.68579 2.91541 9.65946L7.56385 4.93992C7.6045 4.89928 7.65275 4.86703 7.70586 4.84503C7.75897 4.82303 7.81589 4.81171 7.87338 4.81171C7.93086 4.81171 7.98779 4.82303 8.0409 4.84503C8.09401 4.86703 8.14226 4.89928 8.18291 4.93992C8.22356 4.98057 8.2558 5.02883 8.2778 5.08194C8.2998 5.13505 8.31112 5.19197 8.31112 5.24946C8.31112 5.30694 8.2998 5.36386 8.2778 5.41697C8.2558 5.47008 8.22356 5.51834 8.18291 5.55899L3.10299 10.7155L2.32697 11.4915C2.24627 11.5701 2.19809 11.6761 2.19201 11.7886C2.18593 11.9011 2.2224 12.0117 2.29416 12.0985C2.33346 12.144 2.38173 12.181 2.43594 12.207C2.49015 12.233 2.54914 12.2476 2.60923 12.2498C2.66933 12.252 2.72923 12.2418 2.7852 12.2198C2.84118 12.1978 2.89202 12.1645 2.93455 12.122L3.85275 11.2038C4.62604 11.5779 5.40643 11.7819 6.18025 11.8092C6.24114 11.8114 6.30184 11.8125 6.36236 11.8125C7.2436 11.8148 8.10812 11.572 8.85939 11.1114C11.211 9.68953 12.4649 6.35524 12.2199 2.19133Z" fill="#303030"/>
</svg>
