<svg width="19" height="16" viewBox="0 0 19 16" fill="none" xmlns="http://www.w3.org/2000/svg">
<path d="M2.35156 10.3145L3.00391 10.9669L2.35156 11.6153L1.70312 10.9669L2.35156 10.3145ZM2.39844 14.627C2.79688 14.627 3.10807 14.5632 3.33203 14.4356C3.55859 14.308 3.71875 14.1362 3.8125 13.92C3.90625 13.7039 3.95312 13.4656 3.95312 13.2052C3.95312 12.9109 3.90885 12.6153 3.82031 12.3185C3.73177 12.019 3.63932 11.7481 3.54297 11.506L4.44531 11.1583C4.58333 11.5281 4.68229 11.8757 4.74219 12.2013C4.80469 12.5268 4.83594 12.8497 4.83594 13.17C4.83594 13.657 4.74609 14.0815 4.56641 14.4435C4.38672 14.808 4.11589 15.0893 3.75391 15.2872C3.39453 15.4877 2.94271 15.588 2.39844 15.588C1.83854 15.588 1.38151 15.4825 1.02734 15.2716C0.673177 15.0606 0.41276 14.7755 0.246094 14.4161C0.0820312 14.0567 0 13.6557 0 13.213C0 12.9135 0.03125 12.6062 0.09375 12.2911C0.158854 11.9734 0.25 11.6609 0.367188 11.3536L1.19141 11.6739C1.10547 11.9369 1.03125 12.1987 0.96875 12.4591C0.908854 12.7169 0.878906 12.9617 0.878906 13.1935C0.878906 13.4539 0.925781 13.6921 1.01953 13.9083C1.11328 14.127 1.26953 14.3015 1.48828 14.4317C1.70964 14.5619 2.01302 14.627 2.39844 14.627Z" fill="currentColor"/>
<path d="M5.73828 8.38095H6.65625V12.0528C6.65625 12.3653 6.70573 12.5828 6.80469 12.7052C6.90365 12.8276 7.08333 12.8888 7.34375 12.8888H7.4375V13.8614H7.34375C6.79427 13.8614 6.38932 13.7182 6.12891 13.4317C5.86849 13.1427 5.73828 12.7026 5.73828 12.1114V8.38095Z" fill="currentColor"/>
<path d="M9.83984 11.7442C9.72266 11.7442 9.61719 11.7833 9.52344 11.8614C9.42969 11.9395 9.34635 12.0359 9.27344 12.1505C9.20312 12.2651 9.14062 12.3783 9.08594 12.4903C9.16406 12.5658 9.23958 12.6323 9.3125 12.6895C9.38802 12.7442 9.45833 12.7924 9.52344 12.8341C9.625 12.8914 9.71745 12.933 9.80078 12.9591C9.88672 12.9851 9.96224 12.9981 10.0273 12.9981C10.1888 12.9981 10.3047 12.9487 10.375 12.8497C10.4479 12.7507 10.4844 12.6257 10.4844 12.4747C10.4844 12.269 10.4271 12.0958 10.3125 11.9552C10.2005 11.8145 10.043 11.7442 9.83984 11.7442ZM10.0273 13.9513C9.85026 13.9513 9.68099 13.9252 9.51953 13.8731C9.36068 13.8211 9.20443 13.7481 9.05078 13.6544C8.89974 13.558 8.7474 13.4461 8.59375 13.3185C8.49479 13.4252 8.39453 13.519 8.29297 13.5997C8.19401 13.6804 8.07943 13.7442 7.94922 13.7911C7.81901 13.838 7.65625 13.8614 7.46094 13.8614H7.29688V12.8888H7.44141C7.58724 12.8888 7.71354 12.8393 7.82031 12.7403C7.92969 12.6414 8.03125 12.5125 8.125 12.3536C8.22135 12.1948 8.31901 12.0281 8.41797 11.8536C8.51953 11.6765 8.63281 11.5086 8.75781 11.3497C8.88281 11.1908 9.02995 11.0619 9.19922 10.963C9.37109 10.864 9.57552 10.8145 9.8125 10.8145C10.125 10.8145 10.3958 10.8901 10.625 11.0411C10.8568 11.1895 11.0352 11.3875 11.1602 11.6349C11.2878 11.8796 11.3516 12.1492 11.3516 12.4435C11.3516 12.7403 11.3008 13.002 11.1992 13.2286C11.1003 13.4552 10.9531 13.6323 10.7578 13.7599C10.5625 13.8875 10.319 13.9513 10.0273 13.9513Z" fill="currentColor"/>
<path d="M13.4609 10.713C13.7031 10.713 13.9167 10.769 14.1016 10.881C14.2865 10.9903 14.444 11.144 14.5742 11.3419C14.707 11.5398 14.8099 11.7716 14.8828 12.0372C14.9557 12.3002 15 12.5841 15.0156 12.8888H15.3711V13.8614H14.9453C14.862 14.2208 14.7174 14.5411 14.5117 14.8224C14.306 15.1036 14.0273 15.3406 13.6758 15.5333C13.3268 15.7286 12.8919 15.877 12.3711 15.9786L12.043 15.0919C12.3945 15.0242 12.7109 14.933 12.9922 14.8185C13.2734 14.7039 13.5065 14.5658 13.6914 14.4044C13.8789 14.2455 14.0039 14.0645 14.0664 13.8614H13.6055C13.0924 13.8614 12.7031 13.756 12.4375 13.545C12.1745 13.3315 12.043 12.9955 12.043 12.5372C12.043 12.3419 12.0716 12.1375 12.1289 11.9239C12.1862 11.7104 12.2734 11.5125 12.3906 11.3302C12.5078 11.1453 12.6549 10.9968 12.832 10.8849C13.0117 10.7703 13.2214 10.713 13.4609 10.713ZM13.5898 12.8888H14.1602C14.1471 12.7273 14.1237 12.5737 14.0898 12.4278C14.0586 12.2794 14.0143 12.1492 13.957 12.0372C13.9023 11.9226 13.8333 11.8328 13.75 11.7677C13.6667 11.7026 13.5677 11.67 13.4531 11.67C13.3151 11.67 13.2057 11.7195 13.125 11.8185C13.0443 11.9148 12.987 12.0281 12.9531 12.1583C12.9193 12.2885 12.9023 12.4031 12.9023 12.502C12.9023 12.6583 12.9622 12.7625 13.082 12.8145C13.2018 12.864 13.3711 12.8888 13.5898 12.8888Z" fill="currentColor"/>
<path d="M15.2188 12.8888H15.4961V13.8614H15.2188V12.8888ZM16.9453 8.91611L17.5664 9.53329L16.9453 10.1583L16.3242 9.53329L16.9453 8.91611ZM15.6328 8.91611L16.2578 9.53329L15.6328 10.1583L15.0156 9.53329L15.6328 8.91611ZM15.8281 13.8614H15.3945V12.8888H15.8203C16.0938 12.8888 16.2904 12.8354 16.4102 12.7286C16.5299 12.6218 16.5898 12.4435 16.5898 12.1935C16.5898 12.0502 16.5742 11.8666 16.543 11.6427C16.5143 11.4161 16.4648 11.1687 16.3945 10.9005L17.2734 10.6661C17.3385 10.9083 17.3867 11.1518 17.418 11.3966C17.4492 11.6388 17.4648 11.8679 17.4648 12.0841C17.4648 12.4382 17.4154 12.7481 17.3164 13.0138C17.2174 13.2794 17.0482 13.4877 16.8086 13.6388C16.5716 13.7872 16.2448 13.8614 15.8281 13.8614Z" fill="currentColor"/>
<path d="M6.43587 7.60156L6.09993 6.71484C6.49316 6.62891 6.82259 6.50911 7.08821 6.35547C7.35384 6.20443 7.55436 6.00911 7.68978 5.76953C7.82519 5.53255 7.8929 5.24479 7.8929 4.90625C7.8929 4.67448 7.86035 4.42057 7.79525 4.14453C7.73014 3.86849 7.65462 3.60417 7.56868 3.35156L8.46712 3.05469C8.56608 3.33073 8.6403 3.61979 8.68978 3.92188C8.74186 4.22396 8.7679 4.51562 8.7679 4.79688C8.7679 5.30208 8.67676 5.74609 8.49446 6.12891C8.31217 6.51432 8.04655 6.83073 7.69759 7.07812C7.34863 7.32812 6.92806 7.5026 6.43587 7.60156Z" fill="currentColor"/>
<path d="M10.5843 0V5.47656H9.67025V0H10.5843Z" fill="currentColor"/>
<path d="M12.2171 1.12891L12.8695 1.78125L12.2171 2.42969L11.5687 1.78125L12.2171 1.12891ZM13.6859 5.48047C13.5452 5.48047 13.4202 5.46354 13.3109 5.42969C13.2015 5.39583 13.1117 5.35677 13.0413 5.3125C12.984 5.6875 12.863 6.03125 12.6781 6.34375C12.4958 6.65885 12.2445 6.92318 11.9242 7.13672C11.6038 7.35286 11.2093 7.50651 10.7406 7.59766L10.4124 6.71484C10.8057 6.62891 11.1351 6.50911 11.4007 6.35547C11.6663 6.20443 11.8669 6.00911 12.0023 5.76953C12.1377 5.53255 12.2054 5.24479 12.2054 4.90625C12.2054 4.67448 12.1728 4.42057 12.1077 4.14453C12.0426 3.86849 11.9671 3.60417 11.8812 3.35156L12.7796 3.05469L12.9984 3.91406C13.0478 4.10156 13.1221 4.2474 13.221 4.35156C13.3226 4.45573 13.4632 4.50781 13.6429 4.50781H13.7874V5.48047H13.6859Z" fill="currentColor"/>
<path d="M15.1077 3.53125C15.1077 3.63021 15.1377 3.72656 15.1976 3.82031C15.2575 3.91406 15.3382 3.9987 15.4398 4.07422C15.5413 4.14974 15.6533 4.20964 15.7757 4.25391C15.8825 4.21745 15.9827 4.16667 16.0765 4.10156C16.1729 4.03646 16.2523 3.95964 16.3148 3.87109C16.3773 3.77995 16.4085 3.68359 16.4085 3.58203C16.4085 3.45964 16.3799 3.35026 16.3226 3.25391C16.2653 3.15755 16.1898 3.08203 16.096 3.02734C16.0023 2.97005 15.8981 2.94141 15.7835 2.94141C15.596 2.94141 15.4359 2.9974 15.3031 3.10938C15.1728 3.22135 15.1077 3.36198 15.1077 3.53125ZM15.6507 2.25L16.0648 1.44922C16.5439 1.67839 16.9658 1.89062 17.3304 2.08594C17.695 2.27865 18.001 2.46745 18.2484 2.65234C18.4958 2.83724 18.682 3.02995 18.807 3.23047C18.932 3.43099 18.9945 3.65495 18.9945 3.90234C18.9945 4.40495 18.8421 4.78776 18.5374 5.05078C18.2327 5.3112 17.8265 5.44141 17.3187 5.44141C17.1364 5.44141 16.945 5.42578 16.7445 5.39453C16.5465 5.36328 16.3564 5.32552 16.1742 5.28125C15.9945 5.23438 15.8395 5.1901 15.7093 5.14844C15.4749 5.23177 15.2067 5.30859 14.9046 5.37891C14.6051 5.44661 14.3122 5.48047 14.0257 5.48047H13.6468V4.50781H13.9749C14.0947 4.50781 14.2028 4.50651 14.2992 4.50391C14.3981 4.4987 14.501 4.49089 14.6077 4.48047C14.5296 4.39974 14.4645 4.30729 14.4124 4.20312C14.3603 4.09896 14.32 3.98958 14.2913 3.875C14.2627 3.75781 14.2484 3.64583 14.2484 3.53906C14.2484 3.29427 14.3083 3.06771 14.4281 2.85938C14.5478 2.65104 14.7184 2.48307 14.9398 2.35547C15.1611 2.22526 15.4255 2.16016 15.7327 2.16016C15.9697 2.16016 16.1976 2.21745 16.4163 2.33203C16.6377 2.44661 16.8174 2.60156 16.9554 2.79688C17.096 2.99219 17.1663 3.21224 17.1663 3.45703C17.1663 3.60286 17.1494 3.73828 17.1156 3.86328C17.0817 3.98568 17.0322 4.09896 16.9671 4.20312C16.902 4.30729 16.8252 4.40495 16.7367 4.49609C16.8564 4.51432 16.9775 4.52865 17.0999 4.53906C17.2223 4.54948 17.3187 4.55469 17.389 4.55469C17.6025 4.55469 17.7796 4.50781 17.9202 4.41406C18.0635 4.32031 18.1351 4.15755 18.1351 3.92578C18.1351 3.86068 18.1077 3.78776 18.0531 3.70703C18.001 3.6263 17.9163 3.53646 17.7992 3.4375C17.6846 3.33854 17.5309 3.23047 17.3382 3.11328C17.1481 2.99609 16.9137 2.86589 16.6351 2.72266C16.3564 2.57943 16.0283 2.42188 15.6507 2.25Z" fill="currentColor"/>
</svg>
