<svg width="18" height="18" viewBox="0 0 18 18" fill="none" xmlns="http://www.w3.org/2000/svg">
<path d="M4.5 6H5.5H13.5" stroke="#0F2C30" stroke-linecap="round" stroke-linejoin="round"/>
<path d="M12.5 6V13C12.5 13.2652 12.3946 13.5196 12.2071 13.7071C12.0196 13.8946 11.7652 14 11.5 14H6.5C6.23478 14 5.98043 13.8946 5.79289 13.7071C5.60536 13.5196 5.5 13.2652 5.5 13V6M7 6V5C7 4.73478 7.10536 4.48043 7.29289 4.29289C7.48043 4.10536 7.73478 4 8 4H10C10.2652 4 10.5196 4.10536 10.7071 4.29289C10.8946 4.48043 11 4.73478 11 5V6" stroke="#0F2C30" stroke-linecap="round" stroke-linejoin="round"/>
<path d="M8 8.5V11.5" stroke="#0F2C30" stroke-linecap="round" stroke-linejoin="round"/>
<path d="M10 8.5V11.5" stroke="#0F2C30" stroke-linecap="round" stroke-linejoin="round"/>
</svg>
