<svg width="1207" height="2484" viewBox="0 0 1207 2484" fill="none" xmlns="http://www.w3.org/2000/svg">
<g filter="url(#filter0_i_657_1838)">
<path fill-rule="evenodd" clip-rule="evenodd" d="M15.0143 179.755C15.0143 81.686 94.5151 2.18494 192.584 2.18494H1014.97C1113.04 2.18494 1192.54 81.6857 1192.54 179.755V2304.24C1192.54 2402.31 1113.04 2481.81 1014.97 2481.81H192.584C94.515 2481.81 15.0143 2402.31 15.0143 2304.24V179.755Z" fill="black"/>
<path d="M11.7969 169.678C11.7969 75.9672 87.7641 0 181.474 0H1026.08C1119.79 0 1195.76 75.9672 1195.76 169.678V2314.32C1195.76 2408.03 1119.79 2484 1026.08 2484H181.474C87.7641 2484 11.7969 2408.03 11.7969 2314.32V169.678Z" fill="black" fill-opacity="0.01"/>
</g>
<path d="M192.584 4.15994H1014.97C1111.95 4.15994 1190.57 82.7765 1190.57 179.755V2304.24C1190.57 2401.22 1111.95 2479.84 1014.97 2479.84H192.584C95.6058 2479.84 16.9893 2401.22 16.9893 2304.24V179.755C16.9893 82.7768 95.6059 4.15994 192.584 4.15994ZM13.9786 161.277C17.9464 80.849 78.5736 15.3229 156.778 3.78069C80.6613 19.1851 22.0083 82.7373 13.9786 161.277ZM156.803 2480.22C78.5856 2468.69 17.9454 2403.16 13.9785 2322.72C22.0085 2401.27 80.6738 2464.83 156.803 2480.22ZM1193.58 2322.72C1189.61 2403.16 1128.97 2468.69 1050.76 2480.22C1126.88 2464.83 1185.55 2401.27 1193.58 2322.72ZM1050.78 3.78096C1128.98 15.3237 1189.61 80.8469 1193.58 161.272C1185.55 82.7348 1126.9 19.1855 1050.78 3.78096Z" stroke="url(#paint0_linear_657_1838)" stroke-width="3.95"/>
<path fill-rule="evenodd" clip-rule="evenodd" d="M59.2554 192.055V2293.95C59.2554 2374.06 92.4998 2439 172.611 2439H1033.39C1113.5 2439 1146.91 2374.06 1146.91 2293.95V192.055C1146.91 111.943 1119.5 47 1006.35 47L213.81 47C88.9998 47 59.2554 111.943 59.2554 192.055Z" fill="#EDFDFF"/>
<path d="M411.143 272.761V367.981C411.143 383.626 423.825 396.308 439.47 396.308H766.694C782.338 396.308 795.02 383.626 795.02 367.981V272.761C795.02 257.117 782.338 244.435 766.694 244.435H439.47C423.825 244.435 411.143 257.117 411.143 272.761Z" fill="#94D9E2"/>
<path d="M109.019 113.295C109.019 97.6503 121.701 84.9682 137.346 84.9682H1068.82C1084.46 84.9682 1097.15 97.6504 1097.15 113.295V292.045C1097.15 307.689 1084.46 320.371 1068.82 320.371H137.346C121.701 320.371 109.019 307.689 109.019 292.045V113.295Z" fill="#0F2C30"/>
<path d="M109.019 549.929C109.019 534.285 121.701 521.603 137.346 521.603H1068.82C1084.46 521.603 1097.15 534.285 1097.15 549.929V823.6C1097.15 839.244 1084.46 851.927 1068.82 851.927H137.346C121.701 851.927 109.019 839.244 109.019 823.6V549.929Z" fill="#0F2C30"/>
<path d="M684.834 580.304V793.226C684.834 808.87 697.517 821.553 713.161 821.553H1040.39C1056.03 821.553 1068.71 808.87 1068.71 793.226V580.304C1068.71 564.66 1056.03 551.978 1040.39 551.978H713.161C697.517 551.978 684.834 564.66 684.834 580.304Z" fill="#94D9E2"/>
<path d="M300.956 576.657C300.956 567.221 308.605 559.571 318.042 559.571H639.312C648.748 559.571 656.398 567.221 656.398 576.657C656.398 586.093 648.748 593.743 639.312 593.743H318.042C308.605 593.743 300.956 586.093 300.956 576.657Z" fill="#94D9E2"/>
<path d="M183.662 633.609C183.662 628.367 187.911 624.117 193.154 624.117H646.907C652.149 624.117 656.399 628.367 656.399 633.609C656.399 638.852 652.149 643.102 646.907 643.102H193.154C187.911 643.102 183.662 638.852 183.662 633.609Z" fill="#94D9E2"/>
<path d="M290.293 667.781C290.293 662.539 294.542 658.289 299.785 658.289H646.906C652.148 658.289 656.398 662.539 656.398 667.781C656.398 673.023 652.148 677.273 646.906 677.273H299.785C294.542 677.273 290.293 673.023 290.293 667.781Z" fill="#94D9E2"/>
<path d="M485.788 771.682C485.788 767.771 488.958 764.6 492.869 764.6H649.318C653.229 764.6 656.4 767.771 656.4 771.682V814.471C656.4 818.382 653.229 821.553 649.318 821.553H492.869C488.958 821.553 485.788 818.382 485.788 814.471V771.682Z" fill="#94D9E2"/>
<path d="M137.454 771.682C137.454 767.771 140.624 764.6 144.535 764.6H155.253C159.164 764.6 162.335 767.771 162.335 771.682V814.471C162.335 818.382 159.164 821.553 155.253 821.553H144.535C140.624 821.553 137.454 818.382 137.454 814.471V771.682Z" fill="#94D9E2"/>
<path d="M172.996 771.682C172.996 767.771 176.167 764.6 180.078 764.6H226.34C230.251 764.6 233.421 767.771 233.421 771.682V780.299C233.421 784.211 230.251 787.381 226.34 787.381H180.078C176.167 787.381 172.996 784.211 172.996 780.299V771.682Z" fill="#94D9E2"/>
<path d="M172.996 805.853C172.996 801.942 176.167 798.772 180.078 798.772H226.34C230.251 798.772 233.421 801.942 233.421 805.853V814.471C233.421 818.382 230.251 821.553 226.34 821.553H180.078C176.167 821.553 172.996 818.382 172.996 814.471V805.853Z" fill="#94D9E2"/>
<path d="M109.019 933.409C109.019 917.765 121.701 905.082 137.346 905.082H1068.82C1084.46 905.082 1097.15 917.765 1097.15 933.409V1207.08C1097.15 1222.72 1084.46 1235.41 1068.82 1235.41H137.346C121.701 1235.41 109.019 1222.72 109.019 1207.08V933.409Z" fill="#0F2C30"/>
<path d="M684.834 963.783V1176.71C684.834 1192.35 697.517 1205.03 713.161 1205.03H1040.39C1056.03 1205.03 1068.71 1192.35 1068.71 1176.71V963.783C1068.71 948.139 1056.03 935.457 1040.39 935.457H713.161C697.517 935.457 684.834 948.139 684.834 963.783Z" fill="#94D9E2"/>
<path d="M300.956 960.136C300.956 950.7 308.605 943.05 318.042 943.05H639.312C648.748 943.05 656.398 950.7 656.398 960.136C656.398 969.572 648.748 977.222 639.312 977.222H318.042C308.605 977.222 300.956 969.572 300.956 960.136Z" fill="#94D9E2"/>
<path d="M183.662 1017.09C183.662 1011.85 187.911 1007.6 193.154 1007.6H646.907C652.149 1007.6 656.399 1011.85 656.399 1017.09C656.399 1022.33 652.149 1026.58 646.907 1026.58H193.154C187.911 1026.58 183.662 1022.33 183.662 1017.09Z" fill="#94D9E2"/>
<path d="M290.293 1051.26C290.293 1046.02 294.542 1041.77 299.785 1041.77H646.906C652.148 1041.77 656.398 1046.02 656.398 1051.26C656.398 1056.5 652.148 1060.75 646.906 1060.75H299.785C294.542 1060.75 290.293 1056.5 290.293 1051.26Z" fill="#94D9E2"/>
<path d="M485.788 1155.16C485.788 1151.25 488.958 1148.08 492.869 1148.08H649.318C653.229 1148.08 656.4 1151.25 656.4 1155.16V1197.95C656.4 1201.86 653.229 1205.03 649.318 1205.03H492.869C488.958 1205.03 485.788 1201.86 485.788 1197.95V1155.16Z" fill="#94D9E2"/>
<path d="M137.454 1155.16C137.454 1151.25 140.624 1148.08 144.535 1148.08H155.253C159.164 1148.08 162.335 1151.25 162.335 1155.16V1197.95C162.335 1201.86 159.164 1205.03 155.253 1205.03H144.535C140.624 1205.03 137.454 1201.86 137.454 1197.95V1155.16Z" fill="#94D9E2"/>
<path d="M172.996 1155.16C172.996 1151.25 176.167 1148.08 180.078 1148.08H226.34C230.251 1148.08 233.421 1151.25 233.421 1155.16V1163.78C233.421 1167.69 230.251 1170.86 226.34 1170.86H180.078C176.167 1170.86 172.996 1167.69 172.996 1163.78V1155.16Z" fill="#94D9E2"/>
<path d="M172.996 1189.33C172.996 1185.42 176.167 1182.25 180.078 1182.25H226.34C230.251 1182.25 233.421 1185.42 233.421 1189.33V1197.95C233.421 1201.86 230.251 1205.03 226.34 1205.03H180.078C176.167 1205.03 172.996 1201.86 172.996 1197.95V1189.33Z" fill="#94D9E2"/>
<path d="M109.019 1316.89C109.019 1301.24 121.701 1288.56 137.346 1288.56H1068.82C1084.46 1288.56 1097.15 1301.24 1097.15 1316.89V1590.56C1097.15 1606.2 1084.46 1618.89 1068.82 1618.89H137.346C121.701 1618.89 109.019 1606.2 109.019 1590.56V1316.89Z" fill="#0F2C30"/>
<path d="M684.834 1347.26V1560.18C684.834 1575.83 697.517 1588.51 713.161 1588.51H1040.39C1056.03 1588.51 1068.71 1575.83 1068.71 1560.18V1347.26C1068.71 1331.62 1056.03 1318.94 1040.39 1318.94H713.161C697.517 1318.94 684.834 1331.62 684.834 1347.26Z" fill="#94D9E2"/>
<path d="M300.956 1343.62C300.956 1334.18 308.605 1326.53 318.042 1326.53H639.312C648.748 1326.53 656.398 1334.18 656.398 1343.62C656.398 1353.05 648.748 1360.7 639.312 1360.7H318.042C308.605 1360.7 300.956 1353.05 300.956 1343.62Z" fill="#94D9E2"/>
<path d="M183.662 1400.57C183.662 1395.33 187.911 1391.08 193.154 1391.08H646.907C652.149 1391.08 656.399 1395.33 656.399 1400.57C656.399 1405.81 652.149 1410.06 646.907 1410.06H193.154C187.911 1410.06 183.662 1405.81 183.662 1400.57Z" fill="#94D9E2"/>
<path d="M290.293 1434.74C290.293 1429.5 294.542 1425.25 299.785 1425.25H646.906C652.148 1425.25 656.398 1429.5 656.398 1434.74C656.398 1439.98 652.148 1444.23 646.906 1444.23H299.785C294.542 1444.23 290.293 1439.98 290.293 1434.74Z" fill="#94D9E2"/>
<path d="M485.788 1538.64C485.788 1534.73 488.958 1531.56 492.869 1531.56H649.318C653.229 1531.56 656.4 1534.73 656.4 1538.64V1581.43C656.4 1585.34 653.229 1588.51 649.318 1588.51H492.869C488.958 1588.51 485.788 1585.34 485.788 1581.43V1538.64Z" fill="#94D9E2"/>
<path d="M137.454 1538.64C137.454 1534.73 140.624 1531.56 144.535 1531.56H155.253C159.164 1531.56 162.335 1534.73 162.335 1538.64V1581.43C162.335 1585.34 159.164 1588.51 155.253 1588.51H144.535C140.624 1588.51 137.454 1585.34 137.454 1581.43V1538.64Z" fill="#94D9E2"/>
<path d="M172.996 1538.64C172.996 1534.73 176.167 1531.56 180.078 1531.56H226.34C230.251 1531.56 233.421 1534.73 233.421 1538.64V1547.26C233.421 1551.17 230.251 1554.34 226.34 1554.34H180.078C176.167 1554.34 172.996 1551.17 172.996 1547.26V1538.64Z" fill="#94D9E2"/>
<path d="M172.996 1572.81C172.996 1568.9 176.167 1565.73 180.078 1565.73H226.34C230.251 1565.73 233.421 1568.9 233.421 1572.81V1581.43C233.421 1585.34 230.251 1588.51 226.34 1588.51H180.078C176.167 1588.51 172.996 1585.34 172.996 1581.43V1572.81Z" fill="#94D9E2"/>
<path d="M109.019 1700.37C109.019 1684.72 121.701 1672.04 137.346 1672.04H1068.82C1084.46 1672.04 1097.15 1684.72 1097.15 1700.37V1974.04C1097.15 1989.68 1084.46 2002.37 1068.82 2002.37H137.346C121.701 2002.37 109.019 1989.68 109.019 1974.04V1700.37Z" fill="#0F2C30"/>
<path d="M684.834 1730.74V1943.66C684.834 1959.31 697.517 1971.99 713.161 1971.99H1040.39C1056.03 1971.99 1068.71 1959.31 1068.71 1943.66V1730.74C1068.71 1715.1 1056.03 1702.42 1040.39 1702.42H713.161C697.517 1702.42 684.834 1715.1 684.834 1730.74Z" fill="#94D9E2"/>
<path d="M300.956 1727.1C300.956 1717.66 308.605 1710.01 318.042 1710.01H639.312C648.748 1710.01 656.398 1717.66 656.398 1727.1C656.398 1736.53 648.748 1744.18 639.312 1744.18H318.042C308.605 1744.18 300.956 1736.53 300.956 1727.1Z" fill="#94D9E2"/>
<path d="M183.662 1784.05C183.662 1778.81 187.911 1774.56 193.154 1774.56H646.907C652.149 1774.56 656.399 1778.81 656.399 1784.05C656.399 1789.29 652.149 1793.54 646.907 1793.54H193.154C187.911 1793.54 183.662 1789.29 183.662 1784.05Z" fill="#94D9E2"/>
<path d="M290.293 1818.22C290.293 1812.98 294.542 1808.73 299.785 1808.73H646.906C652.148 1808.73 656.398 1812.98 656.398 1818.22C656.398 1823.46 652.148 1827.71 646.906 1827.71H299.785C294.542 1827.71 290.293 1823.46 290.293 1818.22Z" fill="#94D9E2"/>
<path d="M485.788 1922.12C485.788 1918.21 488.958 1915.04 492.869 1915.04H649.318C653.229 1915.04 656.4 1918.21 656.4 1922.12V1964.91C656.4 1968.82 653.229 1971.99 649.318 1971.99H492.869C488.958 1971.99 485.788 1968.82 485.788 1964.91V1922.12Z" fill="#94D9E2"/>
<path d="M137.454 1922.12C137.454 1918.21 140.624 1915.04 144.535 1915.04H155.253C159.164 1915.04 162.335 1918.21 162.335 1922.12V1964.91C162.335 1968.82 159.164 1971.99 155.253 1971.99H144.535C140.624 1971.99 137.454 1968.82 137.454 1964.91V1922.12Z" fill="#94D9E2"/>
<path d="M172.996 1922.12C172.996 1918.21 176.167 1915.04 180.078 1915.04H226.34C230.251 1915.04 233.421 1918.21 233.421 1922.12V1930.74C233.421 1934.65 230.251 1937.82 226.34 1937.82H180.078C176.167 1937.82 172.996 1934.65 172.996 1930.74V1922.12Z" fill="#94D9E2"/>
<path d="M172.996 1956.29C172.996 1952.38 176.167 1949.21 180.078 1949.21H226.34C230.251 1949.21 233.421 1952.38 233.421 1956.29V1964.91C233.421 1968.82 230.251 1971.99 226.34 1971.99H180.078C176.167 1971.99 172.996 1968.82 172.996 1964.91V1956.29Z" fill="#94D9E2"/>
<path d="M109.019 2083.85C109.019 2068.2 121.701 2055.52 137.346 2055.52H1068.82C1084.46 2055.52 1097.15 2068.2 1097.15 2083.85V2357.52C1097.15 2373.16 1084.46 2385.84 1068.82 2385.84H137.346C121.701 2385.84 109.019 2373.16 109.019 2357.52V2083.85Z" fill="#0F2C30"/>
<path d="M684.834 2114.22V2327.14C684.834 2342.79 697.517 2355.47 713.161 2355.47H1040.39C1056.03 2355.47 1068.71 2342.79 1068.71 2327.14V2114.22C1068.71 2098.58 1056.03 2085.89 1040.39 2085.89H713.161C697.517 2085.89 684.834 2098.58 684.834 2114.22Z" fill="#94D9E2"/>
<path d="M300.956 2110.57C300.956 2101.14 308.605 2093.49 318.042 2093.49H639.312C648.748 2093.49 656.398 2101.14 656.398 2110.57C656.398 2120.01 648.748 2127.66 639.312 2127.66H318.042C308.605 2127.66 300.956 2120.01 300.956 2110.57Z" fill="#94D9E2"/>
<path d="M183.662 2167.53C183.662 2162.28 187.911 2158.03 193.154 2158.03H646.907C652.149 2158.03 656.399 2162.28 656.399 2167.53C656.399 2172.77 652.149 2177.02 646.907 2177.02H193.154C187.911 2177.02 183.662 2172.77 183.662 2167.53Z" fill="#94D9E2"/>
<path d="M290.293 2201.7C290.293 2196.46 294.542 2192.21 299.785 2192.21H646.906C652.148 2192.21 656.398 2196.46 656.398 2201.7C656.398 2206.94 652.148 2211.19 646.906 2211.19H299.785C294.542 2211.19 290.293 2206.94 290.293 2201.7Z" fill="#94D9E2"/>
<path d="M485.788 2305.6C485.788 2301.69 488.958 2298.52 492.869 2298.52H649.318C653.229 2298.52 656.4 2301.69 656.4 2305.6V2348.39C656.4 2352.3 653.229 2355.47 649.318 2355.47H492.869C488.958 2355.47 485.788 2352.3 485.788 2348.39V2305.6Z" fill="#94D9E2"/>
<path d="M137.454 2305.6C137.454 2301.69 140.624 2298.52 144.535 2298.52H155.253C159.164 2298.52 162.335 2301.69 162.335 2305.6V2348.39C162.335 2352.3 159.164 2355.47 155.253 2355.47H144.535C140.624 2355.47 137.454 2352.3 137.454 2348.39V2305.6Z" fill="#94D9E2"/>
<path d="M172.996 2305.6C172.996 2301.69 176.167 2298.52 180.078 2298.52H226.34C230.251 2298.52 233.421 2301.69 233.421 2305.6V2314.22C233.421 2318.13 230.251 2321.3 226.34 2321.3H180.078C176.167 2321.3 172.996 2318.13 172.996 2314.22V2305.6Z" fill="#94D9E2"/>
<path d="M172.996 2339.77C172.996 2335.86 176.167 2332.69 180.078 2332.69H226.34C230.251 2332.69 233.421 2335.86 233.421 2339.77V2348.39C233.421 2352.3 230.251 2355.47 226.34 2355.47H180.078C176.167 2355.47 172.996 2352.3 172.996 2348.39V2339.77Z" fill="#94D9E2"/>
<path d="M137.452 143.669C137.452 128.025 150.134 115.343 165.778 115.343H272.002C287.646 115.343 300.329 128.025 300.329 143.67V249.894C300.329 265.538 287.646 278.22 272.002 278.22H165.778C150.134 278.22 137.452 265.538 137.452 249.893V143.669Z" fill="#94D9E2"/>
<path d="M329.547 143.669C329.547 128.025 342.229 115.343 357.873 115.343H464.097C479.742 115.343 492.424 128.025 492.424 143.67V249.894C492.424 265.538 479.742 278.22 464.097 278.22H357.873C342.229 278.22 329.547 265.538 329.547 249.893V143.669Z" fill="#94D9E2"/>
<path d="M521.642 143.669C521.642 128.025 534.324 115.343 549.968 115.343H656.192C671.837 115.343 684.519 128.025 684.519 143.67V249.894C684.519 265.538 671.836 278.22 656.192 278.22H549.968C534.324 278.22 521.642 265.538 521.642 249.893V143.669Z" fill="#94D9E2"/>
<path d="M713.737 143.669C713.737 128.025 726.419 115.343 742.064 115.343H848.288C863.932 115.343 876.614 128.025 876.614 143.67V249.894C876.614 265.538 863.932 278.22 848.287 278.22H742.063C726.419 278.22 713.737 265.538 713.737 249.893V143.669Z" fill="#94D9E2"/>
<path d="M905.832 143.669C905.832 128.025 918.515 115.343 934.159 115.343H1040.38C1056.03 115.343 1068.71 128.025 1068.71 143.67V249.894C1068.71 265.538 1056.03 278.22 1040.38 278.22H934.159C918.514 278.22 905.832 265.538 905.832 249.893V143.669Z" fill="#94D9E2"/>
<rect x="453.726" y="84.4258" width="293" height="81.4464" rx="38.6525" fill="#0A0A0A"/>
<circle cx="705.943" cy="125.149" r="40.7232" fill="#0A0A0A"/>
<g opacity="0.7">
<path d="M706.011 148.746C718.494 148.746 728.59 138.438 728.59 125.751C728.59 113.064 718.494 102.755 706.011 102.755C693.527 102.755 683.431 113.064 683.431 125.751C683.431 138.438 693.527 148.746 706.011 148.746Z" fill="url(#paint1_radial_657_1838)"/>
<path d="M706.011 148.746C718.494 148.746 728.59 138.438 728.59 125.751C728.59 113.064 718.494 102.755 706.011 102.755C693.527 102.755 683.431 113.064 683.431 125.751C683.431 138.438 693.527 148.746 706.011 148.746Z" fill="url(#paint2_angular_657_1838)"/>
<path d="M706.011 148.746C718.494 148.746 728.59 138.438 728.59 125.751C728.59 113.064 718.494 102.755 706.011 102.755C693.527 102.755 683.431 113.064 683.431 125.751C683.431 138.438 693.527 148.746 706.011 148.746Z" fill="url(#paint3_angular_657_1838)"/>
<path d="M706.011 148.746C718.494 148.746 728.59 138.438 728.59 125.751C728.59 113.064 718.494 102.755 706.011 102.755C693.527 102.755 683.431 113.064 683.431 125.751C683.431 138.438 693.527 148.746 706.011 148.746Z" stroke="#080F21" stroke-width="1.45676"/>
</g>
<line opacity="0.7" x1="706.011" y1="103.484" x2="706.011" y2="148.018" stroke="black" stroke-width="3.64191"/>
<g filter="url(#filter1_iii_657_1838)">
<path d="M250.57 2466.91H266.354V2484H250.57V2466.91Z" fill="#373634" fill-opacity="0.95"/>
<path d="M11.8378 2220.62H28.6083V2234.69H11.8378V2220.62Z" fill="#373634" fill-opacity="0.95"/>
<path d="M11.8378 250.31H29.5947V270.415H11.8378V250.31Z" fill="#373634" fill-opacity="0.9"/>
<path d="M1177.88 2220.62H1195.63V2234.69H1177.88V2220.62Z" fill="#373634" fill-opacity="0.95"/>
<path d="M1177.88 251.314H1195.63V270.414H1177.88V251.314Z" fill="#373634" fill-opacity="0.9"/>
<path d="M941.118 0H959.862V17.0894H941.118V0Z" fill="#373634" fill-opacity="0.9"/>
<path d="M0 904.393V1090.52C0 1092.7 1.76668 1094.46 3.94599 1094.46H7.89198C10.0713 1094.46 11.838 1092.7 11.838 1090.52V904.393C11.838 902.214 10.0713 900.447 7.89197 900.447H3.94599C1.76668 900.447 0 902.214 0 904.393Z" fill="#666560"/>
<path d="M0 667.154C0 664.975 1.76668 663.208 3.94599 663.208H7.89197C10.0713 663.208 11.838 664.975 11.838 667.154V855.288C11.838 857.467 10.0713 859.234 7.89198 859.234H3.94599C1.76668 859.234 0 857.467 0 855.288V667.154Z" fill="#666560"/>
<path d="M0 484.196C0 482.016 1.76668 480.25 3.94599 480.25H7.89197C10.0713 480.25 11.838 482.016 11.838 484.196V581.856C11.838 584.035 10.0713 585.802 7.89198 585.802H3.94599C1.76668 585.802 0 584.035 0 581.856V484.196Z" fill="#666560"/>
<path d="M1194.65 732.494C1194.65 730.315 1196.41 728.548 1198.59 728.548H1202.54C1204.72 728.548 1206.49 730.315 1206.49 732.494V1022.16C1206.49 1024.34 1204.72 1026.11 1202.54 1026.11H1198.59C1196.41 1026.11 1194.65 1024.34 1194.65 1022.16V732.494Z" fill="#666560"/>
<path d="M520.257 31.2119C520.257 27.3141 523.416 24.1543 527.314 24.1543H686.199C690.097 24.1543 693.257 27.3141 693.257 31.2119C693.257 35.1097 690.097 38.2695 686.199 38.2695H527.314C523.416 38.2695 520.257 35.1097 520.257 31.2119Z" fill="#141414"/>
</g>
<path d="M251.088 2467.42H265.836V2483.48H251.088V2467.42ZM12.3556 2221.14H28.0904V2234.17H12.3556V2221.14ZM12.3556 250.828H29.0769V269.898H12.3556V250.828ZM1178.4 2221.14H1195.12V2234.17H1178.4V2221.14ZM1178.4 251.832H1195.12V269.896H1178.4V251.832ZM941.636 0.517826H959.344V16.5716H941.636V0.517826ZM3.94599 900.965H7.89197C9.78529 900.965 11.3201 902.5 11.3201 904.393V1090.52C11.3201 1092.41 9.78529 1093.94 7.89198 1093.94H3.94599C2.05268 1093.94 0.517826 1092.41 0.517826 1090.52V904.393C0.517826 902.5 2.05267 900.965 3.94599 900.965ZM3.94599 663.726H7.89197C9.7853 663.726 11.3201 665.261 11.3201 667.154V855.288C11.3201 857.181 9.7853 858.716 7.89198 858.716H3.94599C2.05267 858.716 0.517826 857.181 0.517826 855.288V667.154C0.517826 665.261 2.05267 663.726 3.94599 663.726ZM3.94599 480.767H7.89197C9.7853 480.767 11.3201 482.302 11.3201 484.196V581.856C11.3201 583.749 9.7853 585.284 7.89198 585.284H3.94599C2.05267 585.284 0.517826 583.749 0.517826 581.856V484.196C0.517826 482.302 2.05267 480.767 3.94599 480.767ZM1198.59 729.066H1202.54C1204.43 729.066 1205.97 730.601 1205.97 732.494V1022.16C1205.97 1024.05 1204.43 1025.59 1202.54 1025.59H1198.59C1196.7 1025.59 1195.17 1024.05 1195.17 1022.16V732.494C1195.17 730.601 1196.7 729.066 1198.59 729.066ZM527.314 24.6721H686.199C689.811 24.6721 692.739 27.6001 692.739 31.2119C692.739 34.8237 689.811 37.7516 686.199 37.7516H527.314C523.702 37.7516 520.774 34.8237 520.774 31.2119C520.774 27.6001 523.702 24.6721 527.314 24.6721Z" stroke="#0E0E0E" stroke-width="1.03565"/>
<defs>
<filter id="filter0_i_657_1838" x="11.7969" y="0" width="1183.96" height="2484" filterUnits="userSpaceOnUse" color-interpolation-filters="sRGB">
<feFlood flood-opacity="0" result="BackgroundImageFix"/>
<feBlend mode="normal" in="SourceGraphic" in2="BackgroundImageFix" result="shape"/>
<feColorMatrix in="SourceAlpha" type="matrix" values="0 0 0 0 0 0 0 0 0 0 0 0 0 0 0 0 0 0 127 0" result="hardAlpha"/>
<feMorphology radius="4.93249" operator="erode" in="SourceAlpha" result="effect1_innerShadow_657_1838"/>
<feOffset/>
<feGaussianBlur stdDeviation="0.493249"/>
<feComposite in2="hardAlpha" operator="arithmetic" k2="-1" k3="1"/>
<feColorMatrix type="matrix" values="0 0 0 0 0.278431 0 0 0 0 0.27451 0 0 0 0 0.254902 0 0 0 1 0"/>
<feBlend mode="normal" in2="shape" result="effect1_innerShadow_657_1838"/>
</filter>
<filter id="filter1_iii_657_1838" x="0" y="0" width="1206.49" height="2484" filterUnits="userSpaceOnUse" color-interpolation-filters="sRGB">
<feFlood flood-opacity="0" result="BackgroundImageFix"/>
<feBlend mode="normal" in="SourceGraphic" in2="BackgroundImageFix" result="shape"/>
<feColorMatrix in="SourceAlpha" type="matrix" values="0 0 0 0 0 0 0 0 0 0 0 0 0 0 0 0 0 0 127 0" result="hardAlpha"/>
<feMorphology radius="1.03565" operator="erode" in="SourceAlpha" result="effect1_innerShadow_657_1838"/>
<feOffset/>
<feGaussianBlur stdDeviation="2.58913"/>
<feComposite in2="hardAlpha" operator="arithmetic" k2="-1" k3="1"/>
<feColorMatrix type="matrix" values="0 0 0 0 0 0 0 0 0 0 0 0 0 0 0 0 0 0 1 0"/>
<feBlend mode="normal" in2="shape" result="effect1_innerShadow_657_1838"/>
<feColorMatrix in="SourceAlpha" type="matrix" values="0 0 0 0 0 0 0 0 0 0 0 0 0 0 0 0 0 0 127 0" result="hardAlpha"/>
<feOffset dx="3.10695"/>
<feComposite in2="hardAlpha" operator="arithmetic" k2="-1" k3="1"/>
<feColorMatrix type="matrix" values="0 0 0 0 0.164706 0 0 0 0 0.164706 0 0 0 0 0.164706 0 0 0 1 0"/>
<feBlend mode="normal" in2="effect1_innerShadow_657_1838" result="effect2_innerShadow_657_1838"/>
<feColorMatrix in="SourceAlpha" type="matrix" values="0 0 0 0 0 0 0 0 0 0 0 0 0 0 0 0 0 0 127 0" result="hardAlpha"/>
<feOffset dx="-3.10695"/>
<feComposite in2="hardAlpha" operator="arithmetic" k2="-1" k3="1"/>
<feColorMatrix type="matrix" values="0 0 0 0 0.164706 0 0 0 0 0.164706 0 0 0 0 0.164706 0 0 0 1 0"/>
<feBlend mode="normal" in2="effect2_innerShadow_657_1838" result="effect3_innerShadow_657_1838"/>
</filter>
<linearGradient id="paint0_linear_657_1838" x1="603.779" y1="0" x2="603.779" y2="2484" gradientUnits="userSpaceOnUse">
<stop stop-color="#B5B5B5"/>
<stop offset="1" stop-color="#CDCDC5"/>
</linearGradient>
<radialGradient id="paint1_radial_657_1838" cx="0" cy="0" r="1" gradientUnits="userSpaceOnUse" gradientTransform="translate(706.011 125.751) rotate(90) scale(22.2671 21.8515)">
<stop offset="0.213542"/>
<stop offset="0.270833" stop-color="#081A32"/>
<stop offset="0.395833" stop-color="#1F3A58"/>
<stop offset="0.515625" stop-color="#375F90"/>
<stop offset="0.713542" stop-color="#274871"/>
<stop offset="0.916667" stop-color="#0D1528"/>
</radialGradient>
<radialGradient id="paint2_angular_657_1838" cx="0" cy="0" r="1" gradientUnits="userSpaceOnUse" gradientTransform="translate(706.011 125.751) rotate(90) scale(22.2671 21.8515)">
<stop offset="0.411458" stop-opacity="0"/>
<stop offset="0.510417"/>
<stop offset="0.817708" stop-opacity="0"/>
</radialGradient>
<radialGradient id="paint3_angular_657_1838" cx="0" cy="0" r="1" gradientUnits="userSpaceOnUse" gradientTransform="translate(706.011 125.751) rotate(90) scale(22.2671 21.8515)">
<stop/>
<stop offset="0.166667" stop-opacity="0"/>
<stop offset="0.885417" stop-opacity="0"/>
</radialGradient>
</defs>
</svg>
