<svg width="660" height="440" viewBox="0 0 660 440" fill="none" xmlns="http://www.w3.org/2000/svg">
<g clip-path="url(#clip0_472_1386)">
<path fill-rule="evenodd" clip-rule="evenodd" d="M286.921 296.301V276.78H311.379L332.143 256.059L360.806 268.207C371.194 272.611 383.216 270.278 391.184 262.312L431.895 221.684C439.878 213.719 442.201 201.722 437.802 191.368L417.024 142.553C414.224 135.969 408.972 130.728 402.374 127.934L353.46 107.198C348.385 105.046 342.781 104.457 337.367 105.507C331.954 106.558 326.979 109.199 323.082 113.093L282.37 153.722C274.402 161.674 272.065 173.67 276.477 184.038L288.332 211.91L205 295.072V339H249.017L267.361 320.694V296.287H286.921V296.301Z" fill="#94D9E2"/>
<path fill-rule="evenodd" clip-rule="evenodd" d="M355.423 162C343.018 162.052 332.948 172.133 333 184.552C333 196.971 343.121 207.051 355.526 207C367.931 207 378 196.919 378 184.5C378 172.08 367.931 162 355.526 162" fill="#0F2C30"/>
<path fill-rule="evenodd" clip-rule="evenodd" d="M430.913 287.972H435.295C435.802 287.972 436.288 288.176 436.647 288.538C437.006 288.901 437.207 289.392 437.208 289.904V294.329C437.207 294.841 437.005 295.332 436.647 295.694C436.288 296.056 435.802 296.26 435.295 296.26H430.913C430.406 296.258 429.921 296.054 429.562 295.693C429.204 295.331 429.002 294.841 429 294.329V289.904C428.991 288.843 429.853 287.972 430.913 287.972ZM446.105 287.972H450.487C450.994 287.974 451.48 288.178 451.838 288.54C452.197 288.902 452.399 289.392 452.401 289.904V294.329C452.4 294.841 452.198 295.332 451.84 295.694C451.481 296.056 450.994 296.26 450.487 296.26H446.105C445.599 296.258 445.113 296.054 444.755 295.693C444.397 295.331 444.195 294.841 444.193 294.329V289.904C444.195 289.392 444.397 288.902 444.755 288.54C445.113 288.178 445.599 287.974 446.105 287.972ZM461.309 287.972H465.691C466.198 287.974 466.683 288.178 467.042 288.54C467.4 288.902 467.602 289.392 467.604 289.904V294.329C467.604 295.399 466.742 296.26 465.691 296.26H461.309C460.802 296.258 460.317 296.054 459.959 295.693C459.601 295.331 459.398 294.841 459.397 294.329V289.904C459.387 288.843 460.249 287.972 461.309 287.972ZM476.502 287.972H480.884C481.391 287.974 481.876 288.178 482.235 288.54C482.593 288.902 482.795 289.392 482.797 289.904V294.329C482.796 294.841 482.595 295.332 482.236 295.694C481.877 296.056 481.391 296.26 480.884 296.26H476.502C475.994 296.26 475.507 296.057 475.147 295.695C474.787 295.333 474.583 294.842 474.581 294.329V289.904C474.589 288.843 475.451 287.972 476.502 287.972ZM491.696 287.972H496.079C496.587 287.972 497.074 288.176 497.434 288.538C497.794 288.9 497.998 289.391 498 289.904V294.329C498 294.583 497.949 294.835 497.853 295.07C497.756 295.304 497.614 295.517 497.436 295.697C497.257 295.876 497.046 296.018 496.813 296.115C496.58 296.212 496.331 296.261 496.079 296.26H491.696C491.189 296.258 490.704 296.054 490.346 295.693C489.988 295.331 489.785 294.841 489.784 294.329V289.904C489.785 289.392 489.987 288.902 490.346 288.54C490.704 288.178 491.189 287.974 491.696 287.972ZM446.663 304.703H451.045C451.552 304.705 452.037 304.909 452.395 305.271C452.753 305.632 452.956 306.123 452.958 306.634V311.069C452.956 311.58 452.753 312.07 452.395 312.432C452.037 312.794 451.552 312.998 451.045 313H446.663C446.156 313 445.67 312.796 445.311 312.434C444.953 312.072 444.751 311.581 444.751 311.069V306.644C444.749 306.389 444.797 306.137 444.893 305.901C444.988 305.666 445.129 305.451 445.306 305.271C445.484 305.091 445.696 304.947 445.928 304.85C446.161 304.752 446.411 304.702 446.663 304.703ZM461.856 304.703H466.238C466.745 304.705 467.23 304.909 467.588 305.27C467.947 305.632 468.149 306.122 468.151 306.634V311.069C468.149 311.58 467.947 312.071 467.588 312.432C467.23 312.794 466.745 312.998 466.238 313H461.856C461.349 312.998 460.864 312.794 460.506 312.432C460.147 312.07 459.945 311.58 459.943 311.069V306.644C459.942 306.389 459.99 306.137 460.086 305.901C460.181 305.666 460.322 305.452 460.5 305.271C460.677 305.091 460.889 304.948 461.121 304.85C461.354 304.753 461.604 304.703 461.856 304.703ZM477.05 304.703H481.432C481.94 304.703 482.428 304.906 482.788 305.268C483.148 305.63 483.351 306.121 483.354 306.634V311.069C483.351 311.582 483.148 312.073 482.788 312.435C482.428 312.797 481.94 313 481.432 313H477.05C476.543 312.998 476.058 312.794 475.7 312.432C475.342 312.07 475.139 311.58 475.138 311.069V306.644C475.138 306.131 475.339 305.638 475.697 305.275C476.055 304.911 476.542 304.705 477.05 304.703ZM461.309 270H465.691C466.742 270 467.604 270.87 467.604 271.931V276.356C467.604 277.427 466.742 278.288 465.691 278.288H461.309C460.802 278.286 460.317 278.082 459.959 277.72C459.601 277.358 459.398 276.868 459.397 276.356V271.931C459.387 270.87 460.249 270 461.309 270ZM476.502 270H480.884C481.391 270.002 481.876 270.206 482.235 270.568C482.593 270.929 482.795 271.42 482.797 271.931V276.356C482.797 276.869 482.595 277.36 482.236 277.722C481.877 278.084 481.391 278.287 480.884 278.288H476.502C475.994 278.287 475.507 278.084 475.147 277.722C474.787 277.36 474.583 276.869 474.581 276.356V271.931C474.586 271.419 474.79 270.93 475.15 270.569C475.509 270.207 475.995 270.003 476.502 270Z" fill="#C5E5E9"/>
<path d="M518.654 236.305C501.812 240.248 484 226.131 484 226.131C484 226.131 493.505 205.627 510.352 201.696C527.193 197.752 545 211.858 545 211.858C545 211.858 535.495 232.361 518.654 236.305Z" fill="#C5E5E9"/>
<path d="M110.654 275.305C93.8125 279.248 76 265.131 76 265.131C76 265.131 85.5054 244.627 102.352 240.696C119.193 236.752 137 250.858 137 250.858C137 250.858 127.495 271.362 110.654 275.305Z" fill="#C5E5E9"/>
<path d="M237.406 123.363C258.39 119.112 271 93.7897 271 93.7897C271 93.7897 249.577 75.374 228.594 79.6417C207.61 83.8926 195 109.198 195 109.198C195 109.198 216.422 127.614 237.406 123.363Z" fill="#C5E5E9"/>
<path d="M504.5 141C496.492 141 490 147.044 490 154.5C490 161.956 496.492 168 504.5 168C512.508 168 519 161.956 519 154.5C519 147.044 512.508 141 504.5 141Z" fill="#94D9E2"/>
<path d="M288.5 349C281.596 349 276 354.596 276 361.5C276 368.404 281.596 374 288.5 374C295.404 374 301 368.404 301 361.5C301 354.596 295.404 349 288.5 349Z" fill="#94D9E2"/>
<path d="M179 168C175.134 168 172 164.866 172 161C172 157.134 175.134 154 179 154C182.866 154 186 157.134 186 161C186 164.866 182.866 168 179 168Z" fill="#94D9E2"/>
<path d="M373 359C366.925 359 362 354.299 362 348.5C362 342.701 366.925 338 373 338C379.075 338 384 342.701 384 348.5C384 354.299 379.075 359 373 359Z" fill="#C5E5E9"/>
<path d="M204.5 229C200.358 229 197 225.642 197 221.5C197 217.358 200.358 214 204.5 214C208.642 214 212 217.358 212 221.5C212 225.642 208.642 229 204.5 229Z" fill="#C5E5E9"/>
<path d="M438.5 387C434.91 387 432 383.866 432 380C432 376.134 434.91 373 438.5 373C442.09 373 445 376.134 445 380C445 383.866 442.09 387 438.5 387Z" fill="#C5E5E9"/>
<path d="M377 65C373.686 65 371 62.3137 371 59C371 55.6863 373.686 53 377 53C380.314 53 383 55.6863 383 59C383 62.3137 380.314 65 377 65Z" fill="#C5E5E9"/>
<path d="M163.144 310.69C164.002 313.891 162.102 317.181 158.901 318.038C155.701 318.896 152.411 316.996 151.553 313.796C150.695 310.595 152.595 307.305 155.796 306.447C158.996 305.589 162.286 307.489 163.144 310.69Z" fill="#C5E5E9"/>
<path d="M452.383 91.6036C454.17 98.2719 450.213 105.126 443.545 106.913C436.876 108.7 430.022 104.742 428.235 98.0741C426.448 91.4057 430.406 84.5515 437.074 82.7648C443.742 80.978 450.597 84.9353 452.383 91.6036Z" fill="#C5E5E9"/>
</g>
<defs>
<clipPath id="clip0_472_1386">
<rect width="660" height="440" fill="white"/>
</clipPath>
</defs>
</svg>
