<svg width="24" height="24" viewBox="0 0 24 24" fill="none" xmlns="http://www.w3.org/2000/svg">
<path fill-rule="evenodd" clip-rule="evenodd" d="M14.0001 2.00002C14.0002 1.78019 13.9278 1.56644 13.7943 1.39185C13.6607 1.21726 13.4733 1.09156 13.2611 1.03418C13.0489 0.976798 12.8236 0.990945 12.6203 1.07443C12.4169 1.15791 12.2467 1.30609 12.1361 1.49602L5.13605 13.496C5.04737 13.648 5.00036 13.8207 4.99976 13.9966C4.99916 14.1726 5.045 14.3456 5.13265 14.4981C5.2203 14.6507 5.34665 14.7775 5.49895 14.8656C5.65125 14.9537 5.8241 15.0001 6.00005 15H10.0001V22C9.99994 22.2199 10.0723 22.4336 10.2059 22.6082C10.3394 22.7828 10.5268 22.9085 10.739 22.9659C10.9513 23.0232 11.1765 23.0091 11.3798 22.9256C11.5832 22.8421 11.7534 22.694 11.8641 22.504L18.8641 10.504C18.9527 10.352 18.9997 10.1794 19.0003 10.0034C19.0009 9.82746 18.9551 9.65447 18.8675 9.5019C18.7798 9.34932 18.6535 9.22258 18.5012 9.13446C18.3489 9.04634 18.176 8.99997 18.0001 9.00002H14.0001V2.00002Z" fill="#94D9E2"/>
</svg>
