<svg width="200" height="298" viewBox="0 0 200 298" fill="none" xmlns="http://www.w3.org/2000/svg">
<path d="M176.051 238.432C139.017 154.509 100.299 210.098 72.157 178.558C44.0151 147.017 89.654 88.4279 16.8185 66.0655C-41.45 48.1755 -83.7455 51.5566 -97.6097 55.4834" stroke="#642300" stroke-opacity="0.19" stroke-width="2"/>
<path d="M150.172 269.617C113.137 185.695 74.4194 241.284 46.2775 209.744C18.1357 178.203 63.7746 119.614 -9.061 97.2514C-67.3295 79.3614 -112.136 82.2445 -126 86.1713" stroke="#642300" stroke-opacity="0.19" stroke-width="2"/>
<path d="M161.208 254.625C124.173 170.702 85.4552 226.291 57.3133 194.751C29.1715 163.21 74.8104 104.621 1.97484 82.2585C-56.2936 64.3685 -98.5892 67.7496 -112.453 71.6764" stroke="#642300" stroke-opacity="0.19" stroke-width="2"/>
</svg>
