<svg width="36" height="36" stroke='currentColor' viewBox="0 0 36 36" fill="currentColor" xmlns="http://www.w3.org/2000/svg">
<g clip-path="url(#clip0_2148_1138)">
<path d="M27 12C27 9.61305 26.0518 7.32387 24.364 5.63604C22.6761 3.94821 20.3869 3 18 3C15.6131 3 13.3239 3.94821 11.636 5.63604C9.94821 7.32387 9 9.61305 9 12C9 22.5 4.5 25.5 4.5 25.5H31.5C31.5 25.5 27 22.5 27 12Z" fill="inherit" stroke="inherit" stroke-width="3" stroke-linecap="round" stroke-linejoin="round"/>
<path d="M20.5948 31.5C20.3311 31.9546 19.9525 32.332 19.4971 32.5943C19.0417 32.8566 18.5254 32.9947 17.9998 32.9947C17.4742 32.9947 16.9579 32.8566 16.5024 32.5943C16.047 32.332 15.6685 31.9546 15.4048 31.5" stroke="inherit" stroke-width="3" stroke-linecap="round" stroke-linejoin="round"/>
</g>
<defs>
<clipPath id="clip0_2148_1138">
<rect width="36" height="36" fill="white"/>
</clipPath>
</defs>
</svg>
