<svg width="51" height="50" viewBox="0 0 51 50" fill="none" xmlns="http://www.w3.org/2000/svg">
<g clip-path="url(#clip0_267_967)">
<path d="M41.6832 3.49835C41.3548 2.83516 40.8837 1.61934 40.1925 1.77647C40.0738 1.80342 39.9564 1.84473 39.8426 1.90108L38.762 2.43624L38.0938 1.43253C37.6133 0.710748 36.6386 0.515142 35.9168 0.995611C35.195 1.47618 34.9994 2.45079 35.4799 3.17266L36.5204 4.73565L34.1769 13.4816C33.9525 14.3192 34.4496 15.1802 35.2871 15.4046C36.1247 15.629 36.9856 15.1319 37.21 14.2944L39.0552 5.90587L39.6904 4.83233C40.4675 4.44747 42.068 4.2754 41.6832 3.49835Z" fill="#FFF9E2"/>
<path d="M41.9465 2.61131C41.618 1.94823 40.8841 1.62127 40.1929 1.77821C40.3462 1.92039 40.4738 2.09588 40.5636 2.30096C40.9028 3.07537 40.5392 3.98045 39.7816 4.35565L38.3365 5.07137C38.2107 5.13368 38.1178 5.24705 38.0815 5.3826L35.7952 13.9154C35.6392 14.4974 35.1756 14.9139 34.6263 15.0391C34.8078 15.2077 35.0313 15.3361 35.2872 15.4047C36.1248 15.6291 36.9857 15.132 37.2101 14.2945L39.5536 5.54852L41.2362 4.71512C42.0134 4.33026 42.3313 3.38836 41.9465 2.61131Z" fill="#FEF0AE"/>
<path d="M38.045 10.9417L38.4329 9.49422C38.5027 9.23377 38.3481 8.966 38.0876 8.89618L35.1728 8.11522C34.9124 8.0454 34.6446 8.19999 34.5748 8.46044L34.1869 9.9079C34.1494 10.0476 34.0525 10.1645 33.9206 10.224C31.9197 11.1252 30.115 13.4109 29.3193 16.3805C28.3282 20.0795 29.2215 23.6448 31.3205 25.1122C31.6889 25.3698 32.1199 25.4684 32.559 25.5861C35.4993 26.374 37.859 23.3292 39.0241 18.9808C39.8198 16.0113 39.3997 13.1294 38.1175 11.3486C38.0331 11.2312 38.0076 11.0815 38.045 10.9417Z" fill="#E19974"/>
<path d="M39.061 11.6014C38.9764 11.484 38.951 11.3343 38.9885 11.1944L39.3762 9.74696C39.4461 9.48651 39.2915 9.21874 39.031 9.14891L36.4842 8.46649C36.7446 8.53632 36.8992 8.80399 36.8294 9.06454L36.4416 10.512C36.4041 10.6517 36.4297 10.8015 36.5141 10.9188C37.7964 12.6997 38.2164 15.5815 37.4207 18.5512C36.4296 22.2502 33.873 24.8896 31.3217 25.1108C31.6901 25.3683 32.0949 25.5628 32.5339 25.6805C35.4742 26.4683 38.8024 23.5819 39.9676 19.2336C40.7633 16.2641 40.3432 13.3822 39.061 11.6014Z" fill="#D77F4A"/>
<path d="M15.2986 2.8721C14.6825 2.46204 13.6667 1.64466 13.1466 2.1263C13.0574 2.20901 12.9763 2.30345 12.9059 2.40921L12.2376 3.41292L11.1572 2.87776C10.3801 2.493 9.43821 2.81087 9.05335 3.58792C8.66849 4.36497 8.98646 5.30686 9.76351 5.69173L11.4461 6.52503L13.7896 15.271C14.014 16.1086 14.8749 16.6057 15.7125 16.3812C16.5501 16.1568 17.0472 15.2958 16.8227 14.4582L14.2263 6.27102L14.2397 5.02366C14.7202 4.30188 16.0203 3.35267 15.2986 2.8721Z" fill="#FFF9E2"/>
<path d="M15.0829 1.97229C14.467 1.56223 13.6679 1.64602 13.1478 2.12756C13.3515 2.17405 13.5498 2.26223 13.7302 2.39495C14.4112 2.89602 14.5489 3.86155 14.0803 4.56536L13.1866 5.90774C13.1089 6.02454 13.0852 6.16916 13.1215 6.30471L15.4078 14.8375C15.5638 15.4196 15.3704 16.012 14.9575 16.3951C15.199 16.4504 15.4568 16.4498 15.7126 16.3813C16.5502 16.1569 17.0473 15.2959 16.8228 14.4583L14.4793 5.71233L15.5199 4.14934C16.0003 3.42746 15.8048 2.45286 15.0829 1.97229Z" fill="#FEF0AE"/>
<path d="M15.8695 11.1373L15.4817 9.68987C15.4119 9.42942 15.1442 9.27483 14.8837 9.34465L11.9689 10.1256C11.7085 10.1954 11.5539 10.4631 11.6237 10.7237L12.0116 12.1711C12.049 12.3109 12.0235 12.4606 11.939 12.578C10.6568 14.3589 10.2368 17.2407 11.0325 20.2104C12.0236 23.9094 14.5801 26.5504 17.1314 26.7718C17.5794 26.8107 18.0018 26.6806 18.4409 26.5629C21.3812 25.775 21.9023 21.9584 20.7372 17.61C19.9415 14.6405 18.1368 12.3547 16.1359 11.4535C16.0039 11.394 15.9069 11.2771 15.8695 11.1373Z" fill="#E19974"/>
<path d="M17.0792 11.2006C16.9472 11.1412 16.8504 11.0243 16.8129 10.8845L16.4251 9.43699C16.3552 9.17654 16.0876 9.02195 15.827 9.09168L13.2802 9.7741C13.5406 9.70428 13.8084 9.85887 13.8782 10.1194L14.266 11.5669C14.3034 11.7066 14.4004 11.8235 14.5323 11.883C16.5332 12.7842 18.3379 15.0699 19.1336 18.0394C20.1247 21.7386 19.2304 25.3025 17.1315 26.7698C17.5794 26.8087 18.0271 26.7746 18.4662 26.657C21.4065 25.8691 22.8457 21.7054 21.6805 17.357C20.8847 14.3875 19.08 12.1017 17.0792 11.2006Z" fill="#D77F4A"/>
<path d="M28.5964 2.31641C28.1075 1.76084 27.3378 0.708397 26.7109 1.03906C26.6032 1.0958 26.5005 1.16611 26.4052 1.25L25.4999 2.04658L24.5947 1.25C23.9438 0.677245 22.9517 0.740526 22.3788 1.3915C21.806 2.04248 21.8694 3.03457 22.5203 3.60742L23.9299 4.84785V13.9023C23.9299 14.7694 24.6328 15.4724 25.4999 15.4724C26.367 15.4724 27.0699 14.7694 27.0699 13.9023L26.681 5.32207L27.0167 4.1206C27.6678 3.54775 29.1693 2.96738 28.5964 2.31641Z" fill="#FFF9E2"/>
<path d="M28.6211 1.39143C28.1322 0.835963 27.3386 0.710084 26.7117 1.04065C26.8965 1.13831 27.0652 1.27473 27.2051 1.44963C27.7331 2.10989 27.6162 3.07815 26.9815 3.63665L25.7709 4.70198C25.6655 4.79465 25.6052 4.92825 25.6052 5.06858V13.9024C25.6052 14.5049 25.2651 15.0272 24.767 15.2904C24.9858 15.4062 25.235 15.4724 25.4999 15.4724C26.367 15.4724 27.0699 14.7695 27.0699 13.9024V4.84778L28.4796 3.60735C29.1305 3.0345 29.1939 2.04241 28.6211 1.39143Z" fill="#FEF0AE"/>
<path d="M27.0088 10.4478V8.94922C27.0088 8.67959 26.7901 8.46094 26.5205 8.46094H23.5029C23.2333 8.46094 23.0146 8.67959 23.0146 8.94922V10.4478C23.0146 10.5925 22.9512 10.7305 22.8392 10.822C21.1398 12.2103 19.9882 14.8853 19.9882 17.9596C19.9882 21.7891 21.7739 25.0018 24.181 25.8759C24.6036 26.0293 25.0454 26.0131 25.5 26.0131C28.5441 26.0131 30.0352 22.4613 30.0352 17.9596C30.0352 14.8853 28.8836 12.2104 27.1842 10.822C27.0721 10.7305 27.0088 10.5925 27.0088 10.4478Z" fill="#E19974"/>
<path d="M28.1606 10.822C28.0486 10.7305 27.9852 10.5924 27.9852 10.4478V8.94922C27.9852 8.67959 27.7666 8.46094 27.4969 8.46094H24.8602C25.1299 8.46094 25.3485 8.67959 25.3485 8.94922V10.4478C25.3485 10.5925 25.4119 10.7305 25.5239 10.822C27.2233 12.2103 28.375 14.8853 28.375 17.9596C28.375 21.7892 26.5887 25.0002 24.1815 25.8743C24.6041 26.0277 25.0453 26.1107 25.4999 26.1107C28.544 26.1107 31.0117 22.4613 31.0117 17.9596C31.0117 14.8853 29.86 12.2104 28.1606 10.822Z" fill="#D77F4A"/>
<path d="M36.5109 49.2676H33.9026L26.4845 45.1248L17.0973 49.2676H13.5124C12.2311 49.2676 11.1677 48.277 11.0772 46.9987L9.28479 21.7067L40.1913 20.4238L38.9462 46.9987C38.8556 48.277 37.7923 49.2676 36.5109 49.2676Z" fill="#FE646F"/>
<path d="M33.9026 49.2676H29.213L24.738 46.1901L21.7868 49.2676H17.0973L15.1442 21.7067L25.9033 20.7302L35.8557 21.7067L33.9026 49.2676Z" fill="#FFE177"/>
<path d="M38.7854 21.7067L36.993 46.9987C36.9024 48.2769 35.8391 49.2676 34.5577 49.2676H37.4874C38.7688 49.2676 39.8322 48.2769 39.9227 46.9987L41.7151 21.7067L40.1913 20.7302L38.7854 21.7067Z" fill="#FD4755"/>
<path d="M29.213 49.2676H21.7869L20.8103 21.7067L26.3357 19.7536L30.1896 21.7067L29.213 49.2676Z" fill="#FE646F"/>
<path d="M31.6368 35.4872C31.6368 37.8537 29.4286 39.6746 25.5 39.6746C24.9978 39.6746 24.5078 39.7409 24.035 39.6813C20.8093 39.2745 18.3866 37.5514 18.3866 35.4873C18.3866 33.4232 20.8093 31.7 24.035 31.2932C24.5078 31.2336 24.9978 31.3 25.5 31.3C29.4286 31.2998 31.6368 33.1206 31.6368 35.4872Z" fill="#FFF9E2"/>
<path d="M25.4999 31.2021C24.9976 31.2021 24.5079 31.2339 24.035 31.2936C27.2607 31.7004 29.6836 33.4231 29.6836 35.4872C29.6836 37.5513 27.2607 39.2739 24.035 39.6808C24.5079 39.7404 24.9976 39.7722 25.4999 39.7722C29.4285 39.7722 32.6133 37.8537 32.6133 35.4871C32.6133 33.1206 29.4285 31.2021 25.4999 31.2021Z" fill="#FEF0AE"/>
<path d="M42.1445 17.7678H7.87883C6.79114 17.7678 5.9093 18.6495 5.9093 19.7373C5.9093 20.825 6.79104 21.7068 7.87883 21.7068H42.1445C43.2322 21.7068 44.114 20.8251 44.114 19.7373C44.114 18.6495 43.2323 17.7678 42.1445 17.7678Z" fill="#FFF9E2"/>
<path d="M43.121 17.7678H40.1913C41.279 17.7678 42.1608 18.6495 42.1608 19.7373C42.1608 20.825 41.2791 21.7067 40.1913 21.7067H43.121C44.2087 21.7067 45.0905 20.825 45.0905 19.7373C45.0905 18.6495 44.2088 17.7678 43.121 17.7678Z" fill="#FEF0AE"/>
<path d="M43.1214 17.0348H41.0739C41.103 16.6098 41.1118 16.1874 41.0946 15.7732C41.0779 15.369 40.7375 15.0542 40.3325 15.0716C39.9283 15.0883 39.6142 15.4295 39.6309 15.8337C39.6472 16.227 39.6377 16.6292 39.606 17.0347H31.7109C31.6333 15.9514 31.4204 14.9172 31.0901 13.9725C31.9238 12.5188 33.0295 11.428 34.2216 10.8912C34.5542 10.7414 34.7995 10.4519 34.8946 10.0969L35.2192 8.88517L38.6056 9.7926L38.2809 11.0043C38.1858 11.3594 38.2536 11.7328 38.4666 12.0286C38.6693 12.3102 38.8503 12.6286 39.0046 12.975C39.1692 13.3445 39.602 13.5109 39.9716 13.3462C40.3411 13.1817 40.5073 12.7487 40.3427 12.3792C40.1655 11.9811 39.9582 11.6093 39.7257 11.2723L40.0838 9.93586C40.1682 9.62082 40.1249 9.29191 39.9618 9.00949C39.851 8.81769 39.6932 8.66418 39.5052 8.55822L40.1754 6.05705L41.5614 5.37062C42.6992 4.80715 43.1663 3.42307 42.6028 2.28537C42.0394 1.14768 40.6554 0.680585 39.5177 1.24387L39.0146 1.49299L38.7036 1.0257C38.0001 -0.0310359 36.5678 -0.318536 35.511 0.385077C34.4542 1.08859 34.1669 2.52082 34.8703 3.57766L35.7273 4.86506L35.057 7.36672C34.514 7.36213 34.0143 7.72199 33.8674 8.27014L33.5093 9.60656C32.3386 10.1618 31.2547 11.1245 30.3717 12.3766C29.917 11.5731 29.3605 10.8783 28.7176 10.3321V8.94855C28.7176 8.38107 28.3277 7.90412 27.8022 7.76809V5.17814L28.9633 4.15637C29.9164 3.3176 30.0094 1.85978 29.1707 0.906659C28.332 -0.0463679 26.8742 -0.139337 25.9211 0.699237L25.5 1.07014L25.0785 0.699335C24.1255 -0.139239 22.6677 -0.0461727 21.8289 0.906757C20.9902 1.85988 21.0833 3.31769 22.0363 4.15646L23.1973 5.17824V7.76818C22.6719 7.90432 22.282 8.38117 22.282 8.94865V10.3322C21.4893 11.0057 20.8284 11.9014 20.3284 12.9487C19.5029 11.8934 18.5253 11.0746 17.4904 10.5833L17.1323 9.2468C16.9854 8.69865 16.4856 8.33908 15.9427 8.34348L15.2723 5.84172L16.1295 4.55432C16.833 3.49758 16.5456 2.06535 15.4887 1.36174C14.4321 0.65832 12.9999 0.945624 12.2961 2.00246L11.985 2.46975L11.482 2.22062C10.3444 1.65744 8.96033 2.12453 8.39685 3.26213C7.83337 4.39982 8.30056 5.78381 9.43826 6.34738L10.8242 7.03381L11.4944 9.53508C11.3064 9.64103 11.1487 9.79455 11.038 9.98625C10.8749 10.2687 10.8316 10.5976 10.916 10.9126L11.2742 12.249C10.4052 13.507 9.92673 15.183 9.89841 17.0349H7.87859C6.38875 17.0349 5.17664 18.247 5.17664 19.7369C5.17664 21.2268 6.38875 22.4389 7.87859 22.4389H8.60222L8.99929 28.0421C9.02664 28.4279 9.34822 28.7228 9.72918 28.7228C9.74656 28.7228 9.76414 28.7222 9.78171 28.7209C10.1852 28.6923 10.4891 28.342 10.4605 27.9385L10.0708 22.4388H14.4617L16.311 48.5352H13.5123C12.6195 48.5352 11.8707 47.8375 11.8076 46.947L10.683 31.0777C10.6544 30.6741 10.3035 30.3704 9.90056 30.3988C9.49705 30.4275 9.19314 30.7778 9.22175 31.1813L10.3464 47.0506C10.4636 48.7044 11.8542 50 13.5123 50H37.4878C39.1459 50 40.5365 48.7044 40.6537 47.0505L42.3978 22.4388H43.1215C44.6113 22.4388 45.8234 21.2267 45.8234 19.7368C45.8233 18.2469 44.6113 17.0348 43.1214 17.0348ZM36.3229 1.60461C36.7075 1.34865 37.2285 1.45324 37.4844 1.83762L38.1526 2.84133C38.3568 3.14807 38.7571 3.25539 39.0874 3.09191L40.1679 2.55676C40.5816 2.35178 41.0853 2.5217 41.2904 2.93566C41.4954 3.34953 41.3254 3.85305 40.9115 4.05812L39.2288 4.89143C39.0402 4.98488 38.9009 5.1549 38.8464 5.35822L38.1008 8.14084L36.4826 7.70724L37.2282 4.92463C37.2827 4.72131 37.247 4.50441 37.1304 4.32922L36.0899 2.76623C35.834 2.38156 35.9385 1.86047 36.3229 1.60461ZM23.0042 3.05676C22.6574 2.75158 22.6235 2.22121 22.9286 1.87453C23.2339 1.52775 23.7641 1.49396 24.1109 1.79904L25.0162 2.59562C25.2928 2.83908 25.7072 2.83908 25.9839 2.59562L26.889 1.79904C27.2358 1.49387 27.7662 1.52775 28.0714 1.87443C28.3765 2.22121 28.3426 2.75158 27.9959 3.05666L26.5862 4.29709C26.4282 4.43615 26.3377 4.63644 26.3377 4.84699V7.72775H24.6624V4.84699C24.6624 4.63654 24.5719 4.43615 24.4138 4.29709L23.0042 3.05676ZM23.3026 11.3886C23.585 11.1578 23.747 10.8147 23.747 10.4471V9.19269H27.253V10.4471C27.253 10.8147 27.415 11.1578 27.6974 11.3886C29.0956 12.5308 30.0453 14.6595 30.2412 17.0348H20.7588C20.9545 14.6573 21.9009 12.5337 23.3026 11.3886ZM10.0885 5.03459C9.67449 4.82951 9.50457 4.32609 9.70955 3.91213C9.91453 3.49826 10.4181 3.32853 10.8319 3.53322L11.9125 4.06838C12.2427 4.23195 12.643 4.12463 12.8472 3.81799L13.5154 2.81428C13.7714 2.4298 14.2924 2.32512 14.6769 2.58107C15.0614 2.83713 15.166 3.35812 14.91 3.7426L13.8695 5.30568C13.7529 5.48088 13.7173 5.69787 13.7718 5.90109L14.5174 8.68371L12.8992 9.1173L12.1536 6.33459C12.0991 6.13137 11.9598 5.96125 11.7712 5.86789L10.0885 5.03459ZM12.5332 13.0053C12.7463 12.7093 12.8139 12.336 12.7188 11.9809L12.3941 10.7693L15.7805 9.86184L16.1052 11.0735C16.2003 11.4285 16.4456 11.7181 16.7782 11.8678C17.8675 12.3584 18.9004 13.3281 19.707 14.6109C19.4912 15.376 19.3492 16.1903 19.2889 17.0348H11.3635C11.3942 15.4556 11.8088 14.0114 12.5332 13.0053ZM15.9302 22.4388H20.1034L20.4291 31.6306C18.7231 32.544 17.6541 33.9207 17.6541 35.487C17.6541 37.1368 18.8401 38.5762 20.7074 39.4854L21.0281 48.5352H17.7796L15.9302 22.4388ZM29.9719 48.5352L30.0865 45.3019C30.1009 44.8976 29.7847 44.5583 29.3804 44.544C28.977 44.5283 28.6369 44.8457 28.6225 45.25L28.5061 48.5352H22.4938L22.1932 40.0522C23.1935 40.3424 24.3114 40.5045 25.5 40.5045C26.6885 40.5045 27.8065 40.3425 28.8067 40.0522L28.7356 42.0579C28.7213 42.4622 29.0374 42.8015 29.4417 42.8158C29.4506 42.8161 29.4593 42.8163 29.468 42.8163C29.8605 42.8163 30.1855 42.5052 30.1995 42.1099L30.2926 39.4854C32.1598 38.5762 33.3459 37.1368 33.3459 35.487C33.3459 33.9207 32.2769 32.544 30.5709 31.6306L30.8966 22.4388H35.0697L33.2204 48.5352H29.9719ZM25.5 31.9343C28.9589 31.9343 31.881 33.5612 31.881 35.487C31.881 37.4128 28.9589 39.0396 25.5 39.0396C22.0411 39.0396 19.1189 37.4127 19.1189 35.4869C19.1189 33.5611 22.0411 31.9343 25.5 31.9343ZM29.1267 31.0204C28.0474 30.6682 26.817 30.4694 25.5 30.4694C24.1829 30.4694 22.9525 30.6682 21.8731 31.0204L21.569 22.4388H29.4307L29.1267 31.0204ZM39.1924 46.947C39.1293 47.8375 38.3804 48.5352 37.4877 48.5352H34.6889L36.5383 22.4388H40.9292L39.1924 46.947ZM43.1214 20.9738H7.87859C7.19646 20.9738 6.64148 20.4189 6.64148 19.7367C6.64148 19.0546 7.19646 18.4996 7.87859 18.4996H43.1215C43.8036 18.4996 44.3586 19.0546 44.3586 19.7367C44.3585 20.419 43.8035 20.9738 43.1214 20.9738Z" fill="black"/>
</g>
<defs>
<clipPath id="clip0_267_967">
<rect width="50" height="50" fill="white" transform="translate(0.5)"/>
</clipPath>
</defs>
</svg>
