<svg width="51" height="50" viewBox="0 0 51 50" fill="none" xmlns="http://www.w3.org/2000/svg">
<g clip-path="url(#clip0_267_1052)">
<path d="M47.6725 13.2439C47.037 12.6083 46.007 12.6083 45.3719 13.2439L47.1751 11.4403C49.4174 9.198 49.4174 5.56298 47.1751 3.3207C44.9332 1.0788 41.2978 1.0788 39.0559 3.3207L37.2527 5.12429C37.8878 4.48876 37.8878 3.45879 37.2527 2.82364C34.4592 0.0301399 29.9304 0.0301399 27.1369 2.82364L3.32743 26.6331C0.533924 29.4266 0.533924 33.9554 3.32743 36.7485C3.96257 37.3837 4.99292 37.3837 5.62807 36.7485L3.82486 38.5517C1.58258 40.794 1.58258 44.4294 3.82486 46.6713C6.06676 48.9136 9.70217 48.9136 11.9441 46.6713L13.7473 44.8677C13.1121 45.5032 13.1121 46.5332 13.7473 47.1687C16.5408 49.9619 21.0696 49.9619 23.8631 47.1687L47.6725 23.3589C50.466 20.5658 50.466 16.037 47.6725 13.2439Z" fill="#EFA335"/>
<path d="M3.8249 46.6717C1.58262 44.4294 1.58262 40.794 3.8249 38.5521L39.0559 3.32105C41.2978 1.07877 44.9332 1.07877 47.1751 3.32105C49.4174 5.56295 49.4174 9.19836 47.1751 11.4403L11.9441 46.6717C9.7022 48.9136 6.0668 48.9136 3.8249 46.6717Z" fill="#FC4E51"/>
<path d="M47.1751 3.32109C46.4514 2.59706 45.5825 2.1084 44.662 1.85205C45.2002 3.78305 44.7116 5.93988 43.1933 7.45851L7.96191 42.6895C6.44366 44.2078 4.28645 44.6964 2.35583 44.1582C2.61218 45.0787 3.10085 45.9477 3.82449 46.6717C6.06677 48.9136 9.7018 48.9136 11.9441 46.6717L47.1751 11.4403C49.4174 9.19839 49.4174 5.56299 47.1751 3.32109Z" fill="#EA3942"/>
<path d="M37.2527 2.82366C37.2421 2.81336 37.2318 2.80268 37.2211 2.79238C35.6578 1.24819 33.1306 1.28214 31.5768 2.83587L3.33931 31.073C1.78597 32.6267 1.75202 35.154 3.29621 36.7172C3.30651 36.7279 3.31719 36.7382 3.32749 36.7489C3.96264 37.3841 4.99299 37.3841 5.62813 36.7489L37.2527 5.1243C37.8879 4.48916 37.8879 3.45881 37.2527 2.82366Z" fill="#FD8F31"/>
<path d="M30.9214 7.80525C30.2821 8.4446 29.1529 7.96776 28.1313 8.72154C26.4288 9.97772 26.5616 10.9371 25.4004 12.0983C23.9233 13.5754 22.9842 13.4224 21.9485 14.4581C20.2723 16.1343 20.4562 17.6121 19.364 18.8602C18.1158 19.9524 16.638 19.7685 14.9619 21.4447C13.9262 22.4804 14.0791 23.4196 12.6021 24.8966C11.4409 26.0578 10.4815 25.9251 9.22493 27.6276C8.47153 28.6491 8.94837 29.7783 8.30902 30.4176C6.95748 31.7692 4.97078 32.9662 7.20963 35.1669L21.4404 20.9366L35.6707 6.70586C33.47 4.46739 32.273 6.4537 30.9214 7.80525Z" fill="#A0E557"/>
<path d="M48.2653 13.9183C47.9174 14.8327 47.3769 15.6906 46.6407 16.4273L16.931 46.1369C16.1944 46.8731 15.3365 47.4137 14.4225 47.7619C17.2282 49.9436 21.2847 49.7475 23.8631 47.1688L47.6725 23.3593C50.2509 20.7806 50.4473 16.7244 48.2653 13.9183Z" fill="#FD8F31"/>
<path d="M42.6909 19.5747C42.0516 20.2141 42.5284 21.3432 41.7746 22.3648C40.5184 24.0673 39.559 23.9346 38.3978 25.0957C36.9208 26.5728 37.0738 27.512 36.0381 28.548C34.3619 30.2238 32.8841 30.04 31.6359 31.1321C30.5438 32.3807 30.7276 33.8585 29.0515 35.5343C28.0158 36.57 27.0766 36.4174 25.5995 37.8941C24.4383 39.0553 24.5711 40.015 22.8686 41.2712C21.847 42.025 20.7179 41.5478 20.0785 42.1871C18.727 43.5387 17.5299 45.5254 15.3292 43.2865L43.7903 14.8254C46.0288 17.0261 44.0424 18.2232 42.6909 19.5747Z" fill="#A0E557"/>
<path d="M43.5417 7.98071C42.6517 8.87106 41.8415 8.89547 40.8157 8.92675C39.6827 8.96109 38.3987 9 37.0979 10.3004C35.7967 11.6016 35.7578 12.8856 35.7234 14.0186C35.6925 15.0444 35.6681 15.8546 34.7778 16.745C33.8878 17.6349 33.0776 17.6594 32.0514 17.6906C30.9184 17.725 29.6348 17.7635 28.3336 19.0643C27.0328 20.3655 26.9939 21.6495 26.9596 22.7825C26.9287 23.8083 26.9042 24.6185 26.0139 25.5085C25.1239 26.3988 24.3133 26.4232 23.2875 26.4545C22.1546 26.4889 20.8705 26.5278 19.5697 27.8286C18.2685 29.1294 18.23 30.4134 18.1953 31.5464C18.1644 32.5722 18.14 33.3828 17.2496 34.2727C16.3597 35.1631 15.549 35.1875 14.5233 35.2188C13.3903 35.2531 12.1063 35.292 10.8051 36.5932C9.50388 37.894 9.46497 39.1784 9.43064 40.3114C9.39936 41.3372 9.37495 42.1478 8.4846 43.0378C8.19849 43.3239 8.19849 43.7877 8.4846 44.0738C8.62765 44.2165 8.81495 44.2882 9.00225 44.2882C9.18993 44.2882 9.37724 44.2165 9.52029 44.0738C10.8215 42.7727 10.8604 41.4886 10.8947 40.3557C10.926 39.3295 10.9504 38.5193 11.8408 37.6289C12.7311 36.7386 13.5414 36.7142 14.5675 36.6829C15.7005 36.6485 16.9845 36.6096 18.2853 35.3084C19.5865 34.0076 19.6254 32.7236 19.6598 31.591C19.6907 30.5649 19.7154 29.7546 20.6054 28.8643C21.4954 27.9743 22.3056 27.9499 23.3318 27.9186C24.4647 27.8843 25.7488 27.8454 27.0496 26.5446C28.3504 25.2437 28.3893 23.9597 28.4236 22.8267C28.4549 21.801 28.4793 20.9904 29.3693 20.1004C30.2593 19.2104 31.0699 19.186 32.0957 19.1547C33.2286 19.1204 34.5127 19.0815 35.8135 17.7807C37.1143 16.4799 37.1532 15.1958 37.1875 14.0629C37.2184 13.0371 37.2432 12.2265 38.1332 11.3365C39.0235 10.4465 39.8338 10.4217 40.8596 10.3908C41.9925 10.3565 43.2765 10.3176 44.5774 9.01678C44.8635 8.73068 44.8635 8.26681 44.5774 7.98071C44.2916 7.69499 43.8278 7.69499 43.5417 7.98071Z" fill="black"/>
<path d="M48.1906 12.7258C47.9701 12.5053 47.7137 12.334 47.4345 12.2169L47.6931 11.9583C48.9158 10.7357 49.5894 9.10985 49.5894 7.38065C49.5894 5.65145 48.9158 4.02562 47.6931 2.80301C45.169 0.279209 41.0621 0.278828 38.5379 2.80301L38.2773 3.06356C38.1625 2.78775 37.9943 2.5295 37.7704 2.30558C34.6961 -0.768688 29.6935 -0.768688 26.6192 2.30558L26.084 2.84078C25.7979 3.12688 25.7983 3.59075 26.084 3.87647C26.3701 4.16257 26.834 4.16257 27.1201 3.87647L27.6549 3.34165C30.1581 0.838062 34.2311 0.838444 36.7347 3.34127C37.0829 3.68993 37.0833 4.25718 36.735 4.60584L35.644 5.69684C35.0123 5.1975 34.3928 4.95794 33.7645 4.96289C32.556 4.98044 31.6821 5.92229 30.9111 6.75313C30.7364 6.94196 30.5713 7.11972 30.4034 7.28757C30.2813 7.41002 30.0307 7.44321 29.6321 7.48784C29.0748 7.55002 28.3809 7.62708 27.6965 8.13214C26.5773 8.95803 26.1466 9.70075 25.7666 10.3557C25.5141 10.791 25.2959 11.1671 24.8824 11.5806C24.1633 12.2997 23.5911 12.5847 23.038 12.8601C22.5215 13.1176 21.987 13.3838 21.4305 13.9404C20.3761 14.9948 19.9859 15.9725 19.6418 16.835C19.414 17.4068 19.216 17.9023 18.8449 18.341C18.4062 18.7122 17.9103 18.9102 17.3388 19.1379C16.4763 19.482 15.4986 19.8723 14.4442 20.9266C13.8877 21.4832 13.6214 22.0176 13.3639 22.5342C13.0885 23.0873 12.8035 23.6595 12.0845 24.3786C11.671 24.7925 11.2948 25.0103 10.8596 25.2628C10.2042 25.6427 9.46187 26.0734 8.63599 27.193C8.13092 27.877 8.05386 28.5709 7.99168 29.1286C7.94705 29.5269 7.91348 29.7775 7.79141 29.9C7.62357 30.0674 7.44542 30.2326 7.25697 30.4077C6.42613 31.1786 5.48428 32.0522 5.46674 33.2607C5.45796 33.8894 5.69943 34.5089 6.2003 35.1406L5.11006 36.2308C4.94107 36.3998 4.71677 36.4929 4.47797 36.4929C4.23878 36.4929 4.01448 36.3998 3.84549 36.2308C1.3419 33.7276 1.3419 29.6543 3.84549 27.1511L24.7104 6.28621C24.9965 6.00011 24.9965 5.53624 24.7104 5.25052C24.4243 4.96442 23.9604 4.96442 23.6747 5.25052L2.80942 26.1154C1.32016 27.6046 0.5 29.5845 0.5 31.691C0.5 33.797 1.32016 35.7773 2.80942 37.2665C3.02991 37.487 3.28625 37.6583 3.56549 37.7754L3.30685 38.034C2.08424 39.257 1.41057 40.8825 1.41057 42.6117C1.41057 44.3409 2.08424 45.9667 3.30685 47.1893C4.56876 48.4516 6.22662 49.0825 7.88449 49.0825C9.54236 49.0825 11.1998 48.4516 12.4621 47.1893L12.7211 46.9307C12.8379 47.2099 13.0092 47.4663 13.2296 47.6867C14.767 49.2241 16.7861 49.9927 18.8052 49.9923C20.8243 49.9923 22.8438 49.2237 24.3808 47.6867L24.916 47.1519C25.2021 46.8658 25.2021 46.402 24.916 46.1158C24.6299 45.8297 24.166 45.8301 23.8799 46.1158L23.3451 46.6511C20.8419 49.1543 16.7689 49.1543 14.2653 46.6511C14.0967 46.4821 14.0036 46.2574 14.0036 46.0186C14.0036 45.7802 14.0963 45.5559 14.2646 45.3869L15.3556 44.2959C15.9758 44.7876 16.5843 45.0298 17.2011 45.0298C17.2126 45.0298 17.224 45.0294 17.2355 45.0294C18.444 45.0119 19.3179 44.07 20.0889 43.2392C20.2636 43.0507 20.4287 42.8726 20.5966 42.7051C20.719 42.5827 20.9693 42.5491 21.3679 42.5049C21.9252 42.4427 22.6195 42.3652 23.3035 41.8606C24.4227 41.0343 24.8534 40.292 25.2334 39.6366C25.4859 39.2013 25.7041 38.8252 26.1176 38.4121C26.8367 37.6926 27.4089 37.4077 27.962 37.1322C28.4789 36.8747 29.013 36.6089 29.5695 36.0523C30.6239 34.9975 31.0141 34.0202 31.3582 33.1577C31.5863 32.5859 31.784 32.09 32.1551 31.6513C32.5942 31.2801 33.0897 31.0825 33.6612 30.8544C34.5237 30.5103 35.5014 30.1201 36.5561 29.0657C37.1123 28.5091 37.3786 27.9751 37.6361 27.4582C37.9115 26.905 38.1965 26.3332 38.9159 25.6138C39.3294 25.2002 39.7052 24.982 40.1404 24.7295C40.7958 24.3496 41.5381 23.9189 42.3644 22.7997C42.8691 22.1153 42.9465 21.4214 43.0087 20.8641C43.0529 20.4654 43.0865 20.2148 43.209 20.0927C43.3764 19.9249 43.5546 19.7597 43.743 19.585C44.5739 18.8141 45.5157 17.9401 45.5333 16.7316C45.5424 16.103 45.3006 15.4834 44.7997 14.8517L45.8896 13.7623C45.8896 13.7619 45.8899 13.7619 45.8899 13.7619C46.0589 13.5929 46.2836 13.4994 46.5224 13.4994C46.7612 13.4994 46.9859 13.5925 47.1549 13.7619C49.6581 16.2651 49.6581 20.338 47.1549 22.8412L26.2896 43.7061C26.0035 43.9922 26.0035 44.4561 26.2896 44.7422C26.4327 44.8848 26.6204 44.9566 26.8077 44.9566C26.995 44.9566 27.1827 44.8848 27.3253 44.7422L48.1906 23.8773C49.6798 22.3877 50.5 20.4078 50.5 18.3014C50.5 16.1953 49.6798 14.2151 48.1906 12.7258ZM8.25337 31.4811C8.44334 31.3049 8.6398 31.1226 8.8271 30.9353C9.31882 30.4439 9.3871 29.8313 9.44737 29.2907C9.49887 28.8288 9.54312 28.4301 9.81473 28.0624C10.4598 27.1877 10.9855 26.8829 11.5947 26.5297C12.0524 26.2642 12.5712 25.9632 13.1202 25.4142C14.0082 24.5262 14.3783 23.7838 14.6754 23.1872C14.9081 22.7195 15.0924 22.3503 15.4799 21.9623C16.3215 21.1208 17.0791 20.8187 17.8817 20.4982C18.5347 20.2377 19.2099 19.9684 19.8466 19.4114C19.871 19.3901 19.8939 19.3672 19.9153 19.3424C20.4726 18.7057 20.7419 18.0305 21.0025 17.3774C21.3225 16.5752 21.625 15.8176 22.4666 14.9761C22.8541 14.5885 23.2234 14.4043 23.6915 14.1716C24.2877 13.874 25.03 13.5044 25.9185 12.6163C26.4674 12.0674 26.7684 11.5486 27.0339 11.0904C27.3867 10.482 27.6919 9.95595 28.5663 9.3105C28.934 9.03928 29.3326 8.99503 29.7946 8.94353C30.3351 8.88326 30.9478 8.81498 31.4395 8.32288C31.6264 8.13596 31.8087 7.9395 31.985 7.74953C32.6117 7.07395 33.2038 6.43613 33.7859 6.42774C34.03 6.41973 34.2997 6.52921 34.5996 6.74169L7.24553 34.0957C7.03343 33.7959 6.92815 33.5239 6.93158 33.2821C6.93997 32.6999 7.57817 32.1079 8.25337 31.4811ZM42.7466 18.5112C42.5567 18.6874 42.3602 18.8698 42.1729 19.0567V19.0571C41.6812 19.5488 41.6129 20.1614 41.5526 20.7016C41.5011 21.1635 41.4569 21.5625 41.1857 21.9299C40.5402 22.8046 40.0145 23.1094 39.4057 23.4627C38.9476 23.7282 38.4288 24.0291 37.8798 24.5781C36.9918 25.4661 36.6217 26.2085 36.325 26.8051C36.0919 27.2728 35.9076 27.6424 35.5201 28.03C34.6785 28.8715 33.9209 29.174 33.1183 29.4941C32.4653 29.7546 31.7901 30.0239 31.1534 30.5809C31.129 30.6022 31.1061 30.6251 31.0847 30.6499C30.5274 31.2866 30.2581 31.9618 29.9975 32.6149C29.6775 33.4171 29.375 34.1751 28.5334 35.0162C28.1459 35.4042 27.7766 35.588 27.3085 35.8211C26.7123 36.1183 25.97 36.4879 25.0815 37.376C24.5326 37.9249 24.2316 38.4441 23.9661 38.9019C23.6133 39.5107 23.3081 40.0364 22.4337 40.6818C22.066 40.953 21.6674 40.9973 21.2054 41.0488C20.6649 41.1091 20.0522 41.1773 19.5605 41.6691C19.3736 41.8564 19.1913 42.0528 19.015 42.2428C18.3883 42.9184 17.7962 43.5562 17.2141 43.5646C16.9707 43.5707 16.7003 43.4631 16.4004 43.251L43.7545 15.897C43.9666 16.1964 44.0719 16.4688 44.0684 16.7106C44.06 17.2924 43.4222 17.8844 42.7466 18.5112ZM46.6575 10.9222L11.4264 46.1536C9.47331 48.1064 6.29567 48.1064 4.34254 46.1536C3.3965 45.2076 2.87541 43.9499 2.87541 42.6117C2.87541 41.2739 3.3965 40.0161 4.34254 39.0701L39.5736 3.8387C40.5501 2.86252 41.833 2.37424 43.1155 2.37424C44.3984 2.37424 45.6809 2.86252 46.6575 3.8387C47.6035 4.78513 48.1246 6.04284 48.1246 7.38065C48.1246 8.71846 47.6035 9.97617 46.6575 10.9222Z" fill="black"/>
</g>
<defs>
<clipPath id="clip0_267_1052">
<rect width="50" height="50" fill="white" transform="translate(0.5)"/>
</clipPath>
</defs>
</svg>
