<svg width="50" height="50" viewBox="0 0 50 50" fill="none" xmlns="http://www.w3.org/2000/svg">
<g clip-path="url(#clip0_267_1001)">
<path d="M46.3803 31.073L38.0354 11.9645L19.1228 3.14697L0.846189 47.2704C0.354783 48.4568 1.54306 49.6452 2.72959 49.1538L13.1368 44.843C13.4583 44.7098 13.8119 44.9461 13.8119 45.294V47.1099C13.8119 48.3016 14.7779 49.2676 15.9696 49.2676C17.1613 49.2676 18.1273 48.3016 18.1273 47.1099V43.4283C18.1273 43.0333 18.3652 42.6772 18.7302 42.5261L25.5736 39.6914C25.8951 39.5582 26.2487 39.7945 26.2487 40.1425V44.769C26.2487 45.9607 27.2147 46.9268 28.4064 46.9268C29.5981 46.9268 30.5642 45.9607 30.5642 44.769V38.2768C30.5642 37.8817 30.802 37.5257 31.167 37.3745L32.5742 36.7916C32.8957 36.6584 33.2493 36.8947 33.2493 37.2427V38.2001C33.2493 39.3917 34.2153 40.3578 35.407 40.3578C36.5987 40.3578 37.5647 39.3918 37.5647 38.2001V35.377C37.5647 34.9819 37.8026 34.6259 38.1676 34.4747L46.3803 31.073Z" fill="#FFE177"/>
<path d="M43.1157 33.4318C42.4635 32.7797 42.0602 31.8788 42.0602 30.8837C42.0602 18.2324 31.7676 7.93972 19.1163 7.93972C17.1261 7.93982 15.5126 6.32625 15.5126 4.33601C15.5126 3.88044 15.5971 3.4446 15.7514 3.04333C16.2711 1.69167 18.1218 1.35837 19.6564 1.35828C28.5772 1.35837 35.6416 5.65857 40.9134 11.5725C45.4664 16.6802 48.8578 22.8163 48.8579 30.521C48.8579 32.0556 48.3083 33.7289 46.9566 34.2485C46.5553 34.4028 46.1195 34.4873 45.6639 34.4874C44.6687 34.4873 43.7678 34.0841 43.1157 33.4318Z" fill="#FE9738"/>
<path d="M19.1163 0.732422C17.5817 0.732422 16.2719 1.69209 15.7523 3.04375C16.1536 2.88945 16.589 2.804 17.0447 2.804C33.6702 2.8042 47.1958 16.3299 47.196 32.9553C47.196 33.4109 47.1105 33.8464 46.9562 34.2477C48.3078 33.728 49.2675 32.4183 49.2676 30.8837C49.2674 14.2582 35.7417 0.732617 19.1163 0.732422Z" fill="#FE7701"/>
<path d="M24.6475 16.7861C23.75 17.6837 22.8727 18.3698 21.7385 18.0206C21.2397 17.867 20.7701 17.5929 20.3753 17.1981C19.0831 15.9058 19.0831 13.8106 20.3753 12.5182C20.7701 12.1235 21.2397 11.8494 21.7385 11.6958C22.8727 11.3466 23.5455 12.1049 24.443 13.0025C25.7352 14.2947 25.9398 15.4937 24.6475 16.7861Z" fill="#FE646F"/>
<path d="M25.055 12.5182C24.1575 11.6207 22.8727 11.3471 21.7385 11.6965C22.2374 11.8501 22.7072 12.1235 23.1019 12.5182C24.3942 13.8105 24.3942 15.9057 23.1019 17.1981C22.7072 17.5929 22.2374 17.8664 21.7385 18.0199C22.8727 18.3691 24.1575 18.0956 25.055 17.1981C26.3473 15.9057 26.3473 13.8105 25.055 12.5182Z" fill="#FD4755"/>
<path d="M30.959 31.0216C30.0615 31.9191 29.1842 32.6052 28.05 32.256C27.5512 32.1024 27.0816 31.8283 26.6869 31.4336C25.3946 30.1413 25.3946 28.0461 26.6869 26.7538C27.0816 26.3591 27.5512 26.0849 28.05 25.9313C29.1842 25.5821 29.857 26.3404 30.7545 27.2381C32.0467 28.5302 32.2513 29.7293 30.959 31.0216Z" fill="#FE646F"/>
<path d="M31.3666 26.7538C30.469 25.8563 29.1842 25.5827 28.05 25.9321C28.5489 26.0857 29.0187 26.3591 29.4134 26.7538C30.7057 28.0461 30.7057 30.1413 29.4134 31.4336C29.0187 31.8284 28.5489 32.1019 28.05 32.2554C29.1842 32.6046 30.469 32.3312 31.3666 31.4336C32.6588 30.1413 32.6588 28.0461 31.3666 26.7538Z" fill="#FD4755"/>
<path d="M19.5121 37.8715C18.8302 38.5533 18.1318 38.8814 17.2832 38.5675C16.9695 38.4515 16.6754 38.2676 16.4234 38.0157C15.4897 37.082 15.4897 35.568 16.4234 34.6343C16.6754 34.3824 16.9695 34.1984 17.2832 34.0824C18.1319 33.7686 18.9552 34.4298 19.637 35.1115C20.5707 36.0452 20.4459 36.9377 19.5121 37.8715Z" fill="#FE646F"/>
<path d="M19.8048 34.6343C19.123 33.9526 18.1327 33.7709 17.2841 34.0847C17.5977 34.2007 17.8927 34.3822 18.1446 34.6343C19.0784 35.568 19.0784 37.082 18.1446 38.0156C17.8927 38.2676 17.5977 38.4492 17.2841 38.5653C18.1328 38.879 19.1231 38.6974 19.8048 38.0156C20.7385 37.0819 20.7385 35.568 19.8048 34.6343Z" fill="#FD4755"/>
<path d="M19.6719 22.484H21.3361C21.6058 22.484 21.8244 22.7027 21.8244 22.9723V30.1396C21.8244 30.4092 21.6058 30.6279 21.3361 30.6279H19.6719C19.4022 30.6279 19.1836 30.4092 19.1836 30.1396V22.9723C19.1836 22.7026 19.4022 22.484 19.6719 22.484Z" fill="#97DA7B"/>
<path d="M21.6291 22.484H20.1622C20.432 22.484 20.6505 22.7027 20.6505 22.9723V30.1396C20.6505 30.4092 20.432 30.6279 20.1622 30.6279H21.6291C21.8988 30.6279 22.1174 30.4092 22.1174 30.1396V22.9723C22.1174 22.7026 21.8988 22.484 21.6291 22.484Z" fill="#68CA44"/>
<path d="M29.1077 18.5598L30.2845 17.3831C30.4752 17.1924 30.7843 17.1924 30.975 17.3831L36.043 22.4512C36.2338 22.6419 36.2338 22.951 36.043 23.1417L34.8663 24.3184C34.6756 24.5092 34.3665 24.5092 34.1758 24.3184L29.1077 19.2504C28.9171 19.0598 28.9171 18.7506 29.1077 18.5598Z" fill="#97DA7B"/>
<path d="M30.4917 17.176L29.4545 18.2132C29.6452 18.0225 29.9543 18.0225 30.145 18.2132L35.2131 23.2813C35.4038 23.472 35.4038 23.7811 35.2131 23.9718L36.2503 22.9346C36.4409 22.7439 36.441 22.4348 36.2503 22.2441L31.1822 17.176C30.9916 16.9853 30.6824 16.9853 30.4917 17.176Z" fill="#68CA44"/>
<path d="M7.6522 38.6167L8.82895 37.4399C9.01968 37.2492 9.32876 37.2492 9.51948 37.4399L12.516 40.4364C12.7067 40.6271 12.7067 40.9362 12.516 41.1269L11.3392 42.3037C11.1485 42.4944 10.8394 42.4944 10.6487 42.3037L7.6522 39.3072C7.46147 39.1166 7.46147 38.8074 7.6522 38.6167Z" fill="#97DA7B"/>
<path d="M9.03611 37.2328L7.9989 38.27C8.18962 38.0793 8.49871 38.0793 8.68943 38.27L11.6859 41.2665C11.8766 41.4572 11.8766 41.7663 11.6859 41.957L12.7231 40.9198C12.9137 40.7291 12.9138 40.42 12.7231 40.2293L9.72664 37.2328C9.53601 37.0421 9.22683 37.0421 9.03611 37.2328Z" fill="#68CA44"/>
<path d="M17.2085 22.0757C17.4946 21.7897 17.4946 21.326 17.2085 21.04C16.9225 20.7539 16.4587 20.7539 16.1728 21.04C15.8867 21.326 15.8867 21.7897 16.1728 22.0757C16.4588 22.3617 16.9225 22.3617 17.2085 22.0757Z" fill="black"/>
<path d="M36.2571 27.3282C35.9711 27.6143 35.9711 28.0779 36.2571 28.364C36.5432 28.65 37.0068 28.65 37.293 28.364C37.579 28.0779 37.579 27.6143 37.293 27.3282C37.0068 27.0423 36.5432 27.0423 36.2571 27.3282Z" fill="black"/>
<path d="M11.3254 30.4515C11.0393 30.7375 11.0393 31.2013 11.3254 31.4872C11.6114 31.7732 12.0752 31.7732 12.3611 31.4872C12.6471 31.2012 12.6471 30.7375 12.3611 30.4515C12.0751 30.1654 11.6114 30.1654 11.3254 30.4515Z" fill="black"/>
<path d="M19.8582 12C18.2826 13.5758 18.2826 16.1397 19.8582 17.7154C20.6461 18.5033 21.6811 18.8973 22.716 18.8973C23.7509 18.8973 24.7859 18.5033 25.5737 17.7154C26.3371 16.9521 26.7575 15.9373 26.7575 14.8577C26.7575 13.7782 26.3371 12.7633 25.5737 12C23.998 10.4243 21.434 10.4243 19.8582 12ZM24.538 16.6797C24.5379 16.6797 24.5379 16.6797 24.538 16.6797C23.5333 17.6843 21.8986 17.6843 20.894 16.6797C19.8895 15.6751 19.8895 14.0404 20.8939 13.0357C21.3964 12.5334 22.0561 12.2823 22.716 12.2823C23.3758 12.2823 24.0357 12.5335 24.538 13.0357C25.0247 13.5225 25.2927 14.1694 25.2927 14.8577C25.2926 15.546 25.0246 16.193 24.538 16.6797Z" fill="black"/>
<path d="M26.1696 31.95C26.9574 32.7379 27.9925 33.1318 29.0274 33.1318C30.0622 33.1318 31.0973 32.7379 31.8851 31.95C32.6485 31.1867 33.0689 30.1719 33.0689 29.0923C33.0689 28.0128 32.6485 26.9978 31.8851 26.2346C30.3095 24.6589 27.7454 24.6589 26.1696 26.2346C24.5939 27.8103 24.5939 30.3743 26.1696 31.95ZM27.2053 27.2703C27.7077 26.768 28.3674 26.5169 29.0274 26.5169C29.6871 26.5169 30.3471 26.7681 30.8493 27.2703C31.3361 27.757 31.604 28.404 31.604 29.0923C31.604 29.7806 31.3361 30.4275 30.8494 30.9142C30.8493 30.9142 30.8493 30.9142 30.8493 30.9142C29.8447 31.9188 28.2101 31.9188 27.2055 30.9142C26.2008 29.9097 26.2008 28.275 27.2053 27.2703Z" fill="black"/>
<path d="M15.9064 38.5323C16.5153 39.1412 17.3151 39.4457 18.1149 39.4457C18.9147 39.4457 19.7145 39.1412 20.3235 38.5323C21.5412 37.3146 21.5412 35.3331 20.3235 34.1154C19.1057 32.8976 17.1242 32.8976 15.9064 34.1154C14.6887 35.3331 14.6887 37.3147 15.9064 38.5323ZM16.9423 35.1511C17.2655 34.8278 17.6902 34.6661 18.1149 34.6661C18.5396 34.6661 18.9643 34.8278 19.2876 35.1511C19.9343 35.7978 19.9343 36.8499 19.2876 37.4966C18.641 38.1433 17.5887 38.1433 16.9422 37.4966C16.2956 36.8499 16.2956 35.7978 16.9423 35.1511Z" fill="black"/>
<path d="M18.4521 30.1386C18.4521 30.8117 18.9997 31.3594 19.6729 31.3594H21.6299C22.3029 31.3594 22.8506 30.8118 22.8506 30.1386V22.9716C22.8506 22.2985 22.303 21.7509 21.6299 21.7509H19.6729C18.9998 21.7509 18.4521 22.2984 18.4521 22.9716V30.1386ZM19.9169 23.2157H21.3857V29.8945H19.9169V23.2157Z" fill="black"/>
<path d="M31.7007 16.6575C31.4701 16.4269 31.1636 16.3 30.8375 16.3C30.5114 16.3 30.2049 16.4269 29.9744 16.6575L28.5905 18.0414C28.1147 18.5173 28.1146 19.2917 28.5904 19.7677L33.6583 24.8355C33.8888 25.0661 34.1954 25.1932 34.5215 25.1932C34.8476 25.1932 35.1541 25.0662 35.3847 24.8356L36.7685 23.4517C36.999 23.2212 37.1261 22.9146 37.1261 22.5886C37.1261 22.2625 36.999 21.9559 36.7686 21.7254L31.7007 16.6575ZM34.5216 23.6272L29.7989 18.9046L30.8375 17.8659L35.5602 22.5886L34.5216 23.6272Z" fill="black"/>
<path d="M9.38247 36.3563C9.0564 36.3563 8.74985 36.4832 8.51938 36.7138L7.1355 38.0977C6.65972 38.5735 6.65962 39.348 7.1354 39.8239L10.1319 42.8204C10.3625 43.0509 10.669 43.1778 10.9951 43.1778C11.3211 43.1778 11.6277 43.0509 11.8582 42.8203L13.2421 41.4363C13.7179 40.9605 13.7179 40.186 13.2421 39.7101L10.2457 36.7136C10.0151 36.4832 9.70854 36.3563 9.38247 36.3563ZM10.9951 41.612L8.3439 38.9609L9.38247 37.9222L12.0336 40.5734L10.9951 41.612Z" fill="black"/>
<path d="M48.308 20.7942C48.1756 20.4121 47.7587 20.2095 47.3761 20.3421C46.9939 20.4745 46.7914 20.8917 46.9238 21.2739C47.9931 24.3588 48.5352 27.5917 48.5352 30.8827C48.5351 32.4659 47.2471 33.7539 45.664 33.7539C44.8971 33.7539 44.176 33.4553 43.6338 32.9129C43.0915 32.3706 42.7929 31.6495 42.7928 30.8827C42.7928 17.8279 32.1719 7.20703 19.1172 7.20703C18.3503 7.20703 17.6292 6.9084 17.087 6.36602C16.5446 5.82373 16.246 5.10273 16.246 4.33584C16.2461 2.75283 17.5341 1.46484 19.1172 1.46484C24.7981 1.46484 30.3151 3.09453 35.0721 6.17744C39.7066 9.18096 43.3972 13.4014 45.7452 18.3825C45.9178 18.7484 46.3543 18.9052 46.72 18.7327C47.0859 18.5603 47.2426 18.1238 47.0702 17.7579C44.6058 12.5298 40.7324 8.10019 35.8688 4.94814C30.874 1.71113 25.0814 9.76563e-05 19.1172 0C16.7264 9.76563e-05 14.7813 1.94512 14.7812 4.33594C14.7812 5.49414 15.2322 6.58291 16.0512 7.40195C16.1714 7.52217 16.2981 7.6335 16.4293 7.7376L11.3786 19.9311C11.2237 20.3047 11.4012 20.7332 11.775 20.888C11.8666 20.926 11.9615 20.9439 12.055 20.9439C12.3423 20.9439 12.6151 20.7736 12.7318 20.4916L17.7227 8.44268C18.166 8.59277 18.6355 8.67188 19.1172 8.67188C31.3643 8.67188 41.328 18.6356 41.328 30.8828C41.3281 31.3645 41.4072 31.8338 41.5573 32.2771L37.8878 33.7971C37.247 34.0626 36.8329 34.6823 36.8329 35.3759V38.1989C36.8329 38.9848 36.1936 39.6241 35.4077 39.6241C34.6219 39.6241 33.9825 38.9848 33.9825 38.1989V37.2415C33.9825 36.833 33.7798 36.4536 33.4401 36.2266C33.1004 35.9995 32.672 35.9574 32.2946 36.1138L30.8875 36.6967C30.2467 36.9621 29.8326 37.5818 29.8326 38.2755V40.0312C29.8326 40.4357 30.1605 40.7637 30.5651 40.7637C30.9695 40.7637 31.2975 40.4357 31.2975 40.0312V38.2755C31.2975 38.1764 31.3566 38.0879 31.4482 38.05L32.5178 37.6069V38.1989C32.5178 39.7925 33.8143 41.089 35.4078 41.089C37.0014 41.089 38.2979 39.7925 38.2979 38.1989V35.376C38.2979 35.2769 38.3569 35.1884 38.4486 35.1505L42.2627 33.5706C42.3668 33.7019 42.478 33.8285 42.5983 33.9487C43.4173 34.7677 44.5061 35.2188 45.6643 35.2188C48.055 35.2188 50.0001 33.2736 50.0002 30.8827C50 27.4281 49.4308 24.0339 48.308 20.7942Z" fill="black"/>
<path d="M30.5647 42.491C30.1601 42.491 29.8323 42.819 29.8323 43.2235V44.7678C29.8323 45.5537 29.1929 46.1931 28.407 46.1931C27.6211 46.1931 26.9818 45.5537 26.9818 44.7678V40.1414C26.9818 39.7328 26.779 39.3534 26.4393 39.1265C26.0997 38.8995 25.6714 38.8574 25.2941 39.0137L18.4509 41.8483C17.81 42.1137 17.3959 42.7334 17.3959 43.4272V47.1086C17.3959 47.8945 16.7565 48.5338 15.9707 48.5338C15.1849 48.5338 14.5455 47.8945 14.5455 47.1086V45.2929C14.5455 44.8843 14.3427 44.5049 14.003 44.2779C13.6634 44.0509 13.2351 44.0088 12.8578 44.1651L2.45057 48.4757C2.04442 48.6439 1.75643 48.4006 1.67782 48.322C1.59921 48.2434 1.35594 47.9555 1.52411 47.5493L11.5141 23.4314C11.669 23.0577 11.4916 22.6292 11.1178 22.4744C10.744 22.3196 10.3156 22.4971 10.1608 22.8708L0.170886 46.9888C-0.171985 47.8165 0.00858114 48.7242 0.642077 49.3577C1.06337 49.779 1.60585 50 2.16542 50C2.44745 50 2.73378 49.9439 3.01112 49.829L13.0805 45.6581V47.1085C13.0805 48.7021 14.3769 49.9986 15.9705 49.9986C17.5641 49.9986 18.8605 48.7021 18.8605 47.1085V43.4271C18.8605 43.328 18.9196 43.2395 19.0113 43.2015L25.517 40.5068V44.7678C25.517 46.3614 26.8135 47.6578 28.407 47.6578C30.0007 47.6578 31.2972 46.3614 31.2972 44.7678V43.2235C31.2972 42.819 30.9693 42.491 30.5647 42.491Z" fill="black"/>
</g>
<defs>
<clipPath id="clip0_267_1001">
<rect width="50" height="50" fill="white"/>
</clipPath>
</defs>
</svg>
