<svg width="51" height="50" viewBox="0 0 51 50" fill="none" xmlns="http://www.w3.org/2000/svg">
<mask id="mask0_267_674" style="mask-type:luminance" maskUnits="userSpaceOnUse" x="0" y="0" width="51" height="50">
<path d="M0.5 3.8147e-06H50.5V50H0.5V3.8147e-06Z" fill="white"/>
</mask>
<g mask="url(#mask0_267_674)">
<path d="M36.6482 18.6827C34.5923 18.6827 32.9257 17.0161 32.9257 14.9602C32.9257 12.9043 34.5923 11.2376 36.6482 11.2376C38.7041 11.2376 40.3708 12.9043 40.3708 14.9602C40.3708 17.0161 38.7041 18.6827 36.6482 18.6827ZM36.6482 8.72688C33.2057 8.72688 30.4149 11.5176 30.4149 14.9602C30.4149 18.4028 33.2057 21.1935 36.6482 21.1935C40.0907 21.1935 42.8815 18.4028 42.8815 14.9602C42.8815 11.5176 40.0907 8.72688 36.6482 8.72688Z" fill="#FED2A4"/>
<path d="M39.5625 9.44875C38.6928 8.98792 37.701 8.72688 36.6482 8.72688C33.2057 8.72688 30.4149 11.5176 30.4149 14.9602C30.4149 18.4028 33.2057 21.1935 36.6482 21.1935C40.0907 21.1935 42.8815 18.4028 42.8815 14.9602C42.8815 13.8136 42.5719 12.7393 42.0317 11.8163M36.6482 18.6827C34.5923 18.6827 32.9257 17.0161 32.9257 14.9602C32.9257 12.9043 34.5923 11.2376 36.6482 11.2376C38.7041 11.2376 40.3708 12.9043 40.3708 14.9602C40.3708 17.0161 38.7041 18.6827 36.6482 18.6827Z" stroke="black" stroke-width="1.5" stroke-miterlimit="10" stroke-linecap="round" stroke-linejoin="round"/>
<path d="M11.8294 24.7326C9.77341 24.7326 8.10681 23.066 8.10681 21.0101C8.10681 18.9542 9.77341 17.2875 11.8294 17.2875C13.8852 17.2875 15.5519 18.9542 15.5519 21.0101C15.5519 23.066 13.8852 24.7326 11.8294 24.7326ZM11.8294 14.7768C8.38679 14.7768 5.59607 17.5675 5.59607 21.0101C5.59607 24.4527 8.38679 27.2433 11.8294 27.2433C15.2719 27.2433 18.0627 24.4527 18.0627 21.0101C18.0627 17.5675 15.2719 14.7768 11.8294 14.7768Z" fill="#FED2A4"/>
<path d="M11.8294 24.7326C9.77341 24.7326 8.10681 23.066 8.10681 21.0101C8.10681 18.9542 9.77341 17.2875 11.8294 17.2875C13.8852 17.2875 15.5519 18.9542 15.5519 21.0101C15.5519 23.066 13.8852 24.7326 11.8294 24.7326ZM11.8294 14.7768C8.38679 14.7768 5.59607 17.5675 5.59607 21.0101C5.59607 24.4527 8.38679 27.2433 11.8294 27.2433C15.2719 27.2433 18.0627 24.4527 18.0627 21.0101C18.0627 17.5675 15.2719 14.7768 11.8294 14.7768Z" stroke="black" stroke-width="1.5" stroke-miterlimit="10" stroke-linecap="round" stroke-linejoin="round"/>
<path d="M27.411 18.4143C30.4707 21.4739 35.3569 21.5934 38.5593 18.7729C38.7721 18.5855 38.7854 18.2585 38.5849 18.058L27.7675 7.24061C27.567 7.04002 27.2399 7.0534 27.0524 7.2661C24.2319 10.4684 24.3515 15.3548 27.411 18.4143Z" fill="#FB2B3A"/>
<path d="M30.1017 19.487C27.1924 16.5777 26.9435 12.0181 29.3507 8.82373L27.7675 7.24053C27.567 7.04004 27.2399 7.05332 27.0524 7.26611C24.2319 10.4685 24.3515 15.3548 27.411 18.4144C28.5868 19.59 30.0325 20.3298 31.5485 20.6372C31.0349 20.3159 30.5483 19.9338 30.1017 19.487Z" fill="#E41F2D"/>
<path d="M27.411 18.4143C30.4707 21.4739 35.3569 21.5934 38.5593 18.7729C38.7721 18.5855 38.7854 18.2585 38.5849 18.058L27.7675 7.24061C27.567 7.04002 27.2399 7.0534 27.0524 7.2661C24.2319 10.4684 24.3515 15.3548 27.411 18.4143Z" stroke="black" stroke-width="1.5" stroke-miterlimit="10" stroke-linecap="round" stroke-linejoin="round"/>
<path d="M29.556 16.1119L30.343 15.3249" stroke="black" stroke-width="1.5" stroke-miterlimit="10" stroke-linecap="round" stroke-linejoin="round"/>
<path d="M28.2004 12.6166H29.3133" stroke="black" stroke-width="1.5" stroke-miterlimit="10" stroke-linecap="round" stroke-linejoin="round"/>
<path d="M32.9862 17.6249V16.512" stroke="black" stroke-width="1.5" stroke-miterlimit="10" stroke-linecap="round" stroke-linejoin="round"/>
<path d="M21.8009 10.8808C24.5164 8.16535 24.6354 3.83674 22.1581 0.9799C21.9723 0.765643 21.6434 0.753924 21.4429 0.954412L11.8746 10.5228C11.6741 10.7233 11.6858 11.0522 11.8999 11.238C14.7569 13.7153 19.0855 13.5962 21.8009 10.8808Z" fill="#FD4755"/>
<path d="M13.7094 9.01447C13.6468 8.96027 13.6038 8.89318 13.5759 8.82131L11.8745 10.5228C11.6741 10.7233 11.6858 11.0522 11.9 11.238C14.7569 13.7153 19.0855 13.5962 21.8009 10.8808C22.3315 10.3501 22.7616 9.75734 23.0939 9.12658C20.3702 11.3773 16.3914 11.3401 13.7094 9.01447Z" fill="#FB2B3A"/>
<path d="M16.8085 5.58873L11.8746 10.5227C11.6741 10.7233 11.6858 11.0522 11.8999 11.2379C14.7569 13.7152 19.0855 13.5961 21.8009 10.8807C24.5164 8.16529 24.6354 3.83677 22.1581 0.97984C21.9723 0.765583 21.6434 0.753864 21.4429 0.954352L19.2499 3.14732" stroke="black" stroke-width="1.5" stroke-miterlimit="10" stroke-linecap="round" stroke-linejoin="round"/>
<path d="M19.7474 8.96753L19.0454 8.26558" stroke="black" stroke-width="1.5" stroke-miterlimit="10" stroke-linecap="round" stroke-linejoin="round"/>
<path d="M16.6296 10.1766V9.18396" stroke="black" stroke-width="1.5" stroke-miterlimit="10" stroke-linecap="round" stroke-linejoin="round"/>
<path d="M21.0969 5.90802H20.1041" stroke="black" stroke-width="1.5" stroke-miterlimit="10" stroke-linecap="round" stroke-linejoin="round"/>
<path d="M19.3092 26.1006C18.9599 26.1006 18.6192 26.1368 18.2901 26.2052C18.7164 24.9595 18.4152 23.3276 17.3807 21.9665C15.905 20.0251 13.498 19.3714 12.0046 20.5066C10.6954 21.5017 10.523 23.5409 11.4944 25.3368C9.85231 25.6326 8.58532 26.679 8.39518 28.0743C8.14186 29.933 9.89528 31.7069 12.3116 32.0362C13.0448 32.1362 13.7543 32.0908 14.3947 31.9283C14.7947 34.2816 16.8421 36.0739 19.3092 36.0739C22.0632 36.0739 24.2959 33.8412 24.2959 31.0872C24.2959 28.3332 22.0632 26.1006 19.3092 26.1006Z" fill="#81D261"/>
<path d="M19.3092 26.1006C18.9599 26.1006 18.6192 26.1368 18.2901 26.2052C18.7164 24.9595 18.4152 23.3276 17.3807 21.9665C15.905 20.0251 13.498 19.3714 12.0046 20.5066C10.6954 21.5017 10.523 23.5409 11.4944 25.3368C9.85231 25.6326 8.58532 26.679 8.39518 28.0743C8.14186 29.933 9.89528 31.7069 12.3116 32.0362C13.0448 32.1362 13.7543 32.0908 14.3947 31.9283C14.7947 34.2816 16.8421 36.0739 19.3092 36.0739C22.0632 36.0739 24.2959 33.8412 24.2959 31.0872C24.2959 28.3332 22.0632 26.1006 19.3092 26.1006Z" stroke="black" stroke-width="1.5" stroke-miterlimit="10" stroke-linecap="round" stroke-linejoin="round"/>
<path d="M18.3192 32.8809C17.8566 32.0797 17.9942 31.0361 18.5876 30.0063C16.0982 29.703 14.2246 28.3826 14.2246 26.7995C14.2246 25.6359 15.2376 24.6148 16.7625 24.0346C16.5784 23.8851 16.3987 23.7252 16.2259 23.5523C14.1162 21.4426 13.738 18.4004 15.3812 16.7573C17.0242 15.1141 20.0665 15.4923 22.1762 17.602C22.3516 17.7775 22.514 17.9598 22.6652 18.1469C23.2454 16.6213 24.2666 15.608 25.4305 15.608C27.0113 15.608 28.3304 17.4762 28.6361 19.9602C29.6641 19.3698 30.7051 19.2337 31.5048 19.6954C33.0699 20.5991 33.1179 23.4464 31.6117 26.055C30.6264 27.7617 29.2201 28.943 27.9271 29.3032C27.5669 30.5962 26.3855 32.0025 24.6789 32.9879C22.0702 34.494 19.2229 34.4461 18.3192 32.8809Z" fill="#017B4E"/>
<path d="M21.4892 32.8809C21.0266 32.0797 21.1642 31.0361 21.7575 30.0063C19.2682 29.703 17.3945 28.3826 17.3945 26.7995C17.3945 25.8078 18.1304 24.9196 19.2918 24.3197C19.5789 24.1713 19.6298 23.7857 19.401 23.5575C19.3993 23.5557 19.3976 23.554 19.3958 23.5523C17.2861 21.4427 16.9079 18.4004 18.5511 16.7573C18.875 16.4333 19.254 16.189 19.6689 16.02C18.0745 15.4809 16.4383 15.7001 15.3812 16.7573C13.738 18.4004 14.1162 21.4427 16.2259 23.5523C16.3988 23.7252 16.5784 23.8851 16.7625 24.0346C15.2377 24.6148 14.2246 25.6359 14.2246 26.7995C14.2246 28.3826 16.0982 29.703 18.5877 30.0063C17.9943 31.0361 17.8567 32.0797 18.3193 32.8809C18.9912 34.0448 20.7382 34.3689 22.6623 33.8398C22.1502 33.6404 21.743 33.3205 21.4892 32.8809Z" fill="#026841"/>
<path d="M18.3192 32.8809C17.8566 32.0797 17.9942 31.0361 18.5876 30.0063C16.0982 29.703 14.2246 28.3826 14.2246 26.7995C14.2246 25.6359 15.2376 24.6148 16.7625 24.0346C16.5784 23.8851 16.3987 23.7252 16.2259 23.5523C14.1162 21.4426 13.738 18.4004 15.3812 16.7573C17.0242 15.1141 20.0665 15.4923 22.1762 17.602C22.3516 17.7775 22.514 17.9598 22.6652 18.1469C23.2454 16.6213 24.2666 15.608 25.4305 15.608C27.0113 15.608 28.3304 17.4762 28.6361 19.9602C29.6641 19.3698 30.7051 19.2337 31.5048 19.6954C33.0699 20.5991 33.1179 23.4464 31.6117 26.055C30.6264 27.7617 29.2201 28.943 27.9271 29.3032C27.5669 30.5962 26.3855 32.0025 24.6789 32.9879C22.0702 34.494 19.2229 34.4461 18.3192 32.8809Z" stroke="black" stroke-width="1.5" stroke-miterlimit="10" stroke-linecap="round" stroke-linejoin="round"/>
<path d="M20.2295 21.6056L29.8527 31.2288" stroke="black" stroke-width="1.5" stroke-miterlimit="10" stroke-linecap="round" stroke-linejoin="round"/>
<path d="M41.3884 32.2576C41.851 31.4564 41.7134 30.4128 41.1201 29.383C43.6094 29.0797 45.4832 27.7593 45.4832 26.1762C45.4832 25.0126 44.4701 23.9915 42.9452 23.4113C43.1293 23.2618 43.3089 23.1019 43.4818 22.929C45.5915 20.8193 45.9697 17.7771 44.3266 16.134C42.6834 14.4908 39.6413 14.8691 37.5315 16.9787C37.3561 17.1542 37.1938 17.3365 37.0424 17.5236C36.4623 15.9981 35.4411 14.9846 34.2772 14.9846C32.6963 14.9846 31.3773 16.8529 31.0715 19.3369C30.0437 18.7465 29.0026 18.6104 28.2029 19.0721C26.6377 19.9757 26.5898 22.8231 28.0959 25.4318C29.0813 27.1384 30.4875 28.3197 31.7806 28.6799C32.1408 29.9729 33.3221 31.3792 35.0288 32.3646C37.6375 33.8707 40.4848 33.8228 41.3884 32.2576Z" fill="#68CA44"/>
<path d="M41.3884 32.2576C41.851 31.4564 41.7134 30.4128 41.1201 29.383C43.6094 29.0797 45.4832 27.7593 45.4832 26.1762C45.4832 25.0126 44.4701 23.9915 42.9452 23.4113C43.1293 23.2618 43.3089 23.1019 43.4818 22.929C45.5915 20.8193 45.9697 17.7771 44.3266 16.134C42.6834 14.4908 39.6413 14.8691 37.5315 16.9787C37.3561 17.1542 37.1938 17.3365 37.0424 17.5236C36.4623 15.9981 35.4411 14.9846 34.2772 14.9846C32.6963 14.9846 31.3773 16.8529 31.0715 19.3369C30.0437 18.7465 29.0026 18.6104 28.2029 19.0721C26.6377 19.9757 26.5898 22.8231 28.0959 25.4318C29.0813 27.1384 30.4875 28.3197 31.7806 28.6799C32.1408 29.9729 33.3221 31.3792 35.0288 32.3646C37.6375 33.8707 40.4848 33.8228 41.3884 32.2576Z" stroke="black" stroke-width="1.5" stroke-miterlimit="10" stroke-linecap="round" stroke-linejoin="round"/>
<path d="M39.4782 20.9823L29.855 30.6055" stroke="black" stroke-width="1.5" stroke-miterlimit="10" stroke-linecap="round" stroke-linejoin="round"/>
<path d="M30.5403 32.8766C33.5786 35.9149 38.4256 36.0422 41.6154 33.2583C41.8432 33.0595 41.8564 32.7094 41.6425 32.4955L30.9215 21.7744C30.7077 21.5606 30.3575 21.5737 30.1586 21.8016C27.3748 24.9914 27.502 29.8384 30.5403 32.8766Z" fill="white"/>
<path d="M30.5403 32.8766C33.5786 35.9149 38.4256 36.0422 41.6154 33.2583C41.8432 33.0595 41.8564 32.7094 41.6425 32.4955L30.9215 21.7744C30.7077 21.5606 30.3575 21.5737 30.1586 21.8016C27.3748 24.9914 27.502 29.8384 30.5403 32.8766Z" stroke="black" stroke-width="1.5" stroke-miterlimit="10" stroke-linecap="round" stroke-linejoin="round"/>
<path d="M33.2471 30.1698C34.9233 31.846 37.6408 31.846 39.3169 30.1698L33.2471 24.1C31.5709 25.7762 31.5709 28.4936 33.2471 30.1698Z" fill="#FDDF30"/>
<path d="M34.8598 30.1699C33.4631 28.773 33.2313 26.6534 34.1626 25.0156L33.247 24.1001C31.571 25.7761 31.571 28.4937 33.247 30.1699C34.2912 31.214 35.7394 31.6074 37.0884 31.3507C36.2719 31.1953 35.4919 30.8018 34.8598 30.1699Z" fill="#FED402"/>
<path d="M33.2471 30.1698C34.9233 31.846 37.6408 31.846 39.3169 30.1698L33.2471 24.1C31.5709 25.7762 31.5709 28.4936 33.2471 30.1698Z" stroke="black" stroke-width="1.5" stroke-miterlimit="10" stroke-linecap="round" stroke-linejoin="round"/>
<path d="M23.6609 34.6647C21.605 34.6647 19.9384 32.9981 19.9384 30.9422C19.9384 28.8863 21.605 27.2196 23.6609 27.2196C25.7169 27.2196 27.3835 28.8863 27.3835 30.9422C27.3835 32.9981 25.7169 34.6647 23.6609 34.6647ZM23.6609 24.7089C20.2184 24.7089 17.4276 27.4996 17.4276 30.9422C17.4276 34.3847 20.2184 37.1754 23.6609 37.1754C27.1034 37.1754 29.8942 34.3847 29.8942 30.9422C29.8942 27.4996 27.1034 24.7089 23.6609 24.7089Z" fill="#FED2A4"/>
<path d="M23.6609 34.6647C21.605 34.6647 19.9384 32.9981 19.9384 30.9422C19.9384 28.8863 21.605 27.2196 23.6609 27.2196C25.7169 27.2196 27.3835 28.8863 27.3835 30.9422C27.3835 32.9981 25.7169 34.6647 23.6609 34.6647ZM23.6609 24.7089C20.2184 24.7089 17.4276 27.4996 17.4276 30.9422C17.4276 34.3847 20.2184 37.1754 23.6609 37.1754C27.1034 37.1754 29.8942 34.3847 29.8942 30.9422C29.8942 27.4996 27.1034 24.7089 23.6609 24.7089Z" stroke="black" stroke-width="1.5" stroke-miterlimit="10" stroke-linecap="round" stroke-linejoin="round"/>
<path d="M18.191 49.2676H32.0632C32.2523 49.2676 32.4404 49.2324 32.6153 49.1602C39.4473 46.3394 44.3398 39.7748 44.7359 32.0227C44.7643 31.4676 44.3161 31.0041 43.7602 31.0041H6.49393C5.93817 31.0041 5.48983 31.4676 5.51825 32.0227C5.91444 39.7748 10.8069 46.3394 17.6389 49.1602C17.8138 49.2324 18.0018 49.2676 18.191 49.2676Z" fill="#D8ECFE"/>
<path d="M9.23024 32.0226C9.20182 31.4675 9.65006 31.004 10.2059 31.004H6.49381C5.93805 31.004 5.48971 31.4675 5.51813 32.0226C5.91422 39.7747 10.8068 46.3393 17.6388 49.1602C17.8136 49.2324 18.0017 49.2675 18.1909 49.2675H21.903C21.7138 49.2675 21.5257 49.2324 21.3509 49.1602C14.5189 46.3393 9.62643 39.7747 9.23024 32.0226Z" fill="#C4E2FF"/>
<path d="M43.7604 31.0041H6.49405C5.93829 31.0041 5.48995 31.4676 5.51837 32.0227C5.58087 33.247 5.75597 34.4417 6.03273 35.5967H44.2217C44.4984 34.4417 44.6735 33.247 44.736 32.0227C44.7645 31.4676 44.3161 31.0041 43.7604 31.0041Z" fill="#EAF6FF"/>
<path d="M5.51813 32.0226C5.58072 33.247 5.75572 34.4417 6.03258 35.5967H9.74469C9.46783 34.4417 9.29283 33.247 9.23024 32.0226C9.20192 31.4675 9.65016 31.0041 10.2059 31.0041H6.49381C5.93805 31.0041 5.48971 31.4675 5.51813 32.0226Z" fill="#D8ECFE"/>
<path d="M36.7305 35.5967H44.2215" stroke="black" stroke-width="1.5" stroke-miterlimit="10" stroke-linecap="round" stroke-linejoin="round"/>
<path d="M6.03259 35.5967H33.2149" stroke="black" stroke-width="1.5" stroke-miterlimit="10" stroke-linecap="round" stroke-linejoin="round"/>
<path d="M18.191 49.2676H32.0632C32.2523 49.2676 32.4404 49.2324 32.6153 49.1602C39.4473 46.3394 44.3398 39.7748 44.7359 32.0227C44.7643 31.4676 44.3161 31.0041 43.7602 31.0041H6.49393C5.93817 31.0041 5.48983 31.4676 5.51825 32.0227C5.91444 39.7748 10.8069 46.3394 17.6389 49.1602C17.8138 49.2324 18.0018 49.2676 18.191 49.2676Z" stroke="black" stroke-width="1.5" stroke-miterlimit="10" stroke-linecap="round" stroke-linejoin="round"/>
<path d="M37.4551 5.21223C37.6914 5.14885 37.8458 4.92014 37.8136 4.67756C37.6856 3.71291 37.2515 2.78117 36.5103 2.03996C35.769 1.29875 34.8373 0.864569 33.8726 0.736639C33.6302 0.704511 33.4015 0.858808 33.3381 1.09523L32.05 5.90226C31.9527 6.26535 32.2849 6.59758 32.6479 6.50021L37.4551 5.21223Z" fill="#FD9A01"/>
<path d="M34.1852 5.9023L35.4345 1.23989C34.9427 0.976124 34.4129 0.808351 33.8726 0.736671C33.6301 0.704444 33.4015 0.858839 33.3381 1.09517L32.05 5.9023C31.9527 6.26528 32.2849 6.59751 32.6479 6.50024L34.1725 6.09175C34.1647 6.03101 34.1679 5.96724 34.1852 5.9023Z" fill="#FB8801"/>
<path d="M37.4551 5.21223C37.6914 5.14885 37.8458 4.92014 37.8136 4.67756C37.6856 3.71291 37.2515 2.78117 36.5103 2.03996C35.769 1.29875 34.8373 0.864569 33.8726 0.736639C33.6302 0.70451 33.4015 0.858807 33.3381 1.09523L32.05 5.90226C31.9527 6.26535 32.2849 6.59758 32.6479 6.50021L37.4551 5.21223Z" stroke="black" stroke-width="1.5" stroke-miterlimit="10" stroke-linecap="round" stroke-linejoin="round"/>
</g>
</svg>
