<svg width="51" height="50" viewBox="0 0 51 50" fill="none" xmlns="http://www.w3.org/2000/svg">
<g clip-path="url(#clip0_268_1346)">
<path d="M40.8174 31.7764H41.7109C43.8682 31.7764 45.6172 30.0273 45.6172 27.8701V23.123C45.6172 22.8535 45.3984 22.6348 45.1289 22.6348H41.7109V18.7285H46.5938C48.2119 18.7285 49.5234 20.04 49.5234 21.6582V27.8701C49.5234 32.1855 46.0254 35.6826 41.7109 35.6826H39.0742L40.8174 31.7764Z" fill="#E0EF9B"/>
<path d="M10.6699 40.9238C6.24023 37.3613 3.38867 31.8799 3.38867 25.8135V17.752C3.38867 17.2129 3.82617 16.7754 4.36523 16.7754H40.7344C41.2734 16.7754 41.7109 17.2129 41.7109 17.752V25.9775C41.7109 32.0215 38.9121 37.4121 34.54 40.9238H10.6699Z" fill="#A0E5A5"/>
<path d="M34.5405 45.1386H37.9808C40.3463 45.1386 42.5088 43.8022 43.5666 41.6864C43.7418 41.3361 43.487 40.924 43.0954 40.924H2.00407C1.61247 40.924 1.35768 41.3361 1.53288 41.6864C2.59079 43.8021 4.75319 45.1386 7.11862 45.1386H26.728H34.5405Z" fill="#FFC144"/>
<path d="M20.6614 27.0357V31.4239C20.6614 31.9633 20.2242 32.4005 19.6848 32.4005H13.9457C13.4063 32.4005 12.9691 31.9633 12.9691 31.4239V27.0357C12.9691 26.7767 13.072 26.5283 13.2552 26.3452L16.8153 22.785L20.3755 26.3452C20.5586 26.5284 20.6614 26.7767 20.6614 27.0357Z" fill="white"/>
<path d="M41.7109 18.7285H46.5938C48.2119 18.7285 49.5234 20.04 49.5234 21.6582V27.8701C49.5234 32.1855 46.0254 35.6826 41.7109 35.6826H39.0742" stroke="black" stroke-width="1.5" stroke-miterlimit="10" stroke-linejoin="round"/>
<path d="M41.7109 22.6348H45.1289C45.3984 22.6348 45.6172 22.8535 45.6172 23.123V27.8701C45.6172 30.0273 43.8682 31.7764 41.7109 31.7764H40.8174" stroke="black" stroke-width="1.5" stroke-miterlimit="10" stroke-linejoin="round"/>
<path d="M10.6699 40.9238C6.24023 37.3613 3.38867 31.8799 3.38867 25.8135V17.752C3.38867 17.2129 3.82617 16.7754 4.36523 16.7754H40.7344C41.2734 16.7754 41.7109 17.2129 41.7109 17.752V25.9775C41.7109 32.0215 38.9121 37.4121 34.54 40.9238" stroke="black" stroke-width="1.5" stroke-miterlimit="10" stroke-linejoin="round"/>
<path d="M34.5405 45.1386H37.9808C40.3463 45.1386 42.5088 43.8022 43.5666 41.6864C43.7418 41.3361 43.487 40.924 43.0954 40.924H2.00407C1.61247 40.924 1.35768 41.3361 1.53288 41.6864C2.59079 43.8021 4.75319 45.1386 7.11862 45.1386H26.728" stroke="black" stroke-width="1.5" stroke-miterlimit="10" stroke-linecap="round" stroke-linejoin="round"/>
<path d="M20.6614 27.0357V31.4239C20.6614 31.9633 20.2242 32.4005 19.6848 32.4005H13.9457C13.4063 32.4005 12.9691 31.9633 12.9691 31.4239V27.0357C12.9691 26.7767 13.072 26.5283 13.2552 26.3452L16.8153 22.785L20.3755 26.3452C20.5586 26.5284 20.6614 26.7767 20.6614 27.0357Z" stroke="black" stroke-width="1.5" stroke-miterlimit="10" stroke-linejoin="round"/>
<path d="M16.8153 22.7852V16.7755" stroke="black" stroke-width="1.5" stroke-miterlimit="10" stroke-linejoin="round"/>
<path d="M16.7881 8.37708C16.9444 8.67024 17.2275 9.29524 17.2275 10.1349C17.2275 10.4671 17.1832 11.1518 16.7881 11.8927" stroke="black" stroke-width="1.5" stroke-miterlimit="10" stroke-linecap="round" stroke-linejoin="round"/>
<path d="M22.5498 4.86145C22.3935 5.15461 22.1104 5.77961 22.1104 6.61926C22.1104 6.95149 22.1547 7.63616 22.5498 8.37708C22.7062 8.67024 22.9893 9.29524 22.9893 10.1349C22.9893 10.4671 22.9449 11.1518 22.5498 11.8927" stroke="black" stroke-width="1.5" stroke-miterlimit="10" stroke-linecap="round" stroke-linejoin="round"/>
<path d="M28.3114 8.37708C28.4677 8.67024 28.7509 9.29524 28.7509 10.1349C28.7509 10.4671 28.7065 11.1518 28.3114 11.8927" stroke="black" stroke-width="1.5" stroke-miterlimit="10" stroke-linecap="round" stroke-linejoin="round"/>
</g>
<defs>
<clipPath id="clip0_268_1346">
<rect width="50" height="50" fill="white" transform="translate(0.5)"/>
</clipPath>
</defs>
</svg>
